CrimsonText-Regular jlb 10-Regular.ufo
<glyph name="exclam" format="1">
  <advance width="232"/>
  <unicode hex="0021"/>
  <note>
    exclam
  </note>
  <outline>
    <contour>
      <point x="115" y="148" type="curve"/>
      <point x="124" y="148"/>
      <point x="130" y="156"/>
      <point x="132" y="174" type="curve"/>
      <point x="141" y="275"/>
      <point x="164" y="523"/>
      <point x="164" y="585" type="curve"/>
      <point x="164" y="622"/>
      <point x="141" y="642"/>
      <point x="116" y="642" type="curve"/>
      <point x="88" y="642"/>
      <point x="67" y="622"/>
      <point x="67" y="585" type="curve"/>
      <point x="67" y="523"/>
      <point x="88" y="275"/>
      <point x="97" y="173" type="curve"/>
      <point x="99" y="156"/>
      <point x="105" y="148"/>
    </contour>
    <contour>
      <point x="116" y="-14" type="curve"/>
      <point x="148" y="-14"/>
      <point x="174" y="13"/>
      <point x="174" y="44" type="curve"/>
      <point x="174" y="75"/>
      <point x="148" y="102"/>
      <point x="116" y="102" type="curve"/>
      <point x="84" y="102"/>
      <point x="58" y="75"/>
      <point x="58" y="44" type="curve"/>
      <point x="58" y="13"/>
      <point x="84" y="-14"/>
    </contour>
  </outline>
</glyph>
<glyph name="quotedbl" format="1">
  <advance width="337"/>
  <unicode hex="0022"/>
  <note>
    quotedbl
  </note>
  <outline>
    <contour>
      <point x="91" y="698" type="curve"/>
      <point x="64" y="698"/>
      <point x="39" y="679"/>
      <point x="39" y="640" type="curve"/>
      <point x="39" y="589"/>
      <point x="69" y="515"/>
      <point x="75" y="449" type="curve"/>
      <point x="76" y="439"/>
      <point x="81" y="434"/>
      <point x="91" y="434" type="curve"/>
      <point x="101" y="434"/>
      <point x="106" y="439"/>
      <point x="107" y="449" type="curve"/>
      <point x="113" y="515"/>
      <point x="143" y="589"/>
      <point x="143" y="640" type="curve"/>
      <point x="143" y="679"/>
      <point x="118" y="698"/>
    </contour>
    <contour>
      <point x="246" y="698" type="curve"/>
      <point x="219" y="698"/>
      <point x="194" y="679"/>
      <point x="194" y="640" type="curve"/>
      <point x="194" y="589"/>
      <point x="223" y="515"/>
      <point x="230" y="449" type="curve"/>
      <point x="231" y="439"/>
      <point x="236" y="434"/>
      <point x="246" y="434" type="curve"/>
      <point x="256" y="434"/>
      <point x="261" y="439"/>
      <point x="262" y="449" type="curve"/>
      <point x="269" y="515"/>
      <point x="298" y="589"/>
      <point x="298" y="640" type="curve"/>
      <point x="298" y="679"/>
      <point x="273" y="698"/>
    </contour>
  </outline>
</glyph>
<glyph name="numbersign" format="1">
  <advance width="472"/>
  <unicode hex="0023"/>
  <note>
    numbersign
  </note>
  <outline>
    <contour>
      <point x="221" y="533" type="line"/>
      <point x="166" y="533" type="line"/>
      <point x="86" y="0" type="line"/>
      <point x="141" y="0" type="line"/>
    </contour>
    <contour>
      <point x="384" y="533" type="line"/>
      <point x="329" y="533" type="line"/>
      <point x="249" y="0" type="line"/>
      <point x="304" y="0" type="line"/>
    </contour>
    <contour>
      <point x="444" y="378" type="line"/>
      <point x="28" y="378" type="line"/>
      <point x="28" y="326" type="line"/>
      <point x="444" y="326" type="line"/>
    </contour>
    <contour>
      <point x="444" y="222" type="line"/>
      <point x="28" y="222" type="line"/>
      <point x="28" y="170" type="line"/>
      <point x="444" y="170" type="line"/>
    </contour>
  </outline>
</glyph>
<glyph name="dollar" format="1">
  <advance width="505"/>
  <unicode hex="0024"/>
  <note>
    dollar
  </note>
  <outline>
    <contour>
      <point x="67" y="490" type="curve"/>
      <point x="67" y="415"/>
      <point x="112" y="362"/>
      <point x="235" y="294" type="curve"/>
      <point x="344" y="234"/>
      <point x="374" y="203"/>
      <point x="374" y="146" type="curve"/>
      <point x="374" y="73"/>
      <point x="321" y="31"/>
      <point x="254" y="31" type="curve"/>
      <point x="166" y="31"/>
      <point x="111" y="76"/>
      <point x="88" y="175" type="curve"/>
      <point x="83" y="181"/>
      <point x="77" y="184"/>
      <point x="66" y="184" type="curve"/>
      <point x="54" y="184"/>
      <point x="47" y="182"/>
      <point x="47" y="178" type="curve"/>
      <point x="47" y="154"/>
      <point x="55" y="101"/>
      <point x="72" y="19" type="curve"/>
      <point x="134" y="8"/>
      <point x="181" y="-10"/>
      <point x="252" y="-10" type="curve"/>
      <point x="364" y="-10"/>
      <point x="461" y="66"/>
      <point x="461" y="173" type="curve"/>
      <point x="461" y="240"/>
      <point x="419" y="290"/>
      <point x="287" y="366" type="curve"/>
      <point x="184" y="425"/>
      <point x="147" y="462"/>
      <point x="147" y="521" type="curve"/>
      <point x="147" y="586"/>
      <point x="190" y="625"/>
      <point x="256" y="625" type="curve"/>
      <point x="328" y="625"/>
      <point x="374" y="573"/>
      <point x="390" y="498" type="curve"/>
      <point x="391" y="491"/>
      <point x="398" y="488"/>
      <point x="411" y="488" type="curve"/>
      <point x="421" y="488"/>
      <point x="426" y="490"/>
      <point x="426" y="495" type="curve"/>
      <point x="426" y="555"/>
      <point x="422" y="603"/>
      <point x="414" y="638" type="curve"/>
      <point x="359" y="654"/>
      <point x="323" y="666"/>
      <point x="263" y="666" type="curve"/>
      <point x="172" y="666"/>
      <point x="67" y="608"/>
    </contour>
    <contour>
      <point x="342" y="758" type="line"/>
      <point x="298" y="758" type="line"/>
      <point x="178" y="-100" type="line"/>
      <point x="222" y="-100" type="line"/>
    </contour>
  </outline>
</glyph>
<glyph name="percent" format="1">
  <advance width="696"/>
  <unicode hex="0025"/>
  <note>
    percent
  </note>
  <outline>
    <contour>
      <point x="127" y="0" type="line"/>
      <point x="623" y="638" type="line"/>
      <point x="569" y="638" type="line"/>
      <point x="73" y="0" type="line"/>
    </contour>
    <contour>
      <point x="191" y="612" type="curve"/>
      <point x="240" y="612"/>
      <point x="281" y="549"/>
      <point x="281" y="475" type="curve"/>
      <point x="281" y="407"/>
      <point x="254" y="356"/>
      <point x="204" y="356" type="curve"/>
      <point x="156" y="356"/>
      <point x="115" y="419"/>
      <point x="115" y="495" type="curve"/>
      <point x="115" y="563"/>
      <point x="141" y="612"/>
    </contour>
    <contour>
      <point x="198" y="644" type="curve"/>
      <point x="114" y="644"/>
      <point x="50" y="575"/>
      <point x="50" y="485" type="curve"/>
      <point x="50" y="393"/>
      <point x="112" y="324"/>
      <point x="198" y="324" type="curve"/>
      <point x="284" y="324"/>
      <point x="346" y="393"/>
      <point x="346" y="485" type="curve"/>
      <point x="346" y="572"/>
      <point x="279" y="644"/>
    </contour>
    <contour>
      <point x="491" y="282" type="curve"/>
      <point x="540" y="282"/>
      <point x="581" y="219"/>
      <point x="581" y="145" type="curve"/>
      <point x="581" y="77"/>
      <point x="554" y="26"/>
      <point x="504" y="26" type="curve"/>
      <point x="456" y="26"/>
      <point x="415" y="89"/>
      <point x="415" y="165" type="curve"/>
      <point x="415" y="233"/>
      <point x="441" y="282"/>
    </contour>
    <contour>
      <point x="498" y="314" type="curve"/>
      <point x="414" y="314"/>
      <point x="350" y="245"/>
      <point x="350" y="155" type="curve"/>
      <point x="350" y="63"/>
      <point x="412" y="-6"/>
      <point x="498" y="-6" type="curve"/>
      <point x="584" y="-6"/>
      <point x="646" y="63"/>
      <point x="646" y="155" type="curve"/>
      <point x="646" y="242"/>
      <point x="579" y="314"/>
    </contour>
  </outline>
</glyph>
<glyph name="ampersand" format="1">
  <advance width="671"/>
  <unicode hex="0026"/>
  <note>
    ampersand
  </note>
  <outline>
    <contour>
      <point x="248" y="-3" type="curve"/>
      <point x="371" y="-3"/>
      <point x="471" y="58"/>
      <point x="585" y="272" type="curve"/>
      <point x="590" y="280"/>
      <point x="628" y="289"/>
      <point x="654" y="289" type="curve"/>
      <point x="658" y="289"/>
      <point x="660" y="294"/>
      <point x="660" y="304" type="curve"/>
      <point x="660" y="310"/>
      <point x="658" y="315"/>
      <point x="655" y="317" type="curve"/>
      <point x="623" y="316"/>
      <point x="576" y="314"/>
      <point x="565" y="314" type="curve"/>
      <point x="541" y="314"/>
      <point x="494" y="315"/>
      <point x="466" y="316" type="curve"/>
      <point x="464" y="312"/>
      <point x="463" y="307"/>
      <point x="463" y="301" type="curve"/>
      <point x="463" y="297"/>
      <point x="464" y="290"/>
      <point x="465" y="287" type="curve"/>
      <point x="498" y="287"/>
      <point x="510" y="283"/>
      <point x="510" y="271" type="curve"/>
      <point x="510" y="224"/>
      <point x="476" y="168"/>
      <point x="432" y="118" type="curve"/>
      <point x="387" y="66"/>
      <point x="327" y="40"/>
      <point x="264" y="40" type="curve"/>
      <point x="195" y="40"/>
      <point x="140" y="91"/>
      <point x="140" y="172" type="curve"/>
      <point x="140" y="233"/>
      <point x="170" y="273"/>
      <point x="253" y="321" type="curve"/>
      <point x="407" y="410"/>
      <point x="454" y="459"/>
      <point x="454" y="532" type="curve"/>
      <point x="454" y="612"/>
      <point x="400" y="663"/>
      <point x="314" y="663" type="curve"/>
      <point x="227" y="663"/>
      <point x="162" y="597"/>
      <point x="162" y="508" type="curve"/>
      <point x="162" y="449"/>
      <point x="175" y="404"/>
      <point x="285" y="246" type="curve"/>
      <point x="404" y="76"/>
      <point x="479" y="0"/>
      <point x="555" y="0" type="curve"/>
      <point x="594" y="0"/>
      <point x="643" y="30"/>
      <point x="664" y="73" type="curve"/>
      <point x="664" y="81"/>
      <point x="652" y="91"/>
      <point x="641" y="91" type="curve"/>
      <point x="624" y="62"/>
      <point x="601" y="52"/>
      <point x="579" y="52" type="curve"/>
      <point x="542" y="52"/>
      <point x="466" y="118"/>
      <point x="340" y="298" type="curve"/>
      <point x="266" y="404"/>
      <point x="235" y="477"/>
      <point x="235" y="534" type="curve"/>
      <point x="235" y="586"/>
      <point x="264" y="625"/>
      <point x="307" y="625" type="curve"/>
      <point x="353" y="625"/>
      <point x="386" y="584"/>
      <point x="386" y="530" type="curve"/>
      <point x="386" y="453"/>
      <point x="354" y="416"/>
      <point x="233" y="356" type="curve"/>
      <point x="103" y="291"/>
      <point x="54" y="237"/>
      <point x="54" y="158" type="curve"/>
      <point x="54" y="59"/>
      <point x="128" y="-3"/>
    </contour>
  </outline>
</glyph>
<glyph name="parenleft" format="1">
  <advance width="323"/>
  <unicode hex="0028"/>
  <note>
    parenleft
  </note>
  <outline>
    <contour>
      <point x="136" y="312" type="curve"/>
      <point x="136" y="495"/>
      <point x="195" y="668"/>
      <point x="279" y="724" type="curve"/>
      <point x="263" y="749" type="line"/>
      <point x="155" y="694"/>
      <point x="71" y="499"/>
      <point x="71" y="312" type="curve"/>
      <point x="71" y="125"/>
      <point x="155" y="-70"/>
      <point x="263" y="-125" type="curve"/>
      <point x="279" y="-100" type="line"/>
      <point x="195" y="-44"/>
      <point x="136" y="129"/>
    </contour>
  </outline>
</glyph>
<glyph name="parenright" format="1">
  <advance width="323"/>
  <unicode hex="0029"/>
  <note>
    parenright
  </note>
  <outline>
    <contour>
      <point x="187" y="312" type="curve"/>
      <point x="187" y="129"/>
      <point x="128" y="-44"/>
      <point x="44" y="-100" type="curve"/>
      <point x="60" y="-125" type="line"/>
      <point x="168" y="-70"/>
      <point x="252" y="125"/>
      <point x="252" y="312" type="curve"/>
      <point x="252" y="499"/>
      <point x="168" y="694"/>
      <point x="60" y="749" type="curve"/>
      <point x="44" y="724" type="line"/>
      <point x="128" y="668"/>
      <point x="187" y="495"/>
    </contour>
  </outline>
</glyph>
<glyph name="asterisk" format="1">
  <advance width="444"/>
  <unicode hex="002A"/>
  <note>
    asterisk
  </note>
  <outline>
    <contour>
      <point x="307" y="613" type="curve"/>
      <point x="296" y="600"/>
      <point x="286" y="586"/>
      <point x="274" y="564" type="curve"/>
      <point x="263" y="543"/>
      <point x="254" y="529"/>
      <point x="246" y="520" type="curve"/>
      <point x="242" y="516"/>
      <point x="238" y="514"/>
      <point x="235" y="514" type="curve"/>
      <point x="231" y="514"/>
      <point x="227" y="518"/>
      <point x="223" y="525" type="curve"/>
      <point x="218" y="540"/>
      <point x="213" y="559"/>
      <point x="209" y="578" type="curve"/>
      <point x="205" y="598"/>
      <point x="199" y="618"/>
      <point x="192" y="637" type="curve"/>
      <point x="183" y="656"/>
      <point x="172" y="665"/>
      <point x="159" y="665" type="curve"/>
      <point x="142" y="665"/>
      <point x="125" y="650"/>
      <point x="125" y="635" type="curve"/>
      <point x="125" y="617"/>
      <point x="141" y="589"/>
      <point x="167" y="562" type="curve"/>
      <point x="199" y="526"/>
      <point x="207" y="515"/>
      <point x="207" y="507" type="curve"/>
      <point x="207" y="497"/>
      <point x="201" y="494"/>
      <point x="183" y="494" type="curve"/>
      <point x="160" y="494"/>
      <point x="121" y="500"/>
      <point x="89" y="500" type="curve"/>
      <point x="61" y="500"/>
      <point x="40" y="485"/>
      <point x="40" y="464" type="curve"/>
      <point x="40" y="444"/>
      <point x="55" y="432"/>
      <point x="78" y="432" type="curve"/>
      <point x="95" y="432"/>
      <point x="115" y="438"/>
      <point x="150" y="454" type="curve"/>
      <point x="174" y="465"/>
      <point x="191" y="474"/>
      <point x="203" y="474" type="curve"/>
      <point x="210" y="474"/>
      <point x="214" y="469"/>
      <point x="214" y="460" type="curve"/>
      <point x="214" y="451"/>
      <point x="206" y="428"/>
      <point x="195" y="406" type="curve"/>
      <point x="179" y="374"/>
      <point x="172" y="352"/>
      <point x="172" y="335" type="curve"/>
      <point x="172" y="314"/>
      <point x="185" y="299"/>
      <point x="205" y="299" type="curve"/>
      <point x="228" y="299"/>
      <point x="240" y="320"/>
      <point x="240" y="362" type="curve"/>
      <point x="240" y="378"/>
      <point x="234" y="434"/>
      <point x="234" y="446" type="curve"/>
      <point x="234" y="459"/>
      <point x="237" y="465"/>
      <point x="243" y="465" type="curve"/>
      <point x="254" y="465"/>
      <point x="276" y="450"/>
      <point x="298" y="428" type="curve"/>
      <point x="327" y="399"/>
      <point x="353" y="383"/>
      <point x="370" y="383" type="curve"/>
      <point x="388" y="383"/>
      <point x="404" y="398"/>
      <point x="404" y="414" type="curve"/>
      <point x="404" y="429"/>
      <point x="391" y="443"/>
      <point x="372" y="451" type="curve"/>
      <point x="349" y="459"/>
      <point x="331" y="464"/>
      <point x="315" y="467" type="curve"/>
      <point x="274" y="475"/>
      <point x="256" y="483"/>
      <point x="256" y="493" type="curve"/>
      <point x="256" y="505"/>
      <point x="267" y="514"/>
      <point x="307" y="536" type="curve"/>
      <point x="354" y="560"/>
      <point x="373" y="579"/>
      <point x="373" y="601" type="curve"/>
      <point x="373" y="619"/>
      <point x="359" y="633"/>
      <point x="343" y="633" type="curve"/>
      <point x="331" y="633"/>
      <point x="318" y="626"/>
    </contour>
  </outline>
</glyph>
<glyph name="plus" format="1">
  <advance width="552"/>
  <unicode hex="002B"/>
  <note>
    plus
  </note>
  <outline>
    <contour>
      <point x="502" y="273" type="line"/>
      <point x="50" y="273" type="line"/>
      <point x="50" y="219" type="line"/>
      <point x="502" y="219" type="line"/>
    </contour>
    <contour>
      <point x="303" y="11" type="line"/>
      <point x="303" y="481" type="line"/>
      <point x="249" y="481" type="line"/>
      <point x="249" y="11" type="line"/>
    </contour>
  </outline>
</glyph>
<glyph name="comma" format="1">
  <advance width="232"/>
  <unicode hex="002C"/>
  <note>
    comma
  </note>
  <outline>
    <contour>
      <point x="52" y="-167" type="curve"/>
      <point x="118" y="-120"/>
      <point x="174" y="-32"/>
      <point x="174" y="32" type="curve"/>
      <point x="174" y="81"/>
      <point x="148" y="103"/>
      <point x="114" y="103" type="curve"/>
      <point x="83" y="103"/>
      <point x="59" y="79"/>
      <point x="59" y="43" type="curve"/>
      <point x="59" y="15"/>
      <point x="79" y="-10"/>
      <point x="79" y="-46" type="curve"/>
      <point x="79" y="-79"/>
      <point x="65" y="-102"/>
      <point x="27" y="-140" type="curve"/>
      <point x="27" y="-153"/>
      <point x="44" y="-167"/>
    </contour>
  </outline>
</glyph>
<glyph name="hyphen" format="1">
  <advance width="377"/>
  <unicode hex="002D"/>
  <note>
    hyphen
  </note>
  <outline>
    <contour>
      <point x="58" y="212" type="curve"/>
      <point x="58" y="205"/>
      <point x="61" y="201"/>
      <point x="65" y="199" type="curve"/>
      <point x="311" y="210" type="line"/>
      <point x="316" y="219"/>
      <point x="319" y="237"/>
      <point x="319" y="259" type="curve"/>
      <point x="319" y="267"/>
      <point x="317" y="271"/>
      <point x="313" y="273" type="curve"/>
      <point x="70" y="261" type="line"/>
      <point x="62" y="260"/>
      <point x="58" y="244"/>
    </contour>
  </outline>
</glyph>
<glyph name="period" format="1">
  <advance width="232"/>
  <unicode hex="002E"/>
  <note>
    period
  </note>
  <outline>
    <contour>
      <point x="116" y="-14" type="curve"/>
      <point x="148" y="-14"/>
      <point x="174" y="13"/>
      <point x="174" y="44" type="curve"/>
      <point x="174" y="75"/>
      <point x="148" y="102"/>
      <point x="116" y="102" type="curve"/>
      <point x="84" y="102"/>
      <point x="58" y="75"/>
      <point x="58" y="44" type="curve"/>
      <point x="58" y="13"/>
      <point x="84" y="-14"/>
    </contour>
  </outline>
</glyph>
<glyph name="slash" format="1">
  <advance width="424"/>
  <unicode hex="002F"/>
  <note>
    slash
  </note>
  <outline>
    <contour>
      <point x="89" y="-28" type="line"/>
      <point x="391" y="755" type="line"/>
      <point x="327" y="755" type="line"/>
      <point x="25" y="-28" type="line"/>
    </contour>
  </outline>
</glyph>
<glyph name="zero" format="1">
  <advance width="538"/>
  <unicode hex="0030"/>
  <note>
    zero
  </note>
  <outline>
    <contour>
      <point x="269" y="-3" type="curve"/>
      <point x="397" y="-3"/>
      <point x="487" y="130"/>
      <point x="487" y="319" type="curve"/>
      <point x="487" y="510"/>
      <point x="398" y="641"/>
      <point x="269" y="641" type="curve"/>
      <point x="141" y="641"/>
      <point x="51" y="508"/>
      <point x="51" y="319" type="curve"/>
      <point x="51" y="132"/>
      <point x="142" y="-3"/>
    </contour>
    <contour>
      <point x="264" y="35" type="curve"/>
      <point x="192" y="35"/>
      <point x="139" y="156"/>
      <point x="139" y="320" type="curve"/>
      <point x="139" y="486"/>
      <point x="195" y="603"/>
      <point x="274" y="603" type="curve"/>
      <point x="346" y="603"/>
      <point x="399" y="486"/>
      <point x="399" y="325" type="curve"/>
      <point x="399" y="151"/>
      <point x="345" y="35"/>
    </contour>
  </outline>
</glyph>
<glyph name="one" format="1">
  <advance width="322"/>
  <unicode hex="0031"/>
  <note>
    one
  </note>
  <outline>
    <contour>
      <point x="43" y="496" type="curve"/>
      <point x="57" y="504"/>
      <point x="95" y="529"/>
      <point x="107" y="529" type="curve"/>
      <point x="121" y="529"/>
      <point x="121" y="497"/>
      <point x="121" y="463" type="curve"/>
      <point x="121" y="103" type="line" smooth="yes"/>
      <point x="121" y="81"/>
      <point x="119" y="62"/>
      <point x="115" y="46" type="curve"/>
      <point x="112" y="37"/>
      <point x="62" y="26"/>
      <point x="45" y="26" type="curve"/>
      <point x="42" y="26"/>
      <point x="41" y="22"/>
      <point x="41" y="14" type="curve"/>
      <point x="41" y="5"/>
      <point x="42" y="0"/>
      <point x="45" y="-3" type="curve"/>
      <point x="102" y="0"/>
      <point x="150" y="2"/>
      <point x="161" y="2" type="curve"/>
      <point x="175" y="2"/>
      <point x="215" y="0"/>
      <point x="282" y="-3" type="curve"/>
      <point x="283" y="-2"/>
      <point x="283" y="2"/>
      <point x="283" y="8" type="curve"/>
      <point x="283" y="20"/>
      <point x="282" y="26"/>
      <point x="279" y="26" type="curve"/>
      <point x="266" y="26"/>
      <point x="215" y="37"/>
      <point x="212" y="46" type="curve"/>
      <point x="207" y="67"/>
      <point x="204" y="96"/>
      <point x="204" y="135" type="curve"/>
      <point x="204" y="529" type="line" smooth="yes"/>
      <point x="204" y="570"/>
      <point x="207" y="601"/>
      <point x="214" y="623" type="curve"/>
      <point x="211" y="636"/>
      <point x="207" y="642"/>
      <point x="202" y="642" type="curve"/>
      <point x="199" y="642" type="line"/>
      <point x="170" y="622"/>
      <point x="103" y="579"/>
      <point x="27" y="527" type="curve"/>
      <point x="26" y="526"/>
      <point x="25" y="524"/>
      <point x="25" y="521" type="curve"/>
      <point x="25" y="514"/>
      <point x="35" y="500"/>
    </contour>
  </outline>
</glyph>
<glyph name="two" format="1">
  <advance width="466"/>
  <unicode hex="0032"/>
  <note>
    two
  </note>
  <outline>
    <contour>
      <point x="40" y="0" type="curve"/>
      <point x="368" y="0" type="line" smooth="yes"/>
      <point x="380" y="0"/>
      <point x="387" y="5"/>
      <point x="388" y="16" type="curve"/>
      <point x="390" y="29"/>
      <point x="399" y="76"/>
      <point x="415" y="156" type="curve"/>
      <point x="412" y="159"/>
      <point x="406" y="160"/>
      <point x="397" y="160" type="curve"/>
      <point x="390" y="160"/>
      <point x="386" y="156"/>
      <point x="383" y="149" type="curve"/>
      <point x="365" y="86"/>
      <point x="353" y="72"/>
      <point x="317" y="72" type="curve"/>
      <point x="104" y="72" type="line"/>
      <point x="99" y="59" type="line"/>
      <point x="264" y="199"/>
      <point x="380" y="371"/>
      <point x="380" y="479" type="curve"/>
      <point x="380" y="572"/>
      <point x="318" y="642"/>
      <point x="236" y="642" type="curve"/>
      <point x="158" y="642"/>
      <point x="61" y="572"/>
      <point x="44" y="505" type="curve"/>
      <point x="44" y="500"/>
      <point x="57" y="489"/>
      <point x="63" y="489" type="curve"/>
      <point x="96" y="544"/>
      <point x="141" y="572"/>
      <point x="196" y="572" type="curve"/>
      <point x="257" y="572"/>
      <point x="294" y="529"/>
      <point x="294" y="459" type="curve"/>
      <point x="294" y="360"/>
      <point x="192" y="195"/>
      <point x="29" y="30" type="curve"/>
      <point x="29" y="19"/>
      <point x="36" y="0"/>
    </contour>
  </outline>
</glyph>
<glyph name="three" format="1">
  <advance width="465"/>
  <unicode hex="0033"/>
  <note>
    three
  </note>
  <outline>
    <contour>
      <point x="230" y="642" type="curve"/>
      <point x="168" y="642"/>
      <point x="122" y="611"/>
      <point x="91" y="558" type="curve"/>
      <point x="91" y="549"/>
      <point x="98" y="532"/>
      <point x="103" y="532" type="curve"/>
      <point x="138" y="572"/>
      <point x="166" y="583"/>
      <point x="200" y="583" type="curve"/>
      <point x="249" y="583"/>
      <point x="287" y="541"/>
      <point x="287" y="496" type="curve"/>
      <point x="287" y="413"/>
      <point x="228" y="366"/>
      <point x="136" y="350" type="curve"/>
      <point x="135" y="348"/>
      <point x="134" y="345"/>
      <point x="134" y="340" type="curve"/>
      <point x="134" y="329"/>
      <point x="136" y="320"/>
      <point x="141" y="314" type="curve"/>
      <point x="160" y="319"/>
      <point x="177" y="321"/>
      <point x="200" y="321" type="curve"/>
      <point x="277" y="321"/>
      <point x="333" y="259"/>
      <point x="333" y="180" type="curve"/>
      <point x="333" y="79"/>
      <point x="277" y="35"/>
      <point x="218" y="35" type="curve"/>
      <point x="125" y="35"/>
      <point x="118" y="101"/>
      <point x="80" y="101" type="curve"/>
      <point x="58" y="101"/>
      <point x="46" y="87"/>
      <point x="46" y="60" type="curve"/>
      <point x="46" y="22"/>
      <point x="94" y="-5"/>
      <point x="186" y="-5" type="curve"/>
      <point x="318" y="-5"/>
      <point x="419" y="79"/>
      <point x="419" y="206" type="curve"/>
      <point x="419" y="305"/>
      <point x="331" y="373"/>
      <point x="252" y="377" type="curve"/>
      <point x="248" y="364" type="line"/>
      <point x="313" y="396"/>
      <point x="362" y="445"/>
      <point x="362" y="514" type="curve"/>
      <point x="362" y="590"/>
      <point x="297" y="642"/>
    </contour>
  </outline>
</glyph>
<glyph name="four" format="1">
  <advance width="482"/>
  <unicode hex="0034"/>
  <note>
    four
  </note>
  <outline>
    <contour>
      <point x="359" y="645" type="curve"/>
      <point x="350" y="645"/>
      <point x="342" y="641"/>
      <point x="336" y="633" type="curve"/>
      <point x="33" y="205" type="line"/>
      <point x="33" y="190"/>
      <point x="35" y="180"/>
      <point x="40" y="174" type="curve"/>
      <point x="293" y="174" type="line"/>
      <point x="293" y="2" type="line" smooth="yes"/>
      <point x="293" y="-3"/>
      <point x="305" y="-6"/>
      <point x="330" y="-6" type="curve"/>
      <point x="356" y="-6"/>
      <point x="370" y="-4"/>
      <point x="372" y="-1" type="curve"/>
      <point x="372" y="174" type="line"/>
      <point x="444" y="174" type="line"/>
      <point x="448" y="177"/>
      <point x="450" y="180"/>
      <point x="450" y="194" type="curve"/>
      <point x="450" y="216"/>
      <point x="445" y="232"/>
      <point x="434" y="232" type="curve"/>
      <point x="372" y="232" type="line"/>
      <point x="372" y="635" type="line" smooth="yes"/>
      <point x="372" y="642"/>
      <point x="368" y="645"/>
    </contour>
    <contour>
      <point x="293" y="538" type="line"/>
      <point x="293" y="232" type="line"/>
      <point x="81" y="232" type="line"/>
      <point x="84" y="214" type="line"/>
      <point x="307" y="534" type="line"/>
    </contour>
  </outline>
</glyph>
<glyph name="five" format="1">
  <advance width="485"/>
  <unicode hex="0035"/>
  <note>
    five
  </note>
  <outline>
    <contour>
      <point x="201" y="-5" type="curve"/>
      <point x="332" y="-5"/>
      <point x="428" y="84"/>
      <point x="428" y="208" type="curve"/>
      <point x="428" y="298"/>
      <point x="345" y="391"/>
      <point x="221" y="391" type="curve"/>
      <point x="190" y="391"/>
      <point x="158" y="384"/>
      <point x="137" y="376" type="curve"/>
      <point x="168" y="549" type="line"/>
      <point x="163" y="546" type="line"/>
      <point x="260" y="550" type="line" smooth="yes"/>
      <point x="318" y="552"/>
      <point x="356" y="556"/>
      <point x="373" y="561" type="curve"/>
      <point x="377" y="581"/>
      <point x="379" y="599"/>
      <point x="379" y="616" type="curve"/>
      <point x="379" y="625"/>
      <point x="377" y="632"/>
      <point x="374" y="637" type="curve"/>
      <point x="349" y="632"/>
      <point x="270" y="627"/>
      <point x="139" y="623" type="curve"/>
      <point x="91" y="326" type="line"/>
      <point x="98" y="319"/>
      <point x="104" y="315"/>
      <point x="109" y="312" type="curve"/>
      <point x="132" y="319"/>
      <point x="161" y="323"/>
      <point x="196" y="323" type="curve"/>
      <point x="287" y="323"/>
      <point x="342" y="269"/>
      <point x="342" y="180" type="curve"/>
      <point x="342" y="93"/>
      <point x="298" y="35"/>
      <point x="233" y="35" type="curve"/>
      <point x="140" y="35"/>
      <point x="126" y="101"/>
      <point x="88" y="101" type="curve"/>
      <point x="71" y="101"/>
      <point x="57" y="87"/>
      <point x="57" y="64" type="curve"/>
      <point x="57" y="18"/>
      <point x="110" y="-5"/>
    </contour>
  </outline>
</glyph>
<glyph name="six" format="1">
  <advance width="492"/>
  <unicode hex="0036"/>
  <note>
    six
  </note>
  <outline>
    <contour>
      <point x="242" y="-6" type="curve"/>
      <point x="352" y="-6"/>
      <point x="447" y="87"/>
      <point x="447" y="195" type="curve"/>
      <point x="447" y="294"/>
      <point x="369" y="381"/>
      <point x="282" y="381" type="curve"/>
      <point x="242" y="381"/>
      <point x="180" y="359"/>
      <point x="151" y="334" type="curve"/>
      <point x="154" y="332" type="line"/>
      <point x="186" y="463"/>
      <point x="269" y="549"/>
      <point x="428" y="616" type="curve"/>
      <point x="428" y="628"/>
      <point x="417" y="647"/>
      <point x="410" y="647" type="curve"/>
      <point x="182" y="556"/>
      <point x="51" y="395"/>
      <point x="51" y="208" type="curve"/>
      <point x="51" y="89"/>
      <point x="136" y="-6"/>
    </contour>
    <contour>
      <point x="254" y="33" type="curve"/>
      <point x="192" y="33"/>
      <point x="137" y="113"/>
      <point x="137" y="210" type="curve"/>
      <point x="138" y="240"/>
      <point x="143" y="268"/>
      <point x="152" y="288" type="curve"/>
      <point x="161" y="310"/>
      <point x="202" y="330"/>
      <point x="236" y="330" type="curve"/>
      <point x="305" y="330"/>
      <point x="364" y="271"/>
      <point x="364" y="174" type="curve"/>
      <point x="364" y="94"/>
      <point x="317" y="33"/>
    </contour>
  </outline>
</glyph>
<glyph name="seven" format="1">
  <advance width="483"/>
  <unicode hex="0037"/>
  <note>
    seven
  </note>
  <outline>
    <contour>
      <point x="143" y="-6" type="curve"/>
      <point x="148" y="-6"/>
      <point x="152" y="-5"/>
      <point x="154" y="-3" type="curve"/>
      <point x="417" y="560" type="line" smooth="yes"/>
      <point x="424" y="575"/>
      <point x="446" y="614"/>
      <point x="446" y="627" type="curve"/>
      <point x="446" y="633"/>
      <point x="444" y="636"/>
      <point x="439" y="636" type="curve"/>
      <point x="422" y="636"/>
      <point x="397" y="633"/>
      <point x="372" y="633" type="curve"/>
      <point x="83" y="633" type="line" smooth="yes"/>
      <point x="73" y="633"/>
      <point x="68" y="629"/>
      <point x="67" y="621" type="curve"/>
      <point x="62" y="586"/>
      <point x="39" y="483"/>
      <point x="36" y="471" type="curve"/>
      <point x="40" y="469"/>
      <point x="45" y="469"/>
      <point x="51" y="469" type="curve"/>
      <point x="60" y="469"/>
      <point x="69" y="471"/>
      <point x="70" y="474" type="curve"/>
      <point x="85" y="524"/>
      <point x="102" y="553"/>
      <point x="140" y="553" type="curve"/>
      <point x="367" y="553" type="line"/>
      <point x="101" y="22" type="line"/>
      <point x="101" y="13"/>
      <point x="128" y="-6"/>
    </contour>
  </outline>
</glyph>
<glyph name="eight" format="1">
  <advance width="467"/>
  <unicode hex="0038"/>
  <note>
    eight
  </note>
  <outline>
    <contour>
      <point x="231" y="-9" type="curve"/>
      <point x="332" y="-9"/>
      <point x="422" y="68"/>
      <point x="422" y="167" type="curve"/>
      <point x="422" y="339"/>
      <point x="147" y="345"/>
      <point x="147" y="502" type="curve"/>
      <point x="147" y="561"/>
      <point x="184" y="608"/>
      <point x="233" y="608" type="curve"/>
      <point x="290" y="608"/>
      <point x="331" y="549"/>
      <point x="331" y="486" type="curve"/>
      <point x="331" y="432"/>
      <point x="306" y="387"/>
      <point x="249" y="356" type="curve"/>
      <point x="276" y="335" type="line"/>
      <point x="362" y="385"/>
      <point x="403" y="438"/>
      <point x="403" y="491" type="curve"/>
      <point x="403" y="583"/>
      <point x="331" y="643"/>
      <point x="239" y="643" type="curve"/>
      <point x="151" y="643"/>
      <point x="73" y="565"/>
      <point x="73" y="480" type="curve"/>
      <point x="73" y="307"/>
      <point x="341" y="287"/>
      <point x="341" y="138" type="curve"/>
      <point x="341" y="70"/>
      <point x="300" y="27"/>
      <point x="233" y="27" type="curve"/>
      <point x="176" y="27"/>
      <point x="124" y="80"/>
      <point x="124" y="157" type="curve"/>
      <point x="124" y="224"/>
      <point x="157" y="271"/>
      <point x="216" y="303" type="curve"/>
      <point x="187" y="324" type="line"/>
      <point x="96" y="277"/>
      <point x="45" y="219"/>
      <point x="45" y="154" type="curve"/>
      <point x="45" y="57"/>
      <point x="120" y="-9"/>
    </contour>
  </outline>
</glyph>
<glyph name="nine" format="1">
  <advance width="492"/>
  <unicode hex="0039"/>
  <note>
    nine
  </note>
  <outline>
    <contour>
      <point x="250" y="647" type="curve"/>
      <point x="140" y="647"/>
      <point x="45" y="554"/>
      <point x="45" y="446" type="curve"/>
      <point x="45" y="347"/>
      <point x="123" y="260"/>
      <point x="210" y="260" type="curve"/>
      <point x="250" y="260"/>
      <point x="312" y="282"/>
      <point x="341" y="307" type="curve"/>
      <point x="338" y="309" type="line"/>
      <point x="306" y="178"/>
      <point x="223" y="92"/>
      <point x="64" y="25" type="curve"/>
      <point x="64" y="13"/>
      <point x="75" y="-6"/>
      <point x="82" y="-6" type="curve"/>
      <point x="310" y="85"/>
      <point x="441" y="246"/>
      <point x="441" y="433" type="curve"/>
      <point x="441" y="552"/>
      <point x="356" y="647"/>
    </contour>
    <contour>
      <point x="238" y="608" type="curve"/>
      <point x="300" y="608"/>
      <point x="355" y="528"/>
      <point x="355" y="431" type="curve"/>
      <point x="355" y="401"/>
      <point x="349" y="373"/>
      <point x="340" y="353" type="curve"/>
      <point x="330" y="331"/>
      <point x="290" y="311"/>
      <point x="256" y="311" type="curve"/>
      <point x="187" y="311"/>
      <point x="128" y="370"/>
      <point x="128" y="467" type="curve"/>
      <point x="128" y="547"/>
      <point x="175" y="608"/>
    </contour>
  </outline>
</glyph>
<glyph name="colon" format="1">
  <advance width="232"/>
  <unicode hex="003A"/>
  <note>
    colon
  </note>
  <outline>
    <contour>
      <point x="116" y="-14" type="curve"/>
      <point x="148" y="-14"/>
      <point x="174" y="13"/>
      <point x="174" y="44" type="curve"/>
      <point x="174" y="75"/>
      <point x="148" y="102"/>
      <point x="116" y="102" type="curve"/>
      <point x="84" y="102"/>
      <point x="58" y="75"/>
      <point x="58" y="44" type="curve"/>
      <point x="58" y="13"/>
      <point x="84" y="-14"/>
    </contour>
    <contour>
      <point x="116" y="320" type="curve"/>
      <point x="148" y="320"/>
      <point x="174" y="347"/>
      <point x="174" y="378" type="curve"/>
      <point x="174" y="409"/>
      <point x="148" y="436"/>
      <point x="116" y="436" type="curve"/>
      <point x="84" y="436"/>
      <point x="58" y="409"/>
      <point x="58" y="378" type="curve"/>
      <point x="58" y="347"/>
      <point x="84" y="320"/>
    </contour>
  </outline>
</glyph>
<glyph name="semicolon" format="1">
  <advance width="232"/>
  <unicode hex="003B"/>
  <note>
    semicolon
  </note>
  <outline>
    <contour>
      <point x="116" y="320" type="curve"/>
      <point x="148" y="320"/>
      <point x="174" y="347"/>
      <point x="174" y="378" type="curve"/>
      <point x="174" y="409"/>
      <point x="148" y="436"/>
      <point x="116" y="436" type="curve"/>
      <point x="84" y="436"/>
      <point x="58" y="409"/>
      <point x="58" y="378" type="curve"/>
      <point x="58" y="347"/>
      <point x="84" y="320"/>
    </contour>
    <contour>
      <point x="59" y="43" type="curve"/>
      <point x="59" y="15"/>
      <point x="79" y="-10"/>
      <point x="79" y="-46" type="curve"/>
      <point x="79" y="-79"/>
      <point x="65" y="-102"/>
      <point x="27" y="-140" type="curve"/>
      <point x="27" y="-153"/>
      <point x="44" y="-167"/>
      <point x="52" y="-167" type="curve"/>
      <point x="118" y="-120"/>
      <point x="174" y="-32"/>
      <point x="174" y="32" type="curve"/>
      <point x="174" y="81"/>
      <point x="148" y="103"/>
      <point x="114" y="103" type="curve"/>
      <point x="83" y="103"/>
      <point x="59" y="79"/>
    </contour>
  </outline>
</glyph>
<glyph name="less" format="1">
  <advance width="510"/>
  <unicode hex="003C"/>
  <note>
    less
  </note>
  <outline>
    <contour>
      <point x="460" y="417" type="line"/>
      <point x="435" y="468" type="line"/>
      <point x="50" y="272" type="line"/>
      <point x="50" y="220" type="line"/>
      <point x="435" y="24" type="line"/>
      <point x="460" y="75" type="line"/>
      <point x="83" y="266" type="line"/>
      <point x="83" y="226" type="line"/>
    </contour>
  </outline>
</glyph>
<glyph name="greater" format="1">
  <advance width="510"/>
  <unicode hex="003E"/>
  <note>
    greater
  </note>
  <outline>
    <contour>
      <point x="460" y="272" type="line"/>
      <point x="75" y="468" type="line"/>
      <point x="50" y="417" type="line"/>
      <point x="427" y="226" type="line"/>
      <point x="427" y="266" type="line"/>
      <point x="50" y="75" type="line"/>
      <point x="75" y="24" type="line"/>
      <point x="460" y="220" type="line"/>
    </contour>
  </outline>
</glyph>
<glyph name="question" format="1">
  <advance width="366"/>
  <unicode hex="003F"/>
  <note>
    question
  </note>
  <outline>
    <contour>
      <point x="110" y="160" type="curve"/>
      <point x="123" y="160"/>
      <point x="129" y="164"/>
      <point x="129" y="173" type="curve"/>
      <point x="129" y="193"/>
      <point x="130" y="222"/>
      <point x="137" y="240" type="curve"/>
      <point x="142" y="253"/>
      <point x="161" y="271"/>
      <point x="210" y="304" type="curve"/>
      <point x="278" y="350"/>
      <point x="303" y="398"/>
      <point x="303" y="457" type="curve"/>
      <point x="303" y="562"/>
      <point x="195" y="642"/>
      <point x="96" y="642" type="curve"/>
      <point x="57" y="642"/>
      <point x="42" y="632"/>
      <point x="42" y="606" type="curve"/>
      <point x="42" y="577"/>
      <point x="61" y="558"/>
      <point x="91" y="558" type="curve"/>
      <point x="102" y="558"/>
      <point x="135" y="565"/>
      <point x="156" y="565" type="curve"/>
      <point x="212" y="565"/>
      <point x="249" y="530"/>
      <point x="251" y="496" type="curve"/>
      <point x="254" y="446"/>
      <point x="228" y="420"/>
      <point x="143" y="366" type="curve"/>
      <point x="102" y="340"/>
      <point x="88" y="305"/>
      <point x="88" y="262" type="curve"/>
      <point x="88" y="245"/>
      <point x="93" y="184"/>
      <point x="96" y="168" type="curve"/>
      <point x="97" y="163"/>
      <point x="101" y="160"/>
    </contour>
    <contour>
      <point x="116" y="-14" type="curve"/>
      <point x="148" y="-14"/>
      <point x="174" y="13"/>
      <point x="174" y="44" type="curve"/>
      <point x="174" y="75"/>
      <point x="148" y="102"/>
      <point x="116" y="102" type="curve"/>
      <point x="84" y="102"/>
      <point x="58" y="75"/>
      <point x="58" y="44" type="curve"/>
      <point x="58" y="13"/>
      <point x="84" y="-14"/>
    </contour>
  </outline>
</glyph>
<glyph name="at" format="1">
  <advance width="819"/>
  <unicode hex="0040"/>
  <note>
    at
  </note>
  <outline>
    <contour>
      <point x="730" y="214" type="curve"/>
      <point x="730" y="141"/>
      <point x="697" y="27"/>
      <point x="606" y="27" type="curve"/>
      <point x="573" y="27"/>
      <point x="556" y="50"/>
      <point x="556" y="97" type="curve"/>
      <point x="556" y="102"/>
      <point x="557" y="112"/>
      <point x="558" y="125" type="curve"/>
      <point x="583" y="348" type="line"/>
      <point x="590" y="401" type="line"/>
      <point x="501" y="410" type="line"/>
      <point x="332" y="410"/>
      <point x="226" y="284"/>
      <point x="226" y="141" type="curve"/>
      <point x="226" y="65"/>
      <point x="266" y="-7"/>
      <point x="335" y="-7" type="curve"/>
      <point x="382" y="-7"/>
      <point x="459" y="54"/>
      <point x="480" y="90" type="curve"/>
      <point x="481" y="91"/>
      <point x="482" y="91"/>
      <point x="483" y="92" type="curve"/>
      <point x="484" y="93"/>
      <point x="485" y="93"/>
      <point x="485" y="92" type="curve"/>
      <point x="485" y="45"/>
      <point x="533" y="-13"/>
      <point x="597" y="-13" type="curve"/>
      <point x="640" y="-13"/>
      <point x="680" y="2"/>
      <point x="717" y="37" type="curve"/>
      <point x="754" y="72"/>
      <point x="779" y="141"/>
      <point x="779" y="233" type="curve"/>
      <point x="779" y="313"/>
      <point x="748" y="397"/>
      <point x="694" y="464" type="curve"/>
      <point x="640" y="531"/>
      <point x="553" y="577"/>
      <point x="457" y="577" type="curve"/>
      <point x="226" y="577"/>
      <point x="52" y="425"/>
      <point x="52" y="185" type="curve"/>
      <point x="52" y="104"/>
      <point x="90" y="15"/>
      <point x="152" y="-54" type="curve"/>
      <point x="214" y="-122"/>
      <point x="310" y="-171"/>
      <point x="414" y="-171" type="curve"/>
      <point x="453" y="-171"/>
      <point x="485" y="-165"/>
      <point x="508" y="-153" type="curve"/>
      <point x="531" y="-140"/>
      <point x="542" y="-127"/>
      <point x="542" y="-114" type="curve"/>
      <point x="542" y="-113"/>
      <point x="541" y="-110"/>
      <point x="540" y="-104" type="curve"/>
      <point x="534" y="-106" type="line"/>
      <point x="522" y="-113"/>
      <point x="489" y="-126"/>
      <point x="469" y="-126" type="curve"/>
      <point x="229" y="-126"/>
      <point x="111" y="14"/>
      <point x="111" y="223" type="curve"/>
      <point x="111" y="396"/>
      <point x="262" y="528"/>
      <point x="446" y="528" type="curve"/>
      <point x="613" y="528"/>
      <point x="730" y="386"/>
    </contour>
    <contour>
      <point x="506" y="334" type="curve"/>
      <point x="506" y="330"/>
      <point x="506" y="326"/>
      <point x="505" y="322" type="curve"/>
      <point x="490" y="170" type="line" smooth="yes"/>
      <point x="487" y="138"/>
      <point x="415" y="53"/>
      <point x="363" y="53" type="curve"/>
      <point x="332" y="53"/>
      <point x="304" y="80"/>
      <point x="304" y="143" type="curve"/>
      <point x="304" y="278"/>
      <point x="370" y="359"/>
      <point x="455" y="359" type="curve"/>
      <point x="491" y="359"/>
      <point x="506" y="354"/>
    </contour>
  </outline>
</glyph>
<glyph name="B" format="1">
  <advance width="598"/>
  <unicode hex="0042"/>
  <note>
    B
  </note>
  <outline>
    <contour>
      <point x="41" y="-3" type="curve"/>
      <point x="81" y="-1"/>
      <point x="122" y="0"/>
      <point x="162" y="0" type="curve"/>
      <point x="208" y="0"/>
      <point x="243" y="0"/>
      <point x="289" y="0" type="curve"/>
      <point x="453" y="0"/>
      <point x="553" y="74"/>
      <point x="553" y="194" type="curve"/>
      <point x="553" y="279"/>
      <point x="484" y="350"/>
      <point x="388" y="363" type="curve"/>
      <point x="388" y="356" type="line"/>
      <point x="464" y="384"/>
      <point x="510" y="441"/>
      <point x="510" y="509" type="curve"/>
      <point x="510" y="598"/>
      <point x="431" y="657"/>
      <point x="311" y="657" type="curve"/>
      <point x="258" y="657"/>
      <point x="197" y="656"/>
      <point x="160" y="656" type="curve"/>
      <point x="125" y="656"/>
      <point x="91" y="657"/>
      <point x="41" y="658" type="curve"/>
      <point x="38" y="655"/>
      <point x="37" y="650"/>
      <point x="37" y="641" type="curve"/>
      <point x="37" y="633"/>
      <point x="38" y="629"/>
      <point x="41" y="629" type="curve"/>
      <point x="64" y="629"/>
      <point x="107" y="615"/>
      <point x="110" y="607" type="curve"/>
      <point x="115" y="591"/>
      <point x="117" y="564"/>
      <point x="117" y="521" type="curve"/>
      <point x="117" y="143" type="line" smooth="yes"/>
      <point x="117" y="85"/>
      <point x="115" y="57"/>
      <point x="110" y="49" type="curve"/>
      <point x="105" y="39"/>
      <point x="66" y="26"/>
      <point x="41" y="26" type="curve"/>
      <point x="39" y="26"/>
      <point x="38" y="22"/>
      <point x="38" y="13" type="curve"/>
      <point x="38" y="4"/>
      <point x="39" y="-1"/>
    </contour>
    <contour>
      <point x="304" y="45" type="curve"/>
      <point x="227" y="45"/>
      <point x="204" y="60"/>
      <point x="204" y="108" type="curve"/>
      <point x="204" y="327" type="line"/>
      <point x="223" y="330"/>
      <point x="247" y="331"/>
      <point x="270" y="331" type="curve"/>
      <point x="395" y="331"/>
      <point x="458" y="274"/>
      <point x="458" y="183" type="curve"/>
      <point x="458" y="93"/>
      <point x="404" y="45"/>
    </contour>
    <contour>
      <point x="270" y="373" type="curve"/>
      <point x="241" y="373"/>
      <point x="224" y="374"/>
      <point x="204" y="376" type="curve"/>
      <point x="204" y="594" type="line" smooth="yes"/>
      <point x="204" y="611"/>
      <point x="220" y="616"/>
      <point x="275" y="616" type="curve"/>
      <point x="367" y="616"/>
      <point x="422" y="570"/>
      <point x="422" y="493" type="curve"/>
      <point x="422" y="410"/>
      <point x="376" y="373"/>
    </contour>
    <contour>
      <point x="297" y="0" type="move" name="bottom"/>
    </contour>
    <contour>
      <point x="297" y="658" type="move" name="top"/>
    </contour>
  </outline>
</glyph>
<glyph name="C" format="1">
  <advance width="666"/>
  <unicode hex="0043"/>
  <note>
    C
  </note>
  <outline>
    <contour>
      <point x="405" y="-6" type="curve"/>
      <point x="479" y="-6"/>
      <point x="558" y="9"/>
      <point x="607" y="38" type="curve"/>
      <point x="615" y="42"/>
      <point x="641" y="168"/>
      <point x="641" y="183" type="curve"/>
      <point x="632" y="188"/>
      <point x="622" y="192"/>
      <point x="605" y="192" type="curve"/>
      <point x="593" y="144"/>
      <point x="574" y="107"/>
      <point x="545" y="81" type="curve"/>
      <point x="512" y="52"/>
      <point x="466" y="37"/>
      <point x="406" y="37" type="curve"/>
      <point x="247" y="37"/>
      <point x="146" y="167"/>
      <point x="146" y="341" type="curve"/>
      <point x="146" y="498"/>
      <point x="243" y="625"/>
      <point x="392" y="625" type="curve"/>
      <point x="497" y="625"/>
      <point x="557" y="587"/>
      <point x="586" y="485" type="curve"/>
      <point x="592" y="482"/>
      <point x="615" y="485"/>
      <point x="620" y="491" type="curve"/>
      <point x="620" y="505"/>
      <point x="621" y="553"/>
      <point x="622" y="642" type="curve"/>
      <point x="539" y="659"/>
      <point x="468" y="667"/>
      <point x="409" y="667" type="curve"/>
      <point x="196" y="667"/>
      <point x="51" y="528"/>
      <point x="51" y="322" type="curve"/>
      <point x="51" y="129"/>
      <point x="199" y="-6"/>
    </contour>
    <contour>
      <point x="335" y="0" type="move" name="bottom"/>
    </contour>
    <contour>
      <point x="335" y="658" type="move" name="top"/>
    </contour>
  </outline>
</glyph>
<glyph name="D" format="1">
  <advance width="730"/>
  <unicode hex="0044"/>
  <note>
    D
  </note>
  <outline>
    <contour>
      <point x="160" y="656" type="curve"/>
      <point x="115" y="656"/>
      <point x="76" y="657"/>
      <point x="41" y="658" type="curve"/>
      <point x="38" y="655"/>
      <point x="37" y="650"/>
      <point x="37" y="641" type="curve"/>
      <point x="37" y="633"/>
      <point x="38" y="629"/>
      <point x="41" y="629" type="curve"/>
      <point x="64" y="629"/>
      <point x="107" y="615"/>
      <point x="110" y="607" type="curve"/>
      <point x="115" y="589"/>
      <point x="117" y="560"/>
      <point x="117" y="521" type="curve"/>
      <point x="117" y="143" type="line" smooth="yes"/>
      <point x="117" y="88"/>
      <point x="115" y="57"/>
      <point x="110" y="49" type="curve"/>
      <point x="105" y="39"/>
      <point x="66" y="26"/>
      <point x="41" y="26" type="curve"/>
      <point x="39" y="26"/>
      <point x="38" y="21"/>
      <point x="38" y="12" type="curve"/>
      <point x="38" y="4"/>
      <point x="39" y="-1"/>
      <point x="41" y="-3" type="curve"/>
      <point x="81" y="-2"/>
      <point x="122" y="0"/>
      <point x="162" y="0" type="curve"/>
      <point x="205" y="0"/>
      <point x="310" y="-3"/>
      <point x="333" y="-3" type="curve"/>
      <point x="540" y="-3"/>
      <point x="679" y="134"/>
      <point x="679" y="336" type="curve"/>
      <point x="679" y="519"/>
      <point x="536" y="658"/>
      <point x="324" y="658" type="curve"/>
      <point x="285" y="658"/>
      <point x="189" y="656"/>
    </contour>
    <contour>
      <point x="204" y="139" type="curve"/>
      <point x="204" y="535" type="line"/>
      <point x="204" y="565"/>
      <point x="208" y="586"/>
      <point x="217" y="598" type="curve"/>
      <point x="225" y="609"/>
      <point x="266" y="614"/>
      <point x="314" y="614" type="curve"/>
      <point x="490" y="614"/>
      <point x="579" y="517"/>
      <point x="579" y="337" type="curve"/>
      <point x="579" y="141"/>
      <point x="502" y="43"/>
      <point x="349" y="43" type="curve"/>
      <point x="289" y="43"/>
      <point x="223" y="53"/>
      <point x="219" y="63" type="curve"/>
      <point x="209" y="86"/>
      <point x="204" y="111"/>
    </contour>
    <contour>
      <point x="364" y="0" type="move" name="bottom"/>
    </contour>
    <contour>
      <point x="364" y="329" type="move" name="center"/>
    </contour>
    <contour>
      <point x="221" y="330" type="move" name="stroke"/>
    </contour>
    <contour>
      <point x="364" y="658" type="move" name="top"/>
    </contour>
  </outline>
</glyph>
<glyph name="E" format="1">
  <advance width="580"/>
  <unicode hex="0045"/>
  <note>
    E
  </note>
  <outline>
    <contour>
      <point x="160" y="656" type="curve"/>
      <point x="115" y="656"/>
      <point x="76" y="657"/>
      <point x="41" y="658" type="curve"/>
      <point x="38" y="655"/>
      <point x="37" y="650"/>
      <point x="37" y="641" type="curve"/>
      <point x="37" y="633"/>
      <point x="38" y="629"/>
      <point x="41" y="629" type="curve"/>
      <point x="58" y="629"/>
      <point x="106" y="618"/>
      <point x="110" y="607" type="curve"/>
      <point x="115" y="589"/>
      <point x="117" y="560"/>
      <point x="117" y="521" type="curve"/>
      <point x="117" y="143" type="line" smooth="yes"/>
      <point x="117" y="88"/>
      <point x="115" y="57"/>
      <point x="110" y="49" type="curve"/>
      <point x="103" y="37"/>
      <point x="58" y="26"/>
      <point x="41" y="26" type="curve"/>
      <point x="39" y="26"/>
      <point x="38" y="22"/>
      <point x="38" y="13" type="curve"/>
      <point x="38" y="4"/>
      <point x="39" y="-1"/>
      <point x="41" y="-3" type="curve"/>
      <point x="162" y="0" type="line" smooth="yes"/>
      <point x="209" y="0"/>
      <point x="269" y="-1"/>
      <point x="342" y="-2" type="curve"/>
      <point x="415" y="-3"/>
      <point x="469" y="-4"/>
      <point x="503" y="-4" type="curve"/>
      <point x="507" y="29"/>
      <point x="546" y="134"/>
      <point x="557" y="162" type="curve"/>
      <point x="553" y="166"/>
      <point x="545" y="168"/>
      <point x="532" y="168" type="curve"/>
      <point x="524" y="168"/>
      <point x="519" y="166"/>
      <point x="518" y="162" type="curve"/>
      <point x="503" y="111"/>
      <point x="475" y="72"/>
      <point x="455" y="61" type="curve"/>
      <point x="433" y="50"/>
      <point x="391" y="44"/>
      <point x="329" y="44" type="curve"/>
      <point x="281" y="44" type="line" smooth="yes"/>
      <point x="238" y="44"/>
      <point x="215" y="47"/>
      <point x="213" y="54" type="curve"/>
      <point x="207" y="71"/>
      <point x="204" y="102"/>
      <point x="204" y="145" type="curve"/>
      <point x="204" y="300" type="line" smooth="yes"/>
      <point x="204" y="306"/>
      <point x="228" y="309"/>
      <point x="276" y="309" type="curve"/>
      <point x="338" y="309"/>
      <point x="372" y="307"/>
      <point x="381" y="301" type="curve"/>
      <point x="396" y="291"/>
      <point x="401" y="276"/>
      <point x="410" y="238" type="curve"/>
      <point x="412" y="233"/>
      <point x="417" y="230"/>
      <point x="426" y="230" type="curve"/>
      <point x="434" y="230"/>
      <point x="439" y="231"/>
      <point x="442" y="234" type="curve"/>
      <point x="442" y="423" type="line"/>
      <point x="439" y="426"/>
      <point x="433" y="428"/>
      <point x="425" y="428" type="curve"/>
      <point x="416" y="428"/>
      <point x="411" y="426"/>
      <point x="410" y="421" type="curve"/>
      <point x="403" y="389"/>
      <point x="396" y="367"/>
      <point x="382" y="361" type="curve"/>
      <point x="371" y="357"/>
      <point x="352" y="353"/>
      <point x="324" y="353" type="curve"/>
      <point x="247" y="353" type="line" smooth="yes"/>
      <point x="218" y="353"/>
      <point x="204" y="355"/>
      <point x="204" y="359" type="curve"/>
      <point x="204" y="519" type="line" smooth="yes"/>
      <point x="204" y="559"/>
      <point x="206" y="587"/>
      <point x="209" y="603" type="curve"/>
      <point x="210" y="612"/>
      <point x="240" y="616"/>
      <point x="297" y="616" type="curve"/>
      <point x="364" y="616" type="line" smooth="yes"/>
      <point x="427" y="616"/>
      <point x="460" y="603"/>
      <point x="480" y="530" type="curve"/>
      <point x="481" y="525"/>
      <point x="485" y="523"/>
      <point x="494" y="523" type="curve"/>
      <point x="503" y="523"/>
      <point x="509" y="525"/>
      <point x="512" y="528" type="curve"/>
      <point x="509" y="546"/>
      <point x="489" y="621"/>
      <point x="483" y="664" type="curve"/>
      <point x="446" y="664"/>
      <point x="390" y="663"/>
      <point x="316" y="660" type="curve"/>
      <point x="242" y="657"/>
      <point x="190" y="656"/>
    </contour>
    <contour>
      <point x="294" y="0" type="move" name="bottom"/>
    </contour>
    <contour>
      <point x="526" y="10" type="move" name="ogonek"/>
    </contour>
    <contour>
      <point x="294" y="658" type="move" name="top"/>
    </contour>
    <contour>
      <point x="28" y="658" type="move" name="topleft"/>
    </contour>
  </outline>
</glyph>
<glyph name="F" format="1">
  <advance width="539"/>
  <unicode hex="0046"/>
  <note>
    F
  </note>
  <outline>
    <contour>
      <point x="43" y="-3" type="curve"/>
      <point x="80" y="0"/>
      <point x="120" y="2"/>
      <point x="163" y="2" type="curve"/>
      <point x="174" y="2"/>
      <point x="212" y="0"/>
      <point x="279" y="-3" type="curve"/>
      <point x="280" y="1"/>
      <point x="281" y="6"/>
      <point x="281" y="11" type="curve"/>
      <point x="281" y="21"/>
      <point x="280" y="26"/>
      <point x="277" y="26" type="curve"/>
      <point x="257" y="26"/>
      <point x="215" y="39"/>
      <point x="213" y="46" type="curve"/>
      <point x="207" y="69"/>
      <point x="204" y="100"/>
      <point x="204" y="139" type="curve"/>
      <point x="204" y="297" type="line" smooth="yes"/>
      <point x="204" y="303"/>
      <point x="228" y="306"/>
      <point x="275" y="306" type="curve"/>
      <point x="337" y="306"/>
      <point x="372" y="303"/>
      <point x="381" y="298" type="curve"/>
      <point x="393" y="291"/>
      <point x="398" y="274"/>
      <point x="409" y="235" type="curve"/>
      <point x="411" y="230"/>
      <point x="416" y="227"/>
      <point x="425" y="227" type="curve"/>
      <point x="433" y="227"/>
      <point x="438" y="228"/>
      <point x="441" y="231" type="curve"/>
      <point x="441" y="425" type="line"/>
      <point x="438" y="428"/>
      <point x="432" y="430"/>
      <point x="424" y="430" type="curve"/>
      <point x="415" y="430"/>
      <point x="410" y="428"/>
      <point x="409" y="423" type="curve"/>
      <point x="399" y="383"/>
      <point x="392" y="367"/>
      <point x="382" y="360" type="curve"/>
      <point x="373" y="354"/>
      <point x="345" y="350"/>
      <point x="319" y="350" type="curve"/>
      <point x="246" y="350" type="line" smooth="yes"/>
      <point x="218" y="350"/>
      <point x="204" y="352"/>
      <point x="204" y="356" type="curve"/>
      <point x="204" y="519" type="line" smooth="yes"/>
      <point x="204" y="559"/>
      <point x="206" y="587"/>
      <point x="209" y="603" type="curve"/>
      <point x="210" y="612"/>
      <point x="240" y="616"/>
      <point x="297" y="616" type="curve"/>
      <point x="364" y="616" type="line" smooth="yes"/>
      <point x="435" y="616"/>
      <point x="462" y="596"/>
      <point x="480" y="530" type="curve"/>
      <point x="481" y="525"/>
      <point x="485" y="523"/>
      <point x="494" y="523" type="curve"/>
      <point x="503" y="523"/>
      <point x="509" y="525"/>
      <point x="512" y="528" type="curve"/>
      <point x="509" y="546"/>
      <point x="489" y="621"/>
      <point x="483" y="664" type="curve"/>
      <point x="446" y="664"/>
      <point x="390" y="663"/>
      <point x="316" y="660" type="curve"/>
      <point x="242" y="657"/>
      <point x="190" y="656"/>
      <point x="160" y="656" type="curve"/>
      <point x="115" y="656"/>
      <point x="76" y="657"/>
      <point x="41" y="658" type="curve"/>
      <point x="38" y="655"/>
      <point x="37" y="650"/>
      <point x="37" y="641" type="curve"/>
      <point x="37" y="633"/>
      <point x="38" y="629"/>
      <point x="41" y="629" type="curve"/>
      <point x="67" y="627"/>
      <point x="106" y="617"/>
      <point x="110" y="607" type="curve"/>
      <point x="115" y="589"/>
      <point x="117" y="560"/>
      <point x="117" y="521" type="curve"/>
      <point x="117" y="136" type="line" smooth="yes"/>
      <point x="117" y="94"/>
      <point x="115" y="64"/>
      <point x="110" y="46" type="curve"/>
      <point x="107" y="38"/>
      <point x="67" y="26"/>
      <point x="43" y="26" type="curve"/>
      <point x="40" y="26"/>
      <point x="39" y="21"/>
      <point x="39" y="12" type="curve"/>
      <point x="39" y="5"/>
      <point x="40" y="0"/>
    </contour>
    <contour>
      <point x="273" y="0" type="move" name="bottom"/>
    </contour>
    <contour>
      <point x="273" y="658" type="move" name="top"/>
    </contour>
  </outline>
</glyph>
<glyph name="G" format="1">
  <advance width="729"/>
  <unicode hex="0047"/>
  <note>
    G
  </note>
  <outline>
    <contour>
      <point x="51" y="322" type="curve"/>
      <point x="51" y="129"/>
      <point x="199" y="-6"/>
      <point x="401" y="-6" type="curve"/>
      <point x="465" y="-6"/>
      <point x="542" y="4"/>
      <point x="618" y="39" type="curve"/>
      <point x="635" y="48"/>
      <point x="643" y="54"/>
      <point x="643" y="59" type="curve"/>
      <point x="643" y="61"/>
      <point x="641" y="68"/>
      <point x="636" y="79" type="curve"/>
      <point x="631" y="90"/>
      <point x="628" y="106"/>
      <point x="628" y="122" type="curve"/>
      <point x="626" y="186" type="line" smooth="yes"/>
      <point x="625" y="226"/>
      <point x="629" y="248"/>
      <point x="636" y="253" type="curve"/>
      <point x="648" y="260"/>
      <point x="686" y="271"/>
      <point x="694" y="271" type="curve"/>
      <point x="697" y="271"/>
      <point x="698" y="276"/>
      <point x="698" y="286" type="curve"/>
      <point x="698" y="291"/>
      <point x="697" y="296"/>
      <point x="696" y="300" type="curve"/>
      <point x="629" y="297"/>
      <point x="593" y="295"/>
      <point x="578" y="295" type="curve"/>
      <point x="546" y="295"/>
      <point x="502" y="297"/>
      <point x="457" y="300" type="curve"/>
      <point x="454" y="297"/>
      <point x="453" y="292"/>
      <point x="453" y="284" type="curve"/>
      <point x="453" y="275"/>
      <point x="454" y="271"/>
      <point x="457" y="271" type="curve"/>
      <point x="478" y="271"/>
      <point x="529" y="262"/>
      <point x="534" y="249" type="curve"/>
      <point x="539" y="235"/>
      <point x="542" y="206"/>
      <point x="542" y="163" type="curve"/>
      <point x="543" y="74" type="line" smooth="yes"/>
      <point x="543" y="66"/>
      <point x="541" y="61"/>
      <point x="536" y="59" type="curve"/>
      <point x="508" y="44"/>
      <point x="465" y="37"/>
      <point x="406" y="37" type="curve"/>
      <point x="247" y="37"/>
      <point x="146" y="167"/>
      <point x="146" y="341" type="curve"/>
      <point x="146" y="498"/>
      <point x="243" y="625"/>
      <point x="392" y="625" type="curve"/>
      <point x="497" y="625"/>
      <point x="557" y="587"/>
      <point x="585" y="486" type="curve"/>
      <point x="592" y="482"/>
      <point x="615" y="485"/>
      <point x="620" y="491" type="curve"/>
      <point x="620" y="505"/>
      <point x="621" y="553"/>
      <point x="622" y="642" type="curve"/>
      <point x="539" y="659"/>
      <point x="468" y="667"/>
      <point x="409" y="667" type="curve"/>
      <point x="196" y="667"/>
      <point x="51" y="528"/>
    </contour>
    <contour>
      <point x="365" y="0" type="move" name="bottom"/>
    </contour>
    <contour>
      <point x="365" y="658" type="move" name="top"/>
    </contour>
  </outline>
</glyph>
<glyph name="H" format="1">
  <advance width="712"/>
  <unicode hex="0048"/>
  <note>
    H
  </note>
  <outline>
    <contour>
      <point x="43" y="-3" type="curve"/>
      <point x="120" y="0"/>
      <point x="160" y="2"/>
      <point x="163" y="2" type="curve"/>
      <point x="174" y="2"/>
      <point x="212" y="0"/>
      <point x="279" y="-3" type="curve"/>
      <point x="280" y="2"/>
      <point x="281" y="7"/>
      <point x="281" y="10" type="curve"/>
      <point x="281" y="18"/>
      <point x="279" y="26"/>
      <point x="277" y="26" type="curve"/>
      <point x="257" y="26"/>
      <point x="215" y="39"/>
      <point x="213" y="46" type="curve"/>
      <point x="207" y="69"/>
      <point x="204" y="100"/>
      <point x="204" y="139" type="curve"/>
      <point x="204" y="309" type="line"/>
      <point x="208" y="313" type="line"/>
      <point x="222" y="316"/>
      <point x="265" y="317"/>
      <point x="358" y="317" type="curve"/>
      <point x="394" y="317"/>
      <point x="443" y="316"/>
      <point x="506" y="315" type="curve"/>
      <point x="508" y="311" type="line"/>
      <point x="508" y="135" type="line" smooth="yes"/>
      <point x="508" y="94"/>
      <point x="506" y="64"/>
      <point x="501" y="46" type="curve"/>
      <point x="498" y="38"/>
      <point x="458" y="26"/>
      <point x="434" y="26" type="curve"/>
      <point x="431" y="26"/>
      <point x="430" y="22"/>
      <point x="430" y="14" type="curve"/>
      <point x="430" y="5"/>
      <point x="431" y="0"/>
      <point x="434" y="-3" type="curve"/>
      <point x="511" y="0"/>
      <point x="551" y="2"/>
      <point x="555" y="2" type="curve"/>
      <point x="564" y="2"/>
      <point x="602" y="0"/>
      <point x="669" y="-3" type="curve"/>
      <point x="670" y="1"/>
      <point x="671" y="6"/>
      <point x="671" y="11" type="curve"/>
      <point x="671" y="21"/>
      <point x="670" y="26"/>
      <point x="667" y="26" type="curve"/>
      <point x="647" y="26"/>
      <point x="605" y="39"/>
      <point x="603" y="46" type="curve"/>
      <point x="598" y="67"/>
      <point x="595" y="98"/>
      <point x="595" y="139" type="curve"/>
      <point x="595" y="519" type="line" smooth="yes"/>
      <point x="595" y="560"/>
      <point x="598" y="591"/>
      <point x="603" y="612" type="curve"/>
      <point x="605" y="619"/>
      <point x="647" y="633"/>
      <point x="667" y="633" type="curve"/>
      <point x="670" y="633"/>
      <point x="671" y="638"/>
      <point x="671" y="647" type="curve"/>
      <point x="671" y="653"/>
      <point x="670" y="658"/>
      <point x="669" y="662" type="curve"/>
      <point x="627" y="659"/>
      <point x="577" y="656"/>
      <point x="555" y="656" type="curve"/>
      <point x="530" y="656"/>
      <point x="466" y="659"/>
      <point x="434" y="662" type="curve"/>
      <point x="431" y="659"/>
      <point x="430" y="654"/>
      <point x="430" y="646" type="curve"/>
      <point x="430" y="637"/>
      <point x="431" y="633"/>
      <point x="434" y="633" type="curve"/>
      <point x="457" y="633"/>
      <point x="498" y="620"/>
      <point x="501" y="612" type="curve"/>
      <point x="506" y="594"/>
      <point x="508" y="564"/>
      <point x="508" y="523" type="curve"/>
      <point x="508" y="371" type="line"/>
      <point x="506" y="367" type="line"/>
      <point x="446" y="366"/>
      <point x="397" y="365"/>
      <point x="358" y="365" type="curve"/>
      <point x="322" y="365"/>
      <point x="271" y="366"/>
      <point x="206" y="367" type="curve"/>
      <point x="204" y="370" type="line"/>
      <point x="204" y="519" type="line" smooth="yes"/>
      <point x="204" y="558"/>
      <point x="207" y="590"/>
      <point x="213" y="613" type="curve"/>
      <point x="215" y="620"/>
      <point x="257" y="633"/>
      <point x="277" y="633" type="curve"/>
      <point x="279" y="633"/>
      <point x="281" y="642"/>
      <point x="281" y="649" type="curve"/>
      <point x="281" y="654"/>
      <point x="280" y="660"/>
      <point x="279" y="662" type="curve"/>
      <point x="212" y="658"/>
      <point x="177" y="656"/>
      <point x="163" y="656" type="curve"/>
      <point x="143" y="656"/>
      <point x="91" y="659"/>
      <point x="43" y="662" type="curve"/>
      <point x="40" y="659"/>
      <point x="39" y="654"/>
      <point x="39" y="646" type="curve"/>
      <point x="39" y="637"/>
      <point x="40" y="633"/>
      <point x="43" y="633" type="curve"/>
      <point x="66" y="633"/>
      <point x="107" y="620"/>
      <point x="110" y="612" type="curve"/>
      <point x="115" y="594"/>
      <point x="117" y="564"/>
      <point x="117" y="523" type="curve"/>
      <point x="117" y="135" type="line" smooth="yes"/>
      <point x="117" y="94"/>
      <point x="115" y="64"/>
      <point x="110" y="46" type="curve"/>
      <point x="107" y="38"/>
      <point x="67" y="26"/>
      <point x="43" y="26" type="curve"/>
      <point x="40" y="26"/>
      <point x="39" y="21"/>
      <point x="39" y="12" type="curve"/>
      <point x="39" y="5"/>
      <point x="40" y="0"/>
    </contour>
    <contour>
      <point x="355" y="0" type="move" name="bottom"/>
    </contour>
    <contour>
      <point x="356" y="499" type="move" name="stroke"/>
    </contour>
    <contour>
      <point x="355" y="658" type="move" name="top"/>
    </contour>
    <contour>
      <point x="21" y="658" type="move" name="topleft"/>
    </contour>
  </outline>
</glyph>
<glyph name="I" format="1">
  <advance width="322"/>
  <unicode hex="0049"/>
  <note>
    I
  </note>
  <outline>
    <contour>
      <point x="43" y="-3" type="curve"/>
      <point x="90" y="0"/>
      <point x="140" y="2"/>
      <point x="163" y="2" type="curve"/>
      <point x="194" y="2"/>
      <point x="232" y="0"/>
      <point x="279" y="-3" type="curve"/>
      <point x="280" y="1"/>
      <point x="281" y="6"/>
      <point x="281" y="11" type="curve"/>
      <point x="281" y="21"/>
      <point x="280" y="26"/>
      <point x="277" y="26" type="curve"/>
      <point x="264" y="26"/>
      <point x="216" y="37"/>
      <point x="213" y="45" type="curve"/>
      <point x="207" y="69"/>
      <point x="204" y="100"/>
      <point x="204" y="139" type="curve"/>
      <point x="204" y="519" type="line" smooth="yes"/>
      <point x="204" y="558"/>
      <point x="207" y="589"/>
      <point x="213" y="612" type="curve"/>
      <point x="216" y="621"/>
      <point x="264" y="633"/>
      <point x="277" y="633" type="curve"/>
      <point x="280" y="633"/>
      <point x="281" y="638"/>
      <point x="281" y="647" type="curve"/>
      <point x="281" y="653"/>
      <point x="280" y="658"/>
      <point x="279" y="662" type="curve"/>
      <point x="222" y="659"/>
      <point x="194" y="657"/>
      <point x="163" y="657" type="curve"/>
      <point x="140" y="657"/>
      <point x="100" y="659"/>
      <point x="43" y="662" type="curve"/>
      <point x="40" y="659"/>
      <point x="39" y="654"/>
      <point x="39" y="646" type="curve"/>
      <point x="39" y="637"/>
      <point x="40" y="633"/>
      <point x="43" y="633" type="curve"/>
      <point x="60" y="633"/>
      <point x="106" y="623"/>
      <point x="110" y="612" type="curve"/>
      <point x="115" y="594"/>
      <point x="117" y="564"/>
      <point x="117" y="523" type="curve"/>
      <point x="117" y="135" type="line" smooth="yes"/>
      <point x="117" y="94"/>
      <point x="115" y="64"/>
      <point x="110" y="46" type="curve"/>
      <point x="106" y="35"/>
      <point x="60" y="26"/>
      <point x="43" y="26" type="curve"/>
      <point x="40" y="26"/>
      <point x="39" y="21"/>
      <point x="39" y="12" type="curve"/>
      <point x="39" y="5"/>
      <point x="40" y="0"/>
    </contour>
    <contour>
      <point x="160" y="0" type="move" name="bottom"/>
    </contour>
    <contour>
      <point x="238" y="10" type="move" name="ogonek"/>
    </contour>
    <contour>
      <point x="160" y="658" type="move" name="top"/>
    </contour>
    <contour>
      <point x="21" y="658" type="move" name="topleft"/>
    </contour>
  </outline>
</glyph>
<glyph name="J" format="1">
  <advance width="314"/>
  <unicode hex="004A"/>
  <note>
    J
  </note>
  <outline>
    <contour>
      <point x="161" y="656" type="curve"/>
      <point x="125" y="656"/>
      <point x="58" y="661"/>
      <point x="41" y="662" type="curve"/>
      <point x="38" y="659"/>
      <point x="37" y="654"/>
      <point x="37" y="646" type="curve"/>
      <point x="37" y="637"/>
      <point x="38" y="633"/>
      <point x="41" y="633" type="curve"/>
      <point x="58" y="633"/>
      <point x="104" y="623"/>
      <point x="108" y="612" type="curve"/>
      <point x="113" y="594"/>
      <point x="115" y="564"/>
      <point x="115" y="523" type="curve"/>
      <point x="115" y="77" type="line" smooth="yes"/>
      <point x="115" y="-7"/>
      <point x="102" y="-76"/>
      <point x="83" y="-112" type="curve"/>
      <point x="64" y="-148"/>
      <point x="45" y="-167"/>
      <point x="26" y="-167" type="curve"/>
      <point x="17" y="-167"/>
      <point x="6" y="-160"/>
      <point x="-10" y="-146" type="curve"/>
      <point x="-25" y="-131"/>
      <point x="-44" y="-124"/>
      <point x="-57" y="-124" type="curve"/>
      <point x="-89" y="-124"/>
      <point x="-112" y="-144"/>
      <point x="-112" y="-172" type="curve"/>
      <point x="-112" y="-206"/>
      <point x="-84" y="-227"/>
      <point x="-28" y="-227" type="curve"/>
      <point x="91" y="-227"/>
      <point x="202" y="-83"/>
      <point x="202" y="85" type="curve"/>
      <point x="202" y="519" type="line" smooth="yes"/>
      <point x="202" y="558"/>
      <point x="205" y="589"/>
      <point x="211" y="613" type="curve"/>
      <point x="214" y="621"/>
      <point x="262" y="633"/>
      <point x="275" y="633" type="curve"/>
      <point x="278" y="633"/>
      <point x="279" y="638"/>
      <point x="279" y="647" type="curve"/>
      <point x="279" y="653"/>
      <point x="278" y="658"/>
      <point x="277" y="662" type="curve"/>
      <point x="249" y="660"/>
      <point x="187" y="656"/>
    </contour>
    <contour>
      <point x="144" y="0" type="move" name="bottom"/>
    </contour>
    <contour>
      <point x="161" y="658" type="move" name="top"/>
    </contour>
  </outline>
</glyph>
<glyph name="K" format="1">
  <advance width="665"/>
  <unicode hex="004B"/>
  <note>
    K
  </note>
  <outline>
    <contour>
      <point x="43" y="-3" type="curve"/>
      <point x="100" y="0"/>
      <point x="139" y="2"/>
      <point x="163" y="2" type="curve"/>
      <point x="174" y="2"/>
      <point x="212" y="0"/>
      <point x="279" y="-3" type="curve"/>
      <point x="280" y="0"/>
      <point x="281" y="5"/>
      <point x="281" y="10" type="curve"/>
      <point x="281" y="18"/>
      <point x="279" y="26"/>
      <point x="277" y="26" type="curve"/>
      <point x="264" y="26"/>
      <point x="216" y="37"/>
      <point x="213" y="46" type="curve"/>
      <point x="207" y="69"/>
      <point x="204" y="100"/>
      <point x="204" y="139" type="curve"/>
      <point x="204" y="311" type="line"/>
      <point x="224" y="311" type="line" smooth="yes"/>
      <point x="235" y="311"/>
      <point x="242" y="308"/>
      <point x="247" y="302" type="curve"/>
      <point x="427" y="104" type="line" smooth="yes"/>
      <point x="459" y="69"/>
      <point x="467" y="53"/>
      <point x="467" y="45" type="curve"/>
      <point x="467" y="31"/>
      <point x="440" y="26"/>
      <point x="424" y="26" type="curve"/>
      <point x="421" y="26"/>
      <point x="420" y="22"/>
      <point x="420" y="14" type="curve"/>
      <point x="420" y="5"/>
      <point x="421" y="0"/>
      <point x="424" y="-3" type="curve"/>
      <point x="446" y="-2"/>
      <point x="520" y="2"/>
      <point x="559" y="2" type="curve"/>
      <point x="575" y="2"/>
      <point x="616" y="0"/>
      <point x="683" y="-3" type="curve"/>
      <point x="684" y="0"/>
      <point x="685" y="3"/>
      <point x="685" y="8" type="curve"/>
      <point x="685" y="20"/>
      <point x="683" y="26"/>
      <point x="680" y="26" type="curve"/>
      <point x="655" y="26"/>
      <point x="602" y="39"/>
      <point x="574" y="69" type="curve"/>
      <point x="330" y="330" type="line"/>
      <point x="323" y="338"/>
      <point x="320" y="343"/>
      <point x="320" y="348" type="curve"/>
      <point x="320" y="351"/>
      <point x="321" y="355"/>
      <point x="323" y="357" type="curve"/>
      <point x="527" y="595" type="line" smooth="yes"/>
      <point x="548" y="619"/>
      <point x="578" y="632"/>
      <point x="619" y="637" type="curve"/>
      <point x="621" y="639"/>
      <point x="623" y="644"/>
      <point x="623" y="651" type="curve"/>
      <point x="623" y="655"/>
      <point x="622" y="660"/>
      <point x="621" y="662" type="curve"/>
      <point x="605" y="661"/>
      <point x="553" y="656"/>
      <point x="520" y="656" type="curve"/>
      <point x="498" y="656"/>
      <point x="439" y="660"/>
      <point x="413" y="662" type="curve"/>
      <point x="412" y="657"/>
      <point x="411" y="652"/>
      <point x="411" y="646" type="curve"/>
      <point x="411" y="640"/>
      <point x="412" y="637"/>
      <point x="415" y="637" type="curve"/>
      <point x="453" y="637"/>
      <point x="472" y="631"/>
      <point x="472" y="620" type="curve"/>
      <point x="472" y="614"/>
      <point x="465" y="601"/>
      <point x="449" y="582" type="curve"/>
      <point x="276" y="379" type="line" smooth="yes"/>
      <point x="260" y="360"/>
      <point x="239" y="350"/>
      <point x="218" y="350" type="curve"/>
      <point x="204" y="350" type="line"/>
      <point x="204" y="519" type="line" smooth="yes"/>
      <point x="204" y="558"/>
      <point x="207" y="589"/>
      <point x="213" y="612" type="curve"/>
      <point x="216" y="621"/>
      <point x="264" y="633"/>
      <point x="277" y="633" type="curve"/>
      <point x="279" y="633"/>
      <point x="281" y="642"/>
      <point x="281" y="649" type="curve"/>
      <point x="281" y="655"/>
      <point x="280" y="660"/>
      <point x="279" y="662" type="curve"/>
      <point x="251" y="660"/>
      <point x="189" y="656"/>
      <point x="163" y="656" type="curve"/>
      <point x="127" y="656"/>
      <point x="60" y="661"/>
      <point x="43" y="662" type="curve"/>
      <point x="40" y="659"/>
      <point x="39" y="654"/>
      <point x="39" y="646" type="curve"/>
      <point x="39" y="637"/>
      <point x="40" y="633"/>
      <point x="43" y="633" type="curve"/>
      <point x="60" y="633"/>
      <point x="106" y="623"/>
      <point x="110" y="612" type="curve"/>
      <point x="115" y="594"/>
      <point x="117" y="564"/>
      <point x="117" y="523" type="curve"/>
      <point x="117" y="135" type="line" smooth="yes"/>
      <point x="117" y="94"/>
      <point x="115" y="64"/>
      <point x="110" y="46" type="curve"/>
      <point x="106" y="35"/>
      <point x="60" y="26"/>
      <point x="43" y="26" type="curve"/>
      <point x="40" y="26"/>
      <point x="39" y="21"/>
      <point x="39" y="12" type="curve"/>
      <point x="39" y="5"/>
      <point x="40" y="0"/>
    </contour>
    <contour>
      <point x="345" y="0" type="move" name="bottom"/>
    </contour>
    <contour>
      <point x="345" y="658" type="move" name="top"/>
    </contour>
  </outline>
</glyph>
<glyph name="L" format="1">
  <advance width="559"/>
  <unicode hex="004C"/>
  <note>
    L
  </note>
  <outline>
    <contour>
      <point x="163" y="656" type="curve"/>
      <point x="143" y="656"/>
      <point x="91" y="659"/>
      <point x="43" y="662" type="curve"/>
      <point x="40" y="659"/>
      <point x="39" y="654"/>
      <point x="39" y="646" type="curve"/>
      <point x="39" y="637"/>
      <point x="40" y="633"/>
      <point x="43" y="633" type="curve"/>
      <point x="66" y="633"/>
      <point x="107" y="620"/>
      <point x="110" y="612" type="curve"/>
      <point x="115" y="594"/>
      <point x="117" y="564"/>
      <point x="117" y="521" type="curve"/>
      <point x="117" y="143" type="line" smooth="yes"/>
      <point x="117" y="88"/>
      <point x="115" y="57"/>
      <point x="110" y="49" type="curve"/>
      <point x="105" y="40"/>
      <point x="66" y="28"/>
      <point x="41" y="28" type="curve"/>
      <point x="39" y="28"/>
      <point x="38" y="24"/>
      <point x="38" y="15" type="curve"/>
      <point x="38" y="6"/>
      <point x="39" y="1"/>
      <point x="41" y="-1" type="curve"/>
      <point x="71" y="0"/>
      <point x="122" y="2"/>
      <point x="162" y="2" type="curve"/>
      <point x="207" y="2"/>
      <point x="267" y="1"/>
      <point x="341" y="-1" type="curve"/>
      <point x="414" y="-3"/>
      <point x="468" y="-4"/>
      <point x="503" y="-4" type="curve"/>
      <point x="506" y="18"/>
      <point x="532" y="98"/>
      <point x="557" y="162" type="curve"/>
      <point x="553" y="166"/>
      <point x="545" y="168"/>
      <point x="532" y="168" type="curve"/>
      <point x="524" y="168"/>
      <point x="519" y="166"/>
      <point x="518" y="162" type="curve"/>
      <point x="482" y="54"/>
      <point x="444" y="44"/>
      <point x="329" y="44" type="curve"/>
      <point x="281" y="44" type="line" smooth="yes"/>
      <point x="238" y="44"/>
      <point x="215" y="47"/>
      <point x="213" y="54" type="curve"/>
      <point x="207" y="77"/>
      <point x="204" y="107"/>
      <point x="204" y="142" type="curve"/>
      <point x="204" y="519" type="line" smooth="yes"/>
      <point x="204" y="558"/>
      <point x="207" y="589"/>
      <point x="213" y="612" type="curve"/>
      <point x="215" y="619"/>
      <point x="257" y="633"/>
      <point x="277" y="633" type="curve"/>
      <point x="280" y="633"/>
      <point x="281" y="638"/>
      <point x="281" y="647" type="curve"/>
      <point x="281" y="653"/>
      <point x="280" y="658"/>
      <point x="279" y="662" type="curve"/>
      <point x="212" y="658"/>
      <point x="177" y="656"/>
    </contour>
    <contour>
      <point x="286" y="0" type="move" name="bottom"/>
    </contour>
    <contour>
      <point x="224" y="329" type="move" name="center"/>
    </contour>
    <contour>
      <point x="387" y="329" type="move" name="dotacc"/>
    </contour>
    <contour>
      <point x="286" y="658" type="move" name="top"/>
    </contour>
    <contour>
      <point x="417" y="431" type="move" name="topright"/>
    </contour>
  </outline>
</glyph>
<glyph name="M" format="1">
  <advance width="912"/>
  <unicode hex="004D"/>
  <note>
    M
  </note>
  <outline>
    <contour>
      <point x="25" y="-3" type="curve"/>
      <point x="72" y="0"/>
      <point x="121" y="2"/>
      <point x="142" y="2" type="curve"/>
      <point x="157" y="2"/>
      <point x="191" y="0"/>
      <point x="258" y="-3" type="curve"/>
      <point x="259" y="1"/>
      <point x="260" y="6"/>
      <point x="260" y="11" type="curve"/>
      <point x="260" y="21"/>
      <point x="259" y="26"/>
      <point x="256" y="26" type="curve"/>
      <point x="204" y="33"/>
      <point x="182" y="42"/>
      <point x="177" y="52" type="curve"/>
      <point x="173" y="60"/>
      <point x="173" y="79"/>
      <point x="174" y="102" type="curve"/>
      <point x="191" y="631" type="line"/>
      <point x="169" y="628" type="line"/>
      <point x="414" y="10" type="line" smooth="yes"/>
      <point x="417" y="3"/>
      <point x="422" y="-2"/>
      <point x="427" y="-2" type="curve"/>
      <point x="439" y="-2"/>
      <point x="448" y="3"/>
      <point x="457" y="24" type="curve"/>
      <point x="702" y="613" type="line"/>
      <point x="678" y="598" type="line"/>
      <point x="685" y="578"/>
      <point x="691" y="540"/>
      <point x="692" y="519" type="curve"/>
      <point x="705" y="124" type="line" smooth="yes"/>
      <point x="707" y="60"/>
      <point x="701" y="46"/>
      <point x="693" y="41" type="curve"/>
      <point x="681" y="34"/>
      <point x="646" y="26"/>
      <point x="633" y="26" type="curve"/>
      <point x="630" y="26"/>
      <point x="629" y="22"/>
      <point x="629" y="13" type="curve"/>
      <point x="629" y="5"/>
      <point x="630" y="0"/>
      <point x="633" y="-3" type="curve"/>
      <point x="710" y="0"/>
      <point x="750" y="2"/>
      <point x="753" y="2" type="curve"/>
      <point x="766" y="2"/>
      <point x="805" y="0"/>
      <point x="872" y="-3" type="curve"/>
      <point x="873" y="1"/>
      <point x="874" y="6"/>
      <point x="874" y="12" type="curve"/>
      <point x="874" y="21"/>
      <point x="873" y="26"/>
      <point x="870" y="26" type="curve"/>
      <point x="855" y="26"/>
      <point x="808" y="36"/>
      <point x="803" y="48" type="curve"/>
      <point x="794" y="71"/>
      <point x="789" y="102"/>
      <point x="788" y="140" type="curve"/>
      <point x="779" y="546" type="line" smooth="yes"/>
      <point x="778" y="585"/>
      <point x="783" y="607"/>
      <point x="791" y="613" type="curve"/>
      <point x="801" y="621"/>
      <point x="830" y="633"/>
      <point x="849" y="633" type="curve"/>
      <point x="852" y="633"/>
      <point x="854" y="638"/>
      <point x="854" y="647" type="curve"/>
      <point x="854" y="651"/>
      <point x="853" y="656"/>
      <point x="851" y="662" type="curve"/>
      <point x="818" y="659"/>
      <point x="780" y="658"/>
      <point x="739" y="658" type="curve"/>
      <point x="726" y="658"/>
      <point x="701" y="659"/>
      <point x="658" y="662" type="curve"/>
      <point x="642" y="610"/>
      <point x="631" y="578"/>
      <point x="616" y="542" type="curve"/>
      <point x="461" y="163" type="line"/>
      <point x="460" y="160"/>
      <point x="458" y="159"/>
      <point x="455" y="159" type="curve"/>
      <point x="453" y="159"/>
      <point x="451" y="161"/>
      <point x="449" y="166" type="curve"/>
      <point x="302" y="536" type="line" smooth="yes"/>
      <point x="276" y="601"/>
      <point x="260" y="645"/>
      <point x="253" y="662" type="curve"/>
      <point x="216" y="659"/>
      <point x="186" y="657"/>
      <point x="161" y="657" type="curve"/>
      <point x="140" y="657"/>
      <point x="69" y="661"/>
      <point x="49" y="662" type="curve"/>
      <point x="46" y="659"/>
      <point x="45" y="654"/>
      <point x="45" y="647" type="curve"/>
      <point x="45" y="638"/>
      <point x="46" y="633"/>
      <point x="49" y="633" type="curve"/>
      <point x="68" y="633"/>
      <point x="124" y="623"/>
      <point x="128" y="612" type="curve"/>
      <point x="131" y="602"/>
      <point x="132" y="589"/>
      <point x="132" y="572" type="curve"/>
      <point x="132" y="549"/>
      <point x="128" y="440"/>
      <point x="126" y="340" type="curve"/>
      <point x="124" y="273"/>
      <point x="122" y="204"/>
      <point x="121" y="135" type="curve"/>
      <point x="120" y="89"/>
      <point x="114" y="60"/>
      <point x="103" y="48" type="curve"/>
      <point x="91" y="36"/>
      <point x="44" y="26"/>
      <point x="25" y="26" type="curve"/>
      <point x="22" y="26"/>
      <point x="20" y="21"/>
      <point x="20" y="12" type="curve"/>
      <point x="20" y="5"/>
      <point x="22" y="0"/>
    </contour>
    <contour>
      <point x="449" y="0" type="move" name="bottom"/>
    </contour>
    <contour>
      <point x="449" y="658" type="move" name="top"/>
    </contour>
  </outline>
</glyph>
<glyph name="N" format="1">
  <advance width="731"/>
  <unicode hex="004E"/>
  <note>
    N
  </note>
  <outline>
    <contour>
      <point x="596" y="-5" type="curve"/>
      <point x="606" y="-5"/>
      <point x="612" y="-4"/>
      <point x="615" y="-1" type="curve"/>
      <point x="613" y="51"/>
      <point x="612" y="98"/>
      <point x="612" y="139" type="curve"/>
      <point x="612" y="519" type="line" smooth="yes"/>
      <point x="612" y="560"/>
      <point x="615" y="591"/>
      <point x="620" y="612" type="curve"/>
      <point x="622" y="621"/>
      <point x="686" y="635"/>
      <point x="699" y="635" type="curve"/>
      <point x="702" y="635"/>
      <point x="703" y="639"/>
      <point x="703" y="647" type="curve"/>
      <point x="703" y="653"/>
      <point x="702" y="658"/>
      <point x="701" y="662" type="curve"/>
      <point x="671" y="660"/>
      <point x="609" y="656"/>
      <point x="589" y="656" type="curve"/>
      <point x="553" y="656"/>
      <point x="488" y="661"/>
      <point x="471" y="662" type="curve"/>
      <point x="468" y="659"/>
      <point x="467" y="654"/>
      <point x="467" y="647" type="curve"/>
      <point x="467" y="639"/>
      <point x="468" y="635"/>
      <point x="471" y="635" type="curve"/>
      <point x="488" y="635"/>
      <point x="546" y="623"/>
      <point x="550" y="612" type="curve"/>
      <point x="555" y="594"/>
      <point x="557" y="565"/>
      <point x="557" y="524" type="curve"/>
      <point x="557" y="213" type="line" smooth="yes"/>
      <point x="557" y="185"/>
      <point x="554" y="165"/>
      <point x="551" y="151" type="curve"/>
      <point x="585" y="128" type="line"/>
      <point x="280" y="560" type="line" smooth="yes"/>
      <point x="243" y="613"/>
      <point x="224" y="646"/>
      <point x="215" y="662" type="curve"/>
      <point x="196" y="661"/>
      <point x="170" y="660"/>
      <point x="135" y="660" type="curve"/>
      <point x="119" y="660"/>
      <point x="85" y="661"/>
      <point x="33" y="662" type="curve"/>
      <point x="30" y="659"/>
      <point x="29" y="654"/>
      <point x="29" y="646" type="curve"/>
      <point x="29" y="637"/>
      <point x="30" y="633"/>
      <point x="33" y="633" type="curve"/>
      <point x="52" y="633"/>
      <point x="108" y="623"/>
      <point x="112" y="612" type="curve"/>
      <point x="117" y="595"/>
      <point x="119" y="570"/>
      <point x="119" y="537" type="curve"/>
      <point x="119" y="144" type="line" smooth="yes"/>
      <point x="119" y="99"/>
      <point x="115" y="67"/>
      <point x="109" y="50" type="curve"/>
      <point x="105" y="38"/>
      <point x="48" y="26"/>
      <point x="29" y="26" type="curve"/>
      <point x="27" y="26"/>
      <point x="26" y="21"/>
      <point x="26" y="12" type="curve"/>
      <point x="26" y="4"/>
      <point x="27" y="-1"/>
      <point x="29" y="-3" type="curve"/>
      <point x="67" y="-1"/>
      <point x="106" y="2"/>
      <point x="141" y="2" type="curve"/>
      <point x="154" y="2"/>
      <point x="192" y="0"/>
      <point x="259" y="-3" type="curve"/>
      <point x="260" y="0"/>
      <point x="261" y="5"/>
      <point x="261" y="10" type="curve"/>
      <point x="261" y="18"/>
      <point x="259" y="26"/>
      <point x="257" y="26" type="curve"/>
      <point x="244" y="26"/>
      <point x="185" y="39"/>
      <point x="182" y="48" type="curve"/>
      <point x="176" y="66"/>
      <point x="175" y="97"/>
      <point x="175" y="141" type="curve"/>
      <point x="175" y="613" type="line"/>
      <point x="149" y="605" type="line"/>
      <point x="563" y="18" type="line" smooth="yes"/>
      <point x="574" y="3"/>
      <point x="585" y="-5"/>
    </contour>
    <contour>
      <point x="367" y="0" type="move" name="bottom"/>
    </contour>
    <contour>
      <point x="367" y="658" type="move" name="top"/>
    </contour>
  </outline>
</glyph>
<glyph name="O" format="1">
  <advance width="741"/>
  <unicode hex="004F"/>
  <note>
    O
  </note>
  <outline>
    <contour>
      <point x="369" y="-10" type="curve"/>
      <point x="552" y="-10"/>
      <point x="690" y="145"/>
      <point x="690" y="327" type="curve"/>
      <point x="690" y="515"/>
      <point x="546" y="667"/>
      <point x="368" y="667" type="curve"/>
      <point x="195" y="667"/>
      <point x="51" y="516"/>
      <point x="51" y="326" type="curve"/>
      <point x="51" y="142"/>
      <point x="194" y="-10"/>
    </contour>
    <contour>
      <point x="386" y="33" type="curve"/>
      <point x="239" y="33"/>
      <point x="150" y="181"/>
      <point x="150" y="350" type="curve"/>
      <point x="150" y="495"/>
      <point x="228" y="625"/>
      <point x="353" y="625" type="curve"/>
      <point x="501" y="625"/>
      <point x="591" y="478"/>
      <point x="591" y="309" type="curve"/>
      <point x="591" y="167"/>
      <point x="515" y="33"/>
    </contour>
    <contour>
      <point x="371" y="0" type="move" name="bottom"/>
    </contour>
    <contour>
      <point x="371" y="329" type="move" name="center"/>
    </contour>
    <contour>
      <point x="662" y="10" type="move" name="ogonek"/>
    </contour>
    <contour>
      <point x="371" y="658" type="move" name="top"/>
    </contour>
    <contour>
      <point x="27" y="658" type="move" name="topleft"/>
    </contour>
    <contour>
      <point x="715" y="658" type="move" name="topright"/>
    </contour>
  </outline>
</glyph>
<glyph name="Q" format="1">
  <advance width="741"/>
  <unicode hex="0051"/>
  <note>
    Q
  </note>
  <outline>
    <contour>
      <point x="611" y="-136" type="curve"/>
      <point x="679" y="-136"/>
      <point x="735" y="-124"/>
      <point x="779" y="-101" type="curve"/>
      <point x="779" y="-96" type="line" smooth="yes"/>
      <point x="779" y="-83"/>
      <point x="775" y="-76"/>
      <point x="767" y="-76" type="curve"/>
      <point x="763" y="-76"/>
      <point x="722" y="-84"/>
      <point x="699" y="-84" type="curve"/>
      <point x="656" y="-84"/>
      <point x="611" y="-67"/>
      <point x="567" y="-47" type="curve"/>
      <point x="529" y="-30"/>
      <point x="493" y="-10"/>
      <point x="458" y="5" type="curve"/>
      <point x="576" y="40"/>
      <point x="690" y="157"/>
      <point x="690" y="328" type="curve"/>
      <point x="690" y="515"/>
      <point x="546" y="667"/>
      <point x="368" y="667" type="curve"/>
      <point x="194" y="667"/>
      <point x="51" y="515"/>
      <point x="51" y="328" type="curve"/>
      <point x="51" y="240"/>
      <point x="86" y="152"/>
      <point x="135" y="99" type="curve"/>
      <point x="184" y="46"/>
      <point x="236" y="15"/>
      <point x="284" y="0" type="curve"/>
      <point x="360" y="-23"/>
      <point x="435" y="-77"/>
      <point x="505" y="-110" type="curve"/>
      <point x="542" y="-128"/>
      <point x="579" y="-136"/>
    </contour>
    <contour>
      <point x="386" y="33" type="curve"/>
      <point x="239" y="33"/>
      <point x="150" y="181"/>
      <point x="150" y="350" type="curve"/>
      <point x="150" y="495"/>
      <point x="228" y="625"/>
      <point x="353" y="625" type="curve"/>
      <point x="501" y="625"/>
      <point x="591" y="478"/>
      <point x="591" y="309" type="curve"/>
      <point x="591" y="167"/>
      <point x="515" y="33"/>
    </contour>
    <contour>
      <point x="371" y="0" type="move" name="bottom"/>
    </contour>
    <contour>
      <point x="371" y="658" type="move" name="top"/>
    </contour>
  </outline>
</glyph>
<glyph name="R" format="1">
  <advance width="649"/>
  <unicode hex="0052"/>
  <note>
    R
  </note>
  <outline>
    <contour>
      <point x="276" y="616" type="curve"/>
      <point x="369" y="616"/>
      <point x="426" y="572"/>
      <point x="426" y="482" type="curve"/>
      <point x="426" y="398"/>
      <point x="373" y="349"/>
      <point x="276" y="349" type="curve"/>
      <point x="256" y="349" type="line" smooth="yes"/>
      <point x="239" y="349"/>
      <point x="221" y="350"/>
      <point x="204" y="352" type="curve"/>
      <point x="204" y="539" type="line" smooth="yes"/>
      <point x="204" y="586"/>
      <point x="208" y="607"/>
      <point x="216" y="609" type="curve"/>
      <point x="233" y="614"/>
      <point x="246" y="616"/>
    </contour>
    <contour>
      <point x="307" y="660" type="curve"/>
      <point x="262" y="660"/>
      <point x="182" y="656"/>
      <point x="161" y="656" type="curve"/>
      <point x="121" y="656"/>
      <point x="81" y="657"/>
      <point x="41" y="658" type="curve"/>
      <point x="38" y="655"/>
      <point x="37" y="650"/>
      <point x="37" y="641" type="curve"/>
      <point x="37" y="633"/>
      <point x="38" y="629"/>
      <point x="41" y="629" type="curve"/>
      <point x="58" y="629"/>
      <point x="106" y="618"/>
      <point x="110" y="607" type="curve"/>
      <point x="115" y="589"/>
      <point x="117" y="560"/>
      <point x="117" y="521" type="curve"/>
      <point x="117" y="143" type="line" smooth="yes"/>
      <point x="117" y="88"/>
      <point x="115" y="57"/>
      <point x="110" y="49" type="curve"/>
      <point x="103" y="37"/>
      <point x="60" y="28"/>
      <point x="41" y="28" type="curve"/>
      <point x="39" y="28"/>
      <point x="38" y="24"/>
      <point x="38" y="15" type="curve"/>
      <point x="38" y="5"/>
      <point x="39" y="-1"/>
      <point x="41" y="-3" type="curve"/>
      <point x="82" y="0"/>
      <point x="121" y="2"/>
      <point x="163" y="2" type="curve"/>
      <point x="183" y="2"/>
      <point x="226" y="0"/>
      <point x="293" y="-3" type="curve"/>
      <point x="294" y="1"/>
      <point x="295" y="6"/>
      <point x="295" y="12" type="curve"/>
      <point x="295" y="21"/>
      <point x="294" y="26"/>
      <point x="291" y="26" type="curve"/>
      <point x="274" y="26"/>
      <point x="219" y="38"/>
      <point x="212" y="54" type="curve"/>
      <point x="207" y="68"/>
      <point x="204" y="97"/>
      <point x="204" y="142" type="curve"/>
      <point x="204" y="304" type="line"/>
      <point x="214" y="305"/>
      <point x="224" y="306"/>
      <point x="234" y="306" type="curve"/>
      <point x="275" y="306"/>
      <point x="290" y="298"/>
      <point x="307" y="272" type="curve"/>
      <point x="391" y="139" type="line" smooth="yes"/>
      <point x="454" y="40"/>
      <point x="536" y="-5"/>
      <point x="639" y="-5" type="curve"/>
      <point x="650" y="-5"/>
      <point x="659" y="-4"/>
      <point x="666" y="-2" type="curve"/>
      <point x="668" y="2"/>
      <point x="669" y="7"/>
      <point x="669" y="13" type="curve"/>
      <point x="669" y="18"/>
      <point x="668" y="23"/>
      <point x="666" y="27" type="curve"/>
      <point x="626" y="27"/>
      <point x="569" y="57"/>
      <point x="510" y="132" type="curve"/>
      <point x="473" y="179"/>
      <point x="432" y="253"/>
      <point x="375" y="328" type="curve"/>
      <point x="364" y="316" type="line"/>
      <point x="463" y="342"/>
      <point x="518" y="421"/>
      <point x="518" y="487" type="curve"/>
      <point x="518" y="601"/>
      <point x="426" y="660"/>
    </contour>
    <contour>
      <point x="329" y="0" type="move" name="bottom"/>
    </contour>
    <contour>
      <point x="329" y="658" type="move" name="top"/>
    </contour>
  </outline>
</glyph>
<glyph name="T" format="1">
  <advance width="627"/>
  <unicode hex="0054"/>
  <note>
    T
  </note>
  <outline>
    <contour>
      <point x="95" y="660" type="curve"/>
      <point x="78" y="660"/>
      <point x="55" y="664"/>
      <point x="26" y="671" type="curve"/>
      <point x="7" y="528" type="line"/>
      <point x="12" y="523"/>
      <point x="20" y="521"/>
      <point x="31" y="521" type="curve"/>
      <point x="37" y="521"/>
      <point x="40" y="523"/>
      <point x="41" y="526" type="curve"/>
      <point x="60" y="601"/>
      <point x="77" y="615"/>
      <point x="153" y="615" type="curve"/>
      <point x="220" y="615"/>
      <point x="256" y="610"/>
      <point x="261" y="600" type="curve"/>
      <point x="267" y="589"/>
      <point x="270" y="555"/>
      <point x="270" y="497" type="curve"/>
      <point x="270" y="135" type="line" smooth="yes"/>
      <point x="270" y="94"/>
      <point x="268" y="64"/>
      <point x="263" y="46" type="curve"/>
      <point x="260" y="38"/>
      <point x="220" y="26"/>
      <point x="176" y="26" type="curve"/>
      <point x="173" y="26"/>
      <point x="172" y="21"/>
      <point x="172" y="12" type="curve"/>
      <point x="172" y="5"/>
      <point x="173" y="0"/>
      <point x="176" y="-3" type="curve"/>
      <point x="260" y="0"/>
      <point x="302" y="2"/>
      <point x="316" y="2" type="curve"/>
      <point x="327" y="2"/>
      <point x="365" y="0"/>
      <point x="452" y="-3" type="curve"/>
      <point x="453" y="1"/>
      <point x="454" y="6"/>
      <point x="454" y="11" type="curve"/>
      <point x="454" y="21"/>
      <point x="453" y="26"/>
      <point x="450" y="26" type="curve"/>
      <point x="410" y="26"/>
      <point x="368" y="39"/>
      <point x="366" y="46" type="curve"/>
      <point x="360" y="69"/>
      <point x="357" y="100"/>
      <point x="357" y="139" type="curve"/>
      <point x="357" y="500" type="line" smooth="yes"/>
      <point x="357" y="545"/>
      <point x="360" y="579"/>
      <point x="366" y="600" type="curve"/>
      <point x="369" y="610"/>
      <point x="405" y="615"/>
      <point x="476" y="615" type="curve"/>
      <point x="552" y="615"/>
      <point x="569" y="601"/>
      <point x="588" y="526" type="curve"/>
      <point x="589" y="523"/>
      <point x="592" y="521"/>
      <point x="598" y="521" type="curve"/>
      <point x="609" y="521"/>
      <point x="617" y="523"/>
      <point x="622" y="528" type="curve"/>
      <point x="603" y="671" type="line"/>
      <point x="574" y="664"/>
      <point x="551" y="660"/>
      <point x="534" y="660" type="curve"/>
      <point x="474" y="660"/>
      <point x="380" y="656"/>
      <point x="314" y="656" type="curve"/>
      <point x="248" y="656"/>
      <point x="154" y="660"/>
    </contour>
    <contour>
      <point x="314" y="0" type="move" name="bottom"/>
    </contour>
    <contour>
      <point x="314" y="330" type="move" name="stroke"/>
    </contour>
    <contour>
      <point x="314" y="658" type="move" name="top"/>
    </contour>
  </outline>
</glyph>
<glyph name="U" format="1">
  <advance width="723"/>
  <unicode hex="0055"/>
  <note>
    U
  </note>
  <outline>
    <contour>
      <point x="159" y="657" type="curve"/>
      <point x="134" y="657"/>
      <point x="96" y="658"/>
      <point x="39" y="662" type="curve"/>
      <point x="36" y="659"/>
      <point x="35" y="654"/>
      <point x="35" y="646" type="curve"/>
      <point x="35" y="637"/>
      <point x="36" y="633"/>
      <point x="39" y="633" type="curve"/>
      <point x="62" y="633"/>
      <point x="103" y="620"/>
      <point x="106" y="612" type="curve"/>
      <point x="111" y="594"/>
      <point x="113" y="564"/>
      <point x="113" y="523" type="curve"/>
      <point x="113" y="296" type="line" smooth="yes"/>
      <point x="113" y="97"/>
      <point x="193" y="0"/>
      <point x="371" y="0" type="curve"/>
      <point x="518" y="0"/>
      <point x="610" y="94"/>
      <point x="610" y="286" type="curve"/>
      <point x="610" y="519" type="line" smooth="yes"/>
      <point x="610" y="560"/>
      <point x="613" y="591"/>
      <point x="618" y="612" type="curve"/>
      <point x="620" y="619"/>
      <point x="675" y="635"/>
      <point x="697" y="635" type="curve"/>
      <point x="700" y="635"/>
      <point x="701" y="639"/>
      <point x="701" y="647" type="curve"/>
      <point x="701" y="653"/>
      <point x="700" y="658"/>
      <point x="699" y="662" type="curve"/>
      <point x="668" y="660"/>
      <point x="608" y="656"/>
      <point x="587" y="656" type="curve"/>
      <point x="569" y="656"/>
      <point x="523" y="658"/>
      <point x="469" y="662" type="curve"/>
      <point x="466" y="659"/>
      <point x="465" y="654"/>
      <point x="465" y="647" type="curve"/>
      <point x="465" y="639"/>
      <point x="466" y="635"/>
      <point x="469" y="635" type="curve"/>
      <point x="494" y="635"/>
      <point x="545" y="620"/>
      <point x="548" y="612" type="curve"/>
      <point x="553" y="594"/>
      <point x="555" y="565"/>
      <point x="555" y="524" type="curve"/>
      <point x="555" y="294" type="line" smooth="yes"/>
      <point x="555" y="124"/>
      <point x="498" y="53"/>
      <point x="384" y="53" type="curve"/>
      <point x="269" y="53"/>
      <point x="200" y="122"/>
      <point x="200" y="286" type="curve"/>
      <point x="200" y="519" type="line" smooth="yes"/>
      <point x="200" y="558"/>
      <point x="203" y="589"/>
      <point x="209" y="612" type="curve"/>
      <point x="211" y="619"/>
      <point x="253" y="633"/>
      <point x="273" y="633" type="curve"/>
      <point x="276" y="633"/>
      <point x="277" y="638"/>
      <point x="277" y="648" type="curve"/>
      <point x="277" y="653"/>
      <point x="276" y="658"/>
      <point x="275" y="662" type="curve"/>
      <point x="208" y="659"/>
      <point x="170" y="657"/>
    </contour>
    <contour>
      <point x="362" y="0" type="move" name="bottom"/>
    </contour>
    <contour>
      <point x="482" y="10" type="move" name="ogonek"/>
    </contour>
    <contour>
      <point x="362" y="658" type="move" name="top"/>
    </contour>
    <contour>
      <point x="701" y="658" type="move" name="topright"/>
    </contour>
  </outline>
</glyph>
<glyph name="V" format="1">
  <advance width="675"/>
  <unicode hex="0056"/>
  <note>
    V
  </note>
  <outline>
    <contour>
      <point x="118" y="657" type="curve"/>
      <point x="96" y="657"/>
      <point x="21" y="661"/>
      <point x="3" y="662" type="curve"/>
      <point x="0" y="659"/>
      <point x="-1" y="654"/>
      <point x="-1" y="646" type="curve"/>
      <point x="-1" y="637"/>
      <point x="0" y="633"/>
      <point x="3" y="633" type="curve"/>
      <point x="20" y="633"/>
      <point x="58" y="625"/>
      <point x="67" y="610" type="curve"/>
      <point x="80" y="590"/>
      <point x="94" y="558"/>
      <point x="112" y="514" type="curve"/>
      <point x="315" y="2" type="line" smooth="yes"/>
      <point x="317" y="-2"/>
      <point x="323" y="-9"/>
      <point x="331" y="-9" type="curve"/>
      <point x="343" y="-9"/>
      <point x="351" y="-1"/>
      <point x="357" y="12" type="curve"/>
      <point x="562" y="502" type="line" smooth="yes"/>
      <point x="579" y="543"/>
      <point x="596" y="577"/>
      <point x="611" y="605" type="curve"/>
      <point x="621" y="624"/>
      <point x="641" y="633"/>
      <point x="671" y="633" type="curve"/>
      <point x="674" y="633"/>
      <point x="675" y="638"/>
      <point x="675" y="647" type="curve"/>
      <point x="675" y="653"/>
      <point x="674" y="658"/>
      <point x="673" y="662" type="curve"/>
      <point x="636" y="660"/>
      <point x="596" y="657"/>
      <point x="572" y="657" type="curve"/>
      <point x="563" y="657"/>
      <point x="527" y="659"/>
      <point x="465" y="662" type="curve"/>
      <point x="462" y="659"/>
      <point x="461" y="654"/>
      <point x="461" y="646" type="curve"/>
      <point x="461" y="637"/>
      <point x="462" y="633"/>
      <point x="465" y="633" type="curve"/>
      <point x="485" y="633"/>
      <point x="535" y="622"/>
      <point x="535" y="594" type="curve"/>
      <point x="535" y="580"/>
      <point x="529" y="556"/>
      <point x="516" y="524" type="curve"/>
      <point x="348" y="119" type="line"/>
      <point x="365" y="119" type="line"/>
      <point x="206" y="517" type="line" smooth="yes"/>
      <point x="185" y="570"/>
      <point x="181" y="592"/>
      <point x="181" y="600" type="curve"/>
      <point x="181" y="625"/>
      <point x="225" y="633"/>
      <point x="240" y="633" type="curve"/>
      <point x="242" y="633"/>
      <point x="244" y="642"/>
      <point x="244" y="649" type="curve"/>
      <point x="244" y="655"/>
      <point x="243" y="660"/>
      <point x="242" y="662" type="curve"/>
      <point x="175" y="659"/>
      <point x="134" y="657"/>
    </contour>
    <contour>
      <point x="337" y="0" type="move" name="bottom"/>
    </contour>
    <contour>
      <point x="337" y="658" type="move" name="top"/>
    </contour>
  </outline>
</glyph>
<glyph name="X" format="1">
  <advance width="670"/>
  <unicode hex="0058"/>
  <note>
    X
  </note>
  <outline>
    <contour>
      <point x="0" y="-3" type="curve"/>
      <point x="67" y="0"/>
      <point x="108" y="2"/>
      <point x="123" y="2" type="curve"/>
      <point x="136" y="2"/>
      <point x="174" y="0"/>
      <point x="236" y="-3" type="curve"/>
      <point x="237" y="-1"/>
      <point x="238" y="3"/>
      <point x="238" y="10" type="curve"/>
      <point x="238" y="21"/>
      <point x="237" y="26"/>
      <point x="234" y="26" type="curve"/>
      <point x="198" y="26"/>
      <point x="166" y="40"/>
      <point x="166" y="55" type="curve"/>
      <point x="166" y="59"/>
      <point x="169" y="71"/>
      <point x="191" y="102" type="curve"/>
      <point x="330" y="295" type="line"/>
      <point x="480" y="66" type="line" smooth="yes"/>
      <point x="483" y="61"/>
      <point x="485" y="57"/>
      <point x="485" y="54" type="curve"/>
      <point x="485" y="38"/>
      <point x="446" y="26"/>
      <point x="427" y="26" type="curve"/>
      <point x="424" y="26"/>
      <point x="423" y="22"/>
      <point x="423" y="14" type="curve"/>
      <point x="423" y="5"/>
      <point x="424" y="0"/>
      <point x="427" y="-3" type="curve"/>
      <point x="520" y="0"/>
      <point x="569" y="2"/>
      <point x="573" y="2" type="curve"/>
      <point x="576" y="2"/>
      <point x="611" y="0"/>
      <point x="678" y="-3" type="curve"/>
      <point x="679" y="0"/>
      <point x="680" y="4"/>
      <point x="680" y="10" type="curve"/>
      <point x="680" y="21"/>
      <point x="678" y="26"/>
      <point x="675" y="26" type="curve"/>
      <point x="638" y="26"/>
      <point x="595" y="39"/>
      <point x="577" y="66" type="curve"/>
      <point x="385" y="358" type="line"/>
      <point x="573" y="604" type="line" smooth="yes"/>
      <point x="586" y="621"/>
      <point x="650" y="633"/>
      <point x="669" y="633" type="curve"/>
      <point x="671" y="633"/>
      <point x="673" y="642"/>
      <point x="673" y="649" type="curve"/>
      <point x="673" y="655"/>
      <point x="672" y="660"/>
      <point x="671" y="662" type="curve"/>
      <point x="604" y="659"/>
      <point x="567" y="657"/>
      <point x="559" y="657" type="curve"/>
      <point x="536" y="657"/>
      <point x="494" y="659"/>
      <point x="432" y="662" type="curve"/>
      <point x="429" y="659"/>
      <point x="428" y="654"/>
      <point x="428" y="646" type="curve"/>
      <point x="428" y="637"/>
      <point x="429" y="633"/>
      <point x="432" y="633" type="curve"/>
      <point x="471" y="633"/>
      <point x="502" y="617"/>
      <point x="502" y="602" type="curve"/>
      <point x="502" y="588"/>
      <point x="477" y="549"/>
      <point x="464" y="532" type="curve"/>
      <point x="360" y="396" type="line"/>
      <point x="245" y="571" type="line" smooth="yes"/>
      <point x="237" y="583"/>
      <point x="233" y="593"/>
      <point x="233" y="601" type="curve"/>
      <point x="233" y="624"/>
      <point x="269" y="633"/>
      <point x="293" y="633" type="curve"/>
      <point x="295" y="633"/>
      <point x="297" y="642"/>
      <point x="297" y="649" type="curve"/>
      <point x="297" y="655"/>
      <point x="296" y="660"/>
      <point x="295" y="662" type="curve"/>
      <point x="228" y="659"/>
      <point x="186" y="657"/>
      <point x="167" y="657" type="curve"/>
      <point x="166" y="657"/>
      <point x="124" y="659"/>
      <point x="42" y="662" type="curve"/>
      <point x="39" y="659"/>
      <point x="38" y="654"/>
      <point x="38" y="646" type="curve"/>
      <point x="38" y="637"/>
      <point x="39" y="633"/>
      <point x="42" y="633" type="curve"/>
      <point x="61" y="633"/>
      <point x="80" y="628"/>
      <point x="98" y="617" type="curve"/>
      <point x="121" y="603"/>
      <point x="143" y="581"/>
      <point x="164" y="548" type="curve"/>
      <point x="304" y="334" type="line"/>
      <point x="90" y="54" type="line"/>
      <point x="69" y="33"/>
      <point x="18" y="26"/>
      <point x="2" y="26" type="curve"/>
      <point x="-1" y="26"/>
      <point x="-2" y="21"/>
      <point x="-2" y="10" type="curve"/>
      <point x="-2" y="5"/>
      <point x="-1" y="1"/>
    </contour>
    <contour>
      <point x="335" y="0" type="move" name="bottom"/>
    </contour>
    <contour>
      <point x="335" y="658" type="move" name="top"/>
    </contour>
  </outline>
</glyph>
<glyph name="Y" format="1">
  <advance width="600"/>
  <unicode hex="0059"/>
  <note>
    Y
  </note>
  <outline>
    <contour>
      <point x="184" y="-3" type="curve"/>
      <point x="250" y="0"/>
      <point x="286" y="2"/>
      <point x="302" y="2" type="curve"/>
      <point x="310" y="2"/>
      <point x="347" y="0"/>
      <point x="414" y="-3" type="curve"/>
      <point x="415" y="1"/>
      <point x="416" y="6"/>
      <point x="416" y="11" type="curve"/>
      <point x="416" y="20"/>
      <point x="415" y="24"/>
      <point x="412" y="24" type="curve"/>
      <point x="394" y="24"/>
      <point x="353" y="39"/>
      <point x="351" y="46" type="curve"/>
      <point x="346" y="67"/>
      <point x="343" y="98"/>
      <point x="343" y="139" type="curve"/>
      <point x="343" y="291" type="line" smooth="yes"/>
      <point x="343" y="297"/>
      <point x="354" y="319"/>
      <point x="370" y="347" type="curve"/>
      <point x="487" y="543" type="line" smooth="yes"/>
      <point x="502" y="567"/>
      <point x="516" y="588"/>
      <point x="526" y="604" type="curve"/>
      <point x="536" y="617"/>
      <point x="584" y="635"/>
      <point x="608" y="635" type="curve"/>
      <point x="611" y="635"/>
      <point x="612" y="639"/>
      <point x="612" y="647" type="curve"/>
      <point x="612" y="653"/>
      <point x="611" y="658"/>
      <point x="610" y="662" type="curve"/>
      <point x="595" y="662"/>
      <point x="532" y="656"/>
      <point x="504" y="656" type="curve"/>
      <point x="499" y="656"/>
      <point x="460" y="658"/>
      <point x="386" y="662" type="curve"/>
      <point x="383" y="659"/>
      <point x="382" y="654"/>
      <point x="382" y="647" type="curve"/>
      <point x="382" y="639"/>
      <point x="383" y="635"/>
      <point x="386" y="635" type="curve"/>
      <point x="421" y="635"/>
      <point x="455" y="619"/>
      <point x="455" y="602" type="curve"/>
      <point x="455" y="590"/>
      <point x="444" y="563"/>
      <point x="424" y="530" type="curve"/>
      <point x="324" y="361" type="line"/>
      <point x="322" y="358"/>
      <point x="319" y="356"/>
      <point x="315" y="356" type="curve"/>
      <point x="313" y="356"/>
      <point x="309" y="359"/>
      <point x="308" y="361" type="curve"/>
      <point x="197" y="571" type="line"/>
      <point x="190" y="584"/>
      <point x="186" y="594"/>
      <point x="186" y="601" type="curve"/>
      <point x="186" y="619"/>
      <point x="215" y="635"/>
      <point x="246" y="635" type="curve"/>
      <point x="248" y="635"/>
      <point x="250" y="643"/>
      <point x="250" y="650" type="curve"/>
      <point x="250" y="655"/>
      <point x="249" y="660"/>
      <point x="248" y="662" type="curve"/>
      <point x="168" y="658"/>
      <point x="124" y="656"/>
      <point x="116" y="656" type="curve"/>
      <point x="102" y="656"/>
      <point x="52" y="659"/>
      <point x="-4" y="662" type="curve"/>
      <point x="-7" y="659"/>
      <point x="-8" y="654"/>
      <point x="-8" y="646" type="curve"/>
      <point x="-8" y="639"/>
      <point x="-7" y="635"/>
      <point x="-4" y="635" type="curve"/>
      <point x="12" y="635"/>
      <point x="49" y="623"/>
      <point x="61" y="613" type="curve"/>
      <point x="82" y="598"/>
      <point x="88" y="588"/>
      <point x="110" y="549" type="curve"/>
      <point x="235" y="323" type="line" smooth="yes"/>
      <point x="248" y="301"/>
      <point x="256" y="278"/>
      <point x="256" y="267" type="curve"/>
      <point x="256" y="142" type="line" smooth="yes"/>
      <point x="256" y="99"/>
      <point x="253" y="67"/>
      <point x="248" y="46" type="curve"/>
      <point x="245" y="38"/>
      <point x="205" y="24"/>
      <point x="184" y="24" type="curve"/>
      <point x="181" y="24"/>
      <point x="180" y="20"/>
      <point x="180" y="11" type="curve"/>
      <point x="180" y="4"/>
      <point x="181" y="0"/>
    </contour>
    <contour>
      <point x="302" y="0" type="move" name="bottom"/>
    </contour>
    <contour>
      <point x="302" y="658" type="move" name="top"/>
    </contour>
    <contour>
      <point x="-3" y="658" type="move" name="topleft"/>
    </contour>
  </outline>
</glyph>
<glyph name="Z" format="1">
  <advance width="606"/>
  <unicode hex="005A"/>
  <note>
    Z
  </note>
  <outline>
    <contour>
      <point x="326" y="656" type="curve"/>
      <point x="217" y="656" type="line"/>
      <point x="194" y="656"/>
      <point x="78" y="661"/>
      <point x="65" y="665" type="curve"/>
      <point x="61" y="630"/>
      <point x="50" y="572"/>
      <point x="32" y="489" type="curve"/>
      <point x="38" y="483"/>
      <point x="49" y="480"/>
      <point x="64" y="480" type="curve"/>
      <point x="70" y="480"/>
      <point x="73" y="481"/>
      <point x="74" y="484" type="curve"/>
      <point x="99" y="576"/>
      <point x="128" y="607"/>
      <point x="216" y="607" type="curve"/>
      <point x="473" y="607" type="line"/>
      <point x="453" y="645" type="line"/>
      <point x="45" y="43" type="line"/>
      <point x="42" y="40"/>
      <point x="41" y="34"/>
      <point x="41" y="26" type="curve"/>
      <point x="41" y="15"/>
      <point x="44" y="6"/>
      <point x="49" y="0" type="curve"/>
      <point x="545" y="0" type="line"/>
      <point x="553" y="41"/>
      <point x="568" y="97"/>
      <point x="589" y="166" type="curve"/>
      <point x="583" y="172"/>
      <point x="575" y="175"/>
      <point x="565" y="175" type="curve"/>
      <point x="557" y="175"/>
      <point x="552" y="174"/>
      <point x="551" y="172" type="curve"/>
      <point x="519" y="84"/>
      <point x="478" y="50"/>
      <point x="405" y="50" type="curve"/>
      <point x="139" y="50" type="line"/>
      <point x="145" y="36" type="line"/>
      <point x="546" y="633" type="line"/>
      <point x="546" y="644"/>
      <point x="540" y="665"/>
      <point x="536" y="666" type="curve"/>
      <point x="443" y="659"/>
      <point x="373" y="656"/>
    </contour>
    <contour>
      <point x="303" y="0" type="move" name="bottom"/>
    </contour>
    <contour>
      <point x="303" y="329" type="move" name="center"/>
    </contour>
    <contour>
      <point x="303" y="658" type="move" name="top"/>
    </contour>
  </outline>
</glyph>
<glyph name="bracketleft" format="1">
  <advance width="357"/>
  <unicode hex="005B"/>
  <note>
    bracketleft
  </note>
  <outline>
    <contour>
      <point x="176" y="-59" type="curve"/>
      <point x="176" y="695" type="line"/>
      <point x="215" y="695"/>
      <point x="270" y="702"/>
      <point x="295" y="708" type="curve"/>
      <point x="298" y="712"/>
      <point x="302" y="722"/>
      <point x="302" y="734" type="curve"/>
      <point x="302" y="743"/>
      <point x="300" y="747"/>
      <point x="296" y="749" type="curve"/>
      <point x="253" y="744"/>
      <point x="183" y="740"/>
      <point x="136" y="740" type="curve"/>
      <point x="123" y="740"/>
      <point x="117" y="732"/>
      <point x="117" y="717" type="curve"/>
      <point x="117" y="-81" type="line" smooth="yes"/>
      <point x="117" y="-96"/>
      <point x="123" y="-104"/>
      <point x="136" y="-104" type="curve"/>
      <point x="183" y="-104"/>
      <point x="253" y="-108"/>
      <point x="296" y="-113" type="curve"/>
      <point x="300" y="-111"/>
      <point x="302" y="-107"/>
      <point x="302" y="-98" type="curve"/>
      <point x="302" y="-86"/>
      <point x="298" y="-76"/>
      <point x="295" y="-72" type="curve"/>
      <point x="270" y="-66"/>
      <point x="215" y="-59"/>
    </contour>
  </outline>
</glyph>
<glyph name="backslash" format="1">
  <advance width="424"/>
  <unicode hex="005C"/>
  <note>
    backslash
  </note>
  <outline>
    <contour>
      <point x="97" y="755" type="line"/>
      <point x="33" y="755" type="line"/>
      <point x="335" y="-28" type="line"/>
      <point x="399" y="-28" type="line"/>
    </contour>
  </outline>
</glyph>
<glyph name="bracketright" format="1">
  <advance width="357"/>
  <unicode hex="005D"/>
  <note>
    bracketright
  </note>
  <outline>
    <contour>
      <point x="181" y="695" type="curve"/>
      <point x="181" y="-59" type="line"/>
      <point x="142" y="-59"/>
      <point x="87" y="-66"/>
      <point x="62" y="-72" type="curve"/>
      <point x="59" y="-76"/>
      <point x="55" y="-86"/>
      <point x="55" y="-98" type="curve"/>
      <point x="55" y="-107"/>
      <point x="57" y="-111"/>
      <point x="61" y="-113" type="curve"/>
      <point x="104" y="-108"/>
      <point x="174" y="-104"/>
      <point x="221" y="-104" type="curve"/>
      <point x="234" y="-104"/>
      <point x="240" y="-96"/>
      <point x="240" y="-81" type="curve"/>
      <point x="240" y="717" type="line" smooth="yes"/>
      <point x="240" y="732"/>
      <point x="234" y="740"/>
      <point x="221" y="740" type="curve"/>
      <point x="174" y="740"/>
      <point x="104" y="744"/>
      <point x="61" y="749" type="curve"/>
      <point x="57" y="747"/>
      <point x="55" y="743"/>
      <point x="55" y="734" type="curve"/>
      <point x="55" y="722"/>
      <point x="59" y="712"/>
      <point x="62" y="708" type="curve"/>
      <point x="87" y="702"/>
      <point x="142" y="695"/>
    </contour>
  </outline>
</glyph>
<glyph name="asciicircum" format="1">
  <advance width="544"/>
  <unicode hex="005E"/>
  <note>
    asciicircum
  </note>
  <outline>
    <contour>
      <point x="443" y="121" type="line"/>
      <point x="494" y="146" type="line"/>
      <point x="298" y="531" type="line"/>
      <point x="246" y="531" type="line"/>
      <point x="50" y="146" type="line"/>
      <point x="101" y="121" type="line"/>
      <point x="292" y="498" type="line"/>
      <point x="252" y="498" type="line"/>
    </contour>
  </outline>
</glyph>
<glyph name="a" format="1">
  <advance width="450"/>
  <unicode hex="0061"/>
  <note>
    a
  </note>
  <outline>
    <contour>
      <point x="161" y="-7" type="curve"/>
      <point x="212" y="-7"/>
      <point x="258" y="21"/>
      <point x="313" y="82" type="curve"/>
      <point x="279" y="60" type="line"/>
      <point x="294" y="28"/>
      <point x="323" y="-6"/>
      <point x="358" y="-6" type="curve"/>
      <point x="377" y="-6"/>
      <point x="401" y="6"/>
      <point x="428" y="29" type="curve"/>
      <point x="431" y="34"/>
      <point x="433" y="41"/>
      <point x="433" y="50" type="curve"/>
      <point x="433" y="55"/>
      <point x="432" y="58"/>
      <point x="429" y="58" type="curve"/>
      <point x="415" y="49"/>
      <point x="403" y="44"/>
      <point x="394" y="44" type="curve"/>
      <point x="370" y="44"/>
      <point x="353" y="64"/>
      <point x="353" y="93" type="curve"/>
      <point x="353" y="324" type="line" smooth="yes"/>
      <point x="353" y="404"/>
      <point x="323" y="437"/>
      <point x="250" y="437" type="curve"/>
      <point x="164" y="437"/>
      <point x="59" y="367"/>
      <point x="59" y="313" type="curve"/>
      <point x="59" y="299"/>
      <point x="75" y="289"/>
      <point x="97" y="289" type="curve"/>
      <point x="124" y="289"/>
      <point x="139" y="301"/>
      <point x="139" y="324" type="curve"/>
      <point x="139" y="368"/>
      <point x="168" y="399"/>
      <point x="209" y="399" type="curve"/>
      <point x="249" y="399"/>
      <point x="277" y="372"/>
      <point x="277" y="331" type="curve"/>
      <point x="277" y="259" type="line" smooth="yes"/>
      <point x="277" y="248"/>
      <point x="273" y="242"/>
      <point x="264" y="239" type="curve"/>
      <point x="169" y="206" type="line" smooth="yes"/>
      <point x="93" y="180"/>
      <point x="55" y="141"/>
      <point x="55" y="90" type="curve"/>
      <point x="55" y="31"/>
      <point x="97" y="-7"/>
    </contour>
    <contour>
      <point x="202" y="50" type="curve"/>
      <point x="163" y="50"/>
      <point x="139" y="71"/>
      <point x="139" y="106" type="curve"/>
      <point x="139" y="139"/>
      <point x="161" y="162"/>
      <point x="210" y="179" type="curve"/>
      <point x="277" y="203" type="line"/>
      <point x="277" y="103" type="line" smooth="yes"/>
      <point x="277" y="72"/>
      <point x="231" y="50"/>
    </contour>
    <contour>
      <point x="228" y="0" type="move" name="bottom"/>
    </contour>
    <contour>
      <point x="412" y="10" type="move" name="ogonek"/>
    </contour>
    <contour>
      <point x="228" y="431" type="move" name="top"/>
    </contour>
  </outline>
</glyph>
<glyph name="b" format="1">
  <advance width="513"/>
  <unicode hex="0062"/>
  <note>
    b
  </note>
  <outline>
    <contour>
      <point x="275" y="438" type="curve"/>
      <point x="245" y="438"/>
      <point x="208" y="426"/>
      <point x="170" y="401" type="curve"/>
      <point x="170" y="591" type="line" smooth="yes"/>
      <point x="170" y="628"/>
      <point x="174" y="657"/>
      <point x="181" y="678" type="curve"/>
      <point x="179" y="686"/>
      <point x="173" y="694"/>
      <point x="168" y="694" type="curve"/>
      <point x="137" y="675"/>
      <point x="89" y="662"/>
      <point x="27" y="656" type="curve"/>
      <point x="23" y="656"/>
      <point x="21" y="651"/>
      <point x="21" y="640" type="curve"/>
      <point x="21" y="633"/>
      <point x="23" y="629"/>
      <point x="27" y="629" type="curve"/>
      <point x="36" y="629" type="line" smooth="yes"/>
      <point x="67" y="629"/>
      <point x="84" y="624"/>
      <point x="87" y="613" type="curve"/>
      <point x="91" y="593"/>
      <point x="93" y="572"/>
      <point x="93" y="549" type="curve"/>
      <point x="93" y="135" type="line" smooth="yes"/>
      <point x="93" y="96"/>
      <point x="87" y="36"/>
      <point x="81" y="6" type="curve"/>
      <point x="84" y="2"/>
      <point x="96" y="-4"/>
      <point x="102" y="-4" type="curve"/>
      <point x="119" y="2"/>
      <point x="131" y="7"/>
      <point x="140" y="7" type="curve"/>
      <point x="159" y="7"/>
      <point x="197" y="-6"/>
      <point x="249" y="-6" type="curve"/>
      <point x="366" y="-6"/>
      <point x="475" y="110"/>
      <point x="475" y="233" type="curve"/>
      <point x="475" y="324"/>
      <point x="404" y="438"/>
    </contour>
    <contour>
      <point x="234" y="389" type="curve"/>
      <point x="328" y="389"/>
      <point x="389" y="318"/>
      <point x="389" y="212" type="curve"/>
      <point x="389" y="109"/>
      <point x="335" y="35"/>
      <point x="258" y="35" type="curve"/>
      <point x="199" y="35"/>
      <point x="170" y="60"/>
      <point x="170" y="101" type="curve"/>
      <point x="170" y="333" type="line" smooth="yes"/>
      <point x="170" y="366"/>
      <point x="195" y="389"/>
    </contour>
    <contour>
      <point x="264" y="0" type="move" name="bottom"/>
    </contour>
    <contour>
      <point x="264" y="658" type="move" name="top"/>
    </contour>
  </outline>
</glyph>
<glyph name="c" format="1">
  <advance width="400"/>
  <unicode hex="0063"/>
  <note>
    c
  </note>
  <outline>
    <contour>
      <point x="260" y="436" type="curve"/>
      <point x="117" y="436"/>
      <point x="38" y="332"/>
      <point x="38" y="209" type="curve"/>
      <point x="38" y="84"/>
      <point x="124" y="-6"/>
      <point x="246" y="-6" type="curve"/>
      <point x="301" y="-6"/>
      <point x="357" y="30"/>
      <point x="384" y="67" type="curve"/>
      <point x="388" y="74"/>
      <point x="390" y="80"/>
      <point x="390" y="85" type="curve"/>
      <point x="390" y="94"/>
      <point x="388" y="98"/>
      <point x="384" y="98" type="curve"/>
      <point x="348" y="71"/>
      <point x="307" y="60"/>
      <point x="265" y="60" type="curve"/>
      <point x="174" y="60"/>
      <point x="123" y="137"/>
      <point x="123" y="236" type="curve"/>
      <point x="123" y="342"/>
      <point x="171" y="399"/>
      <point x="229" y="399" type="curve"/>
      <point x="255" y="399"/>
      <point x="277" y="384"/>
      <point x="298" y="353" type="curve"/>
      <point x="314" y="329"/>
      <point x="327" y="321"/>
      <point x="347" y="321" type="curve"/>
      <point x="372" y="321"/>
      <point x="384" y="338"/>
      <point x="384" y="363" type="curve"/>
      <point x="384" y="409"/>
      <point x="328" y="436"/>
    </contour>
    <contour>
      <point x="204" y="0" type="move" name="bottom"/>
    </contour>
    <contour>
      <point x="204" y="431" type="move" name="top"/>
    </contour>
  </outline>
</glyph>
<glyph name="d" format="1">
  <advance width="518"/>
  <unicode hex="0064"/>
  <note>
    d
  </note>
  <outline>
    <contour>
      <point x="259" y="398" type="curve"/>
      <point x="305" y="398"/>
      <point x="343" y="373"/>
      <point x="343" y="328" type="curve"/>
      <point x="343" y="108" type="line" smooth="yes"/>
      <point x="343" y="68"/>
      <point x="317" y="46"/>
      <point x="270" y="46" type="curve"/>
      <point x="190" y="46"/>
      <point x="124" y="120"/>
      <point x="124" y="225" type="curve"/>
      <point x="124" y="338"/>
      <point x="186" y="398"/>
    </contour>
    <contour>
      <point x="263" y="440" type="curve"/>
      <point x="150" y="440"/>
      <point x="38" y="329"/>
      <point x="38" y="196" type="curve"/>
      <point x="38" y="95"/>
      <point x="118" y="-4"/>
      <point x="229" y="-4" type="curve"/>
      <point x="267" y="-4"/>
      <point x="297" y="7"/>
      <point x="343" y="37" type="curve"/>
      <point x="343" y="2" type="line" smooth="yes"/>
      <point x="343" y="-4"/>
      <point x="345" y="-6"/>
      <point x="351" y="-6" type="curve"/>
      <point x="386" y="5"/>
      <point x="447" y="18"/>
      <point x="480" y="20" type="curve"/>
      <point x="484" y="20"/>
      <point x="486" y="25"/>
      <point x="486" y="35" type="curve"/>
      <point x="486" y="42"/>
      <point x="485" y="47"/>
      <point x="483" y="48" type="curve"/>
      <point x="474" y="48" type="line"/>
      <point x="448" y="48"/>
      <point x="429" y="55"/>
      <point x="426" y="65" type="curve"/>
      <point x="422" y="84"/>
      <point x="420" y="109"/>
      <point x="420" y="141" type="curve"/>
      <point x="420" y="591" type="line" smooth="yes"/>
      <point x="420" y="628"/>
      <point x="424" y="657"/>
      <point x="431" y="678" type="curve"/>
      <point x="429" y="686"/>
      <point x="423" y="694"/>
      <point x="418" y="694" type="curve"/>
      <point x="416" y="694" type="line"/>
      <point x="412" y="691" type="line"/>
      <point x="387" y="676"/>
      <point x="334" y="662"/>
      <point x="274" y="656" type="curve"/>
      <point x="270" y="656"/>
      <point x="268" y="651"/>
      <point x="268" y="640" type="curve"/>
      <point x="268" y="633"/>
      <point x="270" y="629"/>
      <point x="274" y="629" type="curve"/>
      <point x="283" y="629" type="line" smooth="yes"/>
      <point x="316" y="629"/>
      <point x="334" y="624"/>
      <point x="337" y="613" type="curve"/>
      <point x="341" y="593"/>
      <point x="343" y="572"/>
      <point x="343" y="549" type="curve"/>
      <point x="343" y="425" type="line"/>
      <point x="317" y="436"/>
      <point x="290" y="440"/>
    </contour>
    <contour>
      <point x="249" y="0" type="move" name="bottom"/>
    </contour>
    <contour>
      <point x="249" y="216" type="move" name="center"/>
    </contour>
    <contour>
      <point x="343" y="529" type="move" name="stroke"/>
    </contour>
    <contour>
      <point x="249" y="658" type="move" name="top"/>
    </contour>
    <contour>
      <point x="460" y="431" type="move" name="topright"/>
    </contour>
  </outline>
</glyph>
<glyph name="e" format="1">
  <advance width="436"/>
  <unicode hex="0065"/>
  <note>
    e
  </note>
  <outline>
    <contour>
      <point x="319" y="274" type="curve"/>
      <point x="105" y="274" type="line"/>
      <point x="105" y="232" type="line"/>
      <point x="387" y="232" type="line" smooth="yes"/>
      <point x="402" y="232"/>
      <point x="406" y="236"/>
      <point x="406" y="251" type="curve"/>
      <point x="406" y="363"/>
      <point x="337" y="437"/>
      <point x="236" y="437" type="curve"/>
      <point x="120" y="437"/>
      <point x="38" y="343"/>
      <point x="38" y="209" type="curve"/>
      <point x="38" y="84"/>
      <point x="124" y="-6"/>
      <point x="250" y="-6" type="curve"/>
      <point x="302" y="-6"/>
      <point x="360" y="24"/>
      <point x="391" y="67" type="curve"/>
      <point x="395" y="74"/>
      <point x="397" y="80"/>
      <point x="397" y="85" type="curve"/>
      <point x="397" y="94"/>
      <point x="395" y="98"/>
      <point x="391" y="98" type="curve"/>
      <point x="356" y="71"/>
      <point x="316" y="60"/>
      <point x="266" y="60" type="curve"/>
      <point x="178" y="60"/>
      <point x="119" y="131"/>
      <point x="119" y="249" type="curve"/>
      <point x="119" y="339"/>
      <point x="157" y="399"/>
      <point x="227" y="399" type="curve"/>
      <point x="282" y="399"/>
      <point x="327" y="347"/>
      <point x="327" y="284" type="curve"/>
      <point x="327" y="277"/>
      <point x="325" y="274"/>
    </contour>
    <contour>
      <point x="219" y="0" type="move" name="bottom"/>
    </contour>
    <contour>
      <point x="367" y="10" type="move" name="ogonek"/>
    </contour>
    <contour>
      <point x="219" y="431" type="move" name="top"/>
    </contour>
  </outline>
</glyph>
<glyph name="f" format="1">
  <advance width="305"/>
  <unicode hex="0066"/>
  <note>
    f
  </note>
  <outline>
    <contour>
      <point x="33" y="-3" type="curve"/>
      <point x="87" y="0"/>
      <point x="121" y="2"/>
      <point x="138" y="2" type="curve"/>
      <point x="154" y="2"/>
      <point x="192" y="0"/>
      <point x="250" y="-3" type="curve"/>
      <point x="251" y="-2"/>
      <point x="251" y="0"/>
      <point x="251" y="7" type="curve"/>
      <point x="251" y="18"/>
      <point x="249" y="26"/>
      <point x="247" y="26" type="curve"/>
      <point x="228" y="26"/>
      <point x="188" y="39"/>
      <point x="186" y="46" type="curve"/>
      <point x="179" y="69"/>
      <point x="177" y="99"/>
      <point x="177" y="135" type="curve"/>
      <point x="177" y="377" type="line"/>
      <point x="177" y="408" type="line"/>
      <point x="177" y="475" type="line" smooth="yes"/>
      <point x="177" y="581"/>
      <point x="215" y="656"/>
      <point x="269" y="656" type="curve"/>
      <point x="315" y="656"/>
      <point x="326" y="593"/>
      <point x="362" y="593" type="curve"/>
      <point x="381" y="593"/>
      <point x="395" y="610"/>
      <point x="395" y="634" type="curve"/>
      <point x="395" y="670"/>
      <point x="358" y="695"/>
      <point x="305" y="695" type="curve"/>
      <point x="196" y="695"/>
      <point x="101" y="576"/>
      <point x="101" y="438" type="curve"/>
      <point x="101" y="135" type="line" smooth="yes"/>
      <point x="101" y="102"/>
      <point x="98" y="72"/>
      <point x="91" y="46" type="curve"/>
      <point x="89" y="38"/>
      <point x="54" y="26"/>
      <point x="33" y="26" type="curve"/>
      <point x="31" y="26"/>
      <point x="30" y="22"/>
      <point x="30" y="14" type="curve"/>
      <point x="30" y="5"/>
      <point x="31" y="-1"/>
    </contour>
    <contour>
      <point x="43" y="372" type="curve"/>
      <point x="286" y="372" type="line"/>
      <point x="294" y="388"/>
      <point x="298" y="401"/>
      <point x="298" y="412" type="curve"/>
      <point x="298" y="417"/>
      <point x="296" y="419"/>
      <point x="293" y="419" type="curve"/>
      <point x="82" y="419" type="line" smooth="yes"/>
      <point x="64" y="419"/>
      <point x="40" y="396"/>
      <point x="40" y="378" type="curve"/>
      <point x="40" y="374"/>
      <point x="41" y="372"/>
    </contour>
    <contour>
      <point x="139" y="0" type="move" name="bottom"/>
    </contour>
    <contour>
      <point x="153" y="658" type="move" name="top"/>
    </contour>
  </outline>
</glyph>
<glyph name="g" format="1">
  <advance width="468"/>
  <unicode hex="0067"/>
  <note>
    g
  </note>
  <outline>
    <contour>
      <point x="219" y="-227" type="curve"/>
      <point x="351" y="-227"/>
      <point x="453" y="-145"/>
      <point x="453" y="-40" type="curve"/>
      <point x="453" y="-11"/>
      <point x="439" y="11"/>
      <point x="409" y="27" type="curve"/>
      <point x="375" y="45"/>
      <point x="321" y="55"/>
      <point x="239" y="56" type="curve"/>
      <point x="156" y="57"/>
      <point x="129" y="67"/>
      <point x="129" y="98" type="curve"/>
      <point x="129" y="118"/>
      <point x="152" y="147"/>
      <point x="178" y="160" type="curve"/>
      <point x="146" y="173" type="line"/>
      <point x="93" y="140"/>
      <point x="62" y="101"/>
      <point x="62" y="66" type="curve"/>
      <point x="62" y="27"/>
      <point x="103" y="-9"/>
      <point x="148" y="-9" type="curve"/>
      <point x="165" y="-12" type="line"/>
      <point x="337" y="-12"/>
      <point x="387" y="-28"/>
      <point x="387" y="-85" type="curve"/>
      <point x="387" y="-144"/>
      <point x="323" y="-190"/>
      <point x="240" y="-190" type="curve"/>
      <point x="168" y="-190"/>
      <point x="107" y="-146"/>
      <point x="107" y="-94" type="curve"/>
      <point x="107" y="-55"/>
      <point x="142" y="-22"/>
      <point x="198" y="-7" type="curve"/>
      <point x="151" y="-1" type="line"/>
      <point x="75" y="-31"/>
      <point x="37" y="-69"/>
      <point x="37" y="-118" type="curve"/>
      <point x="37" y="-183"/>
      <point x="111" y="-227"/>
    </contour>
    <contour>
      <point x="228" y="183" type="curve"/>
      <point x="173" y="183"/>
      <point x="133" y="228"/>
      <point x="133" y="293" type="curve"/>
      <point x="133" y="351"/>
      <point x="171" y="396"/>
      <point x="221" y="396" type="curve"/>
      <point x="272" y="396"/>
      <point x="314" y="346"/>
      <point x="314" y="285" type="curve"/>
      <point x="314" y="227"/>
      <point x="277" y="183"/>
    </contour>
    <contour>
      <point x="224" y="147" type="curve"/>
      <point x="316" y="147"/>
      <point x="395" y="215"/>
      <point x="395" y="296" type="curve"/>
      <point x="395" y="321"/>
      <point x="382" y="356"/>
      <point x="365" y="377" type="curve"/>
      <point x="358" y="366" type="line"/>
      <point x="444" y="366" type="line" smooth="yes"/>
      <point x="450" y="366"/>
      <point x="453" y="372"/>
      <point x="453" y="384" type="curve"/>
      <point x="453" y="398"/>
      <point x="451" y="405"/>
      <point x="447" y="406" type="curve"/>
      <point x="389" y="406" type="line" smooth="yes"/>
      <point x="337" y="406"/>
      <point x="285" y="432"/>
      <point x="225" y="432" type="curve"/>
      <point x="127" y="432"/>
      <point x="52" y="370"/>
      <point x="52" y="290" type="curve"/>
      <point x="52" y="205"/>
      <point x="123" y="147"/>
    </contour>
    <contour>
      <point x="234" y="-223" type="move" name="bottom"/>
    </contour>
    <contour>
      <point x="234" y="431" type="move" name="top"/>
    </contour>
  </outline>
</glyph>
<glyph name="h" format="1">
  <advance width="542"/>
  <unicode hex="0068"/>
  <note>
    h
  </note>
  <outline>
    <contour>
      <point x="320" y="438" type="curve"/>
      <point x="275" y="438"/>
      <point x="215" y="406"/>
      <point x="177" y="371" type="curve"/>
      <point x="177" y="591" type="line" smooth="yes"/>
      <point x="177" y="628"/>
      <point x="181" y="657"/>
      <point x="188" y="678" type="curve"/>
      <point x="187" y="685"/>
      <point x="179" y="694"/>
      <point x="174" y="694" type="curve"/>
      <point x="147" y="676"/>
      <point x="98" y="663"/>
      <point x="34" y="656" type="curve"/>
      <point x="30" y="656"/>
      <point x="28" y="651"/>
      <point x="28" y="640" type="curve"/>
      <point x="28" y="630"/>
      <point x="30" y="626"/>
      <point x="34" y="626" type="curve"/>
      <point x="43" y="626" type="line" smooth="yes"/>
      <point x="74" y="626"/>
      <point x="84" y="622"/>
      <point x="90" y="616" type="curve"/>
      <point x="98" y="608"/>
      <point x="100" y="569"/>
      <point x="100" y="546" type="curve"/>
      <point x="100" y="115" type="line" smooth="yes"/>
      <point x="100" y="88"/>
      <point x="98" y="65"/>
      <point x="93" y="46" type="curve"/>
      <point x="90" y="37"/>
      <point x="48" y="26"/>
      <point x="32" y="26" type="curve"/>
      <point x="29" y="26"/>
      <point x="28" y="22"/>
      <point x="28" y="14" type="curve"/>
      <point x="28" y="9"/>
      <point x="29" y="4"/>
      <point x="30" y="-3" type="curve"/>
      <point x="99" y="0"/>
      <point x="137" y="2"/>
      <point x="141" y="2" type="curve"/>
      <point x="146" y="2"/>
      <point x="180" y="0"/>
      <point x="247" y="-3" type="curve"/>
      <point x="248" y="-1"/>
      <point x="249" y="3"/>
      <point x="249" y="7" type="curve"/>
      <point x="249" y="16"/>
      <point x="248" y="26"/>
      <point x="245" y="26" type="curve"/>
      <point x="232" y="26"/>
      <point x="188" y="37"/>
      <point x="185" y="46" type="curve"/>
      <point x="179" y="67"/>
      <point x="177" y="96"/>
      <point x="177" y="135" type="curve"/>
      <point x="177" y="302" type="line" smooth="yes"/>
      <point x="177" y="337"/>
      <point x="221" y="377"/>
      <point x="275" y="377" type="curve"/>
      <point x="339" y="377"/>
      <point x="370" y="335"/>
      <point x="370" y="246" type="curve"/>
      <point x="370" y="116" type="line" smooth="yes"/>
      <point x="370" y="89"/>
      <point x="368" y="65"/>
      <point x="363" y="46" type="curve"/>
      <point x="360" y="37"/>
      <point x="322" y="26"/>
      <point x="306" y="26" type="curve"/>
      <point x="303" y="26"/>
      <point x="302" y="22"/>
      <point x="302" y="14" type="curve"/>
      <point x="302" y="5"/>
      <point x="302" y="0"/>
      <point x="304" y="-3" type="curve"/>
      <point x="364" y="0"/>
      <point x="387" y="2"/>
      <point x="411" y="2" type="curve"/>
      <point x="435" y="2"/>
      <point x="461" y="0"/>
      <point x="518" y="-3" type="curve"/>
      <point x="519" y="-1"/>
      <point x="519" y="3"/>
      <point x="519" y="7" type="curve"/>
      <point x="519" y="16"/>
      <point x="518" y="26"/>
      <point x="515" y="26" type="curve"/>
      <point x="502" y="26"/>
      <point x="458" y="37"/>
      <point x="455" y="46" type="curve"/>
      <point x="449" y="67"/>
      <point x="447" y="96"/>
      <point x="447" y="134" type="curve"/>
      <point x="447" y="246" type="line" smooth="yes"/>
      <point x="447" y="379"/>
      <point x="407" y="438"/>
    </contour>
    <contour>
      <point x="271" y="0" type="move" name="bottom"/>
    </contour>
    <contour>
      <point x="271" y="329" type="move" name="center"/>
    </contour>
    <contour>
      <point x="177" y="530" type="move" name="stroke"/>
    </contour>
    <contour>
      <point x="271" y="658" type="move" name="top"/>
    </contour>
  </outline>
</glyph>
<glyph name="i" format="1">
  <advance width="277"/>
  <unicode hex="0069"/>
  <note>
    i
  </note>
  <outline>
    <component base="idotless"/>
    <component base="dotaccentcomb.i" xOffset="-11"/>
    <contour>
      <point x="141" y="0" type="move" name="bottom"/>
    </contour>
  </outline>
</glyph>
<glyph name="k" format="1">
  <advance width="510"/>
  <unicode hex="006B"/>
  <note>
    k
  </note>
  <outline>
    <contour>
      <point x="30" y="-3" type="curve"/>
      <point x="80" y="0"/>
      <point x="117" y="2"/>
      <point x="141" y="2" type="curve"/>
      <point x="165" y="2"/>
      <point x="201" y="0"/>
      <point x="248" y="-3" type="curve"/>
      <point x="249" y="0"/>
      <point x="249" y="3"/>
      <point x="249" y="7" type="curve"/>
      <point x="249" y="16"/>
      <point x="248" y="26"/>
      <point x="245" y="26" type="curve"/>
      <point x="232" y="26"/>
      <point x="188" y="37"/>
      <point x="185" y="46" type="curve"/>
      <point x="181" y="61"/>
      <point x="178" y="91"/>
      <point x="177" y="135" type="curve"/>
      <point x="177" y="195" type="line"/>
      <point x="193" y="198" type="line"/>
      <point x="332" y="49" type="line" smooth="yes"/>
      <point x="339" y="41"/>
      <point x="341" y="38"/>
      <point x="341" y="36" type="curve"/>
      <point x="341" y="32"/>
      <point x="319" y="26"/>
      <point x="306" y="26" type="curve"/>
      <point x="303" y="26"/>
      <point x="302" y="20"/>
      <point x="302" y="13" type="curve"/>
      <point x="302" y="5"/>
      <point x="303" y="0"/>
      <point x="304" y="-3" type="curve"/>
      <point x="354" y="0"/>
      <point x="388" y="2"/>
      <point x="409" y="2" type="curve"/>
      <point x="430" y="2"/>
      <point x="471" y="0"/>
      <point x="518" y="-3" type="curve"/>
      <point x="519" y="-2"/>
      <point x="519" y="2"/>
      <point x="519" y="8" type="curve"/>
      <point x="519" y="19"/>
      <point x="518" y="24"/>
      <point x="515" y="24" type="curve"/>
      <point x="486" y="25"/>
      <point x="444" y="42"/>
      <point x="424" y="64" type="curve"/>
      <point x="240" y="260" type="line"/>
      <point x="225" y="222" type="line"/>
      <point x="373" y="365" type="line" smooth="yes"/>
      <point x="402" y="393"/>
      <point x="425" y="406"/>
      <point x="473" y="406" type="curve"/>
      <point x="476" y="406"/>
      <point x="478" y="414"/>
      <point x="478" y="422" type="curve"/>
      <point x="478" y="427"/>
      <point x="477" y="432"/>
      <point x="474" y="434" type="curve"/>
      <point x="456" y="433"/>
      <point x="381" y="429"/>
      <point x="364" y="429" type="curve"/>
      <point x="338" y="429"/>
      <point x="311" y="431"/>
      <point x="285" y="432" type="curve"/>
      <point x="282" y="430"/>
      <point x="281" y="425"/>
      <point x="281" y="421" type="curve"/>
      <point x="281" y="417"/>
      <point x="282" y="411"/>
      <point x="284" y="404" type="curve"/>
      <point x="321" y="403"/>
      <point x="328" y="398"/>
      <point x="328" y="388" type="curve"/>
      <point x="328" y="378"/>
      <point x="322" y="369"/>
      <point x="307" y="354" type="curve"/>
      <point x="202" y="250" type="line" smooth="yes"/>
      <point x="197" y="245"/>
      <point x="188" y="243"/>
      <point x="177" y="241" type="curve"/>
      <point x="177" y="591" type="line" smooth="yes"/>
      <point x="177" y="628"/>
      <point x="181" y="657"/>
      <point x="188" y="678" type="curve"/>
      <point x="187" y="685"/>
      <point x="179" y="694"/>
      <point x="174" y="694" type="curve"/>
      <point x="147" y="676"/>
      <point x="98" y="663"/>
      <point x="34" y="656" type="curve"/>
      <point x="30" y="656"/>
      <point x="28" y="651"/>
      <point x="28" y="640" type="curve"/>
      <point x="28" y="630"/>
      <point x="30" y="626"/>
      <point x="34" y="626" type="curve"/>
      <point x="43" y="626" type="line" smooth="yes"/>
      <point x="74" y="626"/>
      <point x="91" y="621"/>
      <point x="94" y="610" type="curve"/>
      <point x="98" y="590"/>
      <point x="100" y="569"/>
      <point x="100" y="546" type="curve"/>
      <point x="100" y="116" type="line" smooth="yes"/>
      <point x="100" y="89"/>
      <point x="98" y="65"/>
      <point x="93" y="46" type="curve"/>
      <point x="90" y="37"/>
      <point x="48" y="26"/>
      <point x="32" y="26" type="curve"/>
      <point x="29" y="26"/>
      <point x="28" y="22"/>
      <point x="28" y="14" type="curve"/>
      <point x="28" y="5"/>
      <point x="29" y="1"/>
    </contour>
    <contour>
      <point x="262" y="0" type="move" name="bottom"/>
    </contour>
    <contour>
      <point x="262" y="658" type="move" name="top"/>
    </contour>
  </outline>
</glyph>
<glyph name="l" format="1">
  <advance width="275"/>
  <unicode hex="006C"/>
  <note>
    l
  </note>
  <outline>
    <contour>
      <point x="30" y="-3" type="curve"/>
      <point x="81" y="0"/>
      <point x="117" y="2"/>
      <point x="141" y="2" type="curve"/>
      <point x="177" y="2"/>
      <point x="212" y="-1"/>
      <point x="248" y="-3" type="curve"/>
      <point x="249" y="-1"/>
      <point x="249" y="3"/>
      <point x="249" y="7" type="curve"/>
      <point x="249" y="16"/>
      <point x="248" y="26"/>
      <point x="245" y="26" type="curve"/>
      <point x="232" y="26"/>
      <point x="188" y="37"/>
      <point x="185" y="46" type="curve"/>
      <point x="178" y="66"/>
      <point x="177" y="96"/>
      <point x="177" y="135" type="curve"/>
      <point x="177" y="591" type="line" smooth="yes"/>
      <point x="177" y="628"/>
      <point x="181" y="657"/>
      <point x="188" y="678" type="curve"/>
      <point x="187" y="685"/>
      <point x="179" y="694"/>
      <point x="174" y="694" type="curve"/>
      <point x="147" y="676"/>
      <point x="98" y="663"/>
      <point x="34" y="656" type="curve"/>
      <point x="30" y="656"/>
      <point x="28" y="651"/>
      <point x="28" y="640" type="curve"/>
      <point x="28" y="630"/>
      <point x="30" y="626"/>
      <point x="34" y="626" type="curve"/>
      <point x="43" y="626" type="line" smooth="yes"/>
      <point x="74" y="626"/>
      <point x="84" y="622"/>
      <point x="90" y="616" type="curve"/>
      <point x="98" y="608"/>
      <point x="100" y="569"/>
      <point x="100" y="546" type="curve"/>
      <point x="100" y="116" type="line" smooth="yes"/>
      <point x="100" y="89"/>
      <point x="98" y="65"/>
      <point x="93" y="46" type="curve"/>
      <point x="90" y="37"/>
      <point x="48" y="26"/>
      <point x="32" y="26" type="curve"/>
      <point x="29" y="26"/>
      <point x="28" y="22"/>
      <point x="28" y="14" type="curve"/>
      <point x="28" y="5"/>
      <point x="29" y="0"/>
    </contour>
    <contour>
      <point x="136" y="0" type="move" name="bottom"/>
    </contour>
    <contour>
      <point x="136" y="329" type="move" name="center"/>
    </contour>
    <contour>
      <point x="276" y="329" type="move" name="dotacc"/>
    </contour>
    <contour>
      <point x="136" y="658" type="move" name="top"/>
    </contour>
    <contour>
      <point x="217" y="431" type="move" name="topright"/>
    </contour>
  </outline>
</glyph>
<glyph name="m" format="1">
  <advance width="797"/>
  <unicode hex="006D"/>
  <note>
    m
  </note>
  <outline>
    <contour>
      <point x="32" y="-3" type="curve"/>
      <point x="93" y="0"/>
      <point x="127" y="2"/>
      <point x="143" y="2" type="curve"/>
      <point x="159" y="2"/>
      <point x="192" y="0"/>
      <point x="249" y="-3" type="curve"/>
      <point x="250" y="-1"/>
      <point x="251" y="5"/>
      <point x="251" y="10" type="curve"/>
      <point x="251" y="19"/>
      <point x="249" y="26"/>
      <point x="247" y="26" type="curve"/>
      <point x="228" y="26"/>
      <point x="189" y="39"/>
      <point x="187" y="46" type="curve"/>
      <point x="182" y="67"/>
      <point x="179" y="96"/>
      <point x="179" y="135" type="curve"/>
      <point x="179" y="304" type="line" smooth="yes"/>
      <point x="179" y="337"/>
      <point x="223" y="377"/>
      <point x="273" y="377" type="curve"/>
      <point x="333" y="377"/>
      <point x="364" y="335"/>
      <point x="364" y="249" type="curve"/>
      <point x="364" y="116" type="line" smooth="yes"/>
      <point x="364" y="89"/>
      <point x="362" y="65"/>
      <point x="357" y="46" type="curve"/>
      <point x="355" y="38"/>
      <point x="320" y="26"/>
      <point x="300" y="26" type="curve"/>
      <point x="297" y="26"/>
      <point x="296" y="22"/>
      <point x="296" y="14" type="curve"/>
      <point x="296" y="2"/>
      <point x="296" y="0"/>
      <point x="298" y="-3" type="curve"/>
      <point x="358" y="0"/>
      <point x="381" y="2"/>
      <point x="405" y="2" type="curve"/>
      <point x="429" y="2"/>
      <point x="455" y="0"/>
      <point x="511" y="-3" type="curve"/>
      <point x="512" y="-2"/>
      <point x="512" y="0"/>
      <point x="512" y="7" type="curve"/>
      <point x="512" y="18"/>
      <point x="510" y="26"/>
      <point x="508" y="26" type="curve"/>
      <point x="490" y="26"/>
      <point x="451" y="39"/>
      <point x="449" y="46" type="curve"/>
      <point x="444" y="67"/>
      <point x="441" y="96"/>
      <point x="441" y="135" type="curve"/>
      <point x="441" y="249" type="line" smooth="yes"/>
      <point x="441" y="379"/>
      <point x="401" y="438"/>
      <point x="318" y="438" type="curve"/>
      <point x="277" y="438"/>
      <point x="217" y="406"/>
      <point x="179" y="371" type="curve"/>
      <point x="183" y="407"/>
      <point x="184" y="422"/>
      <point x="184" y="427" type="curve"/>
      <point x="184" y="431"/>
      <point x="182" y="434"/>
      <point x="179" y="434" type="curve"/>
      <point x="175" y="434"/>
      <point x="167" y="431"/>
      <point x="159" y="429" type="curve"/>
      <point x="127" y="422"/>
      <point x="92" y="415"/>
      <point x="33" y="407" type="curve"/>
      <point x="31" y="403"/>
      <point x="30" y="394"/>
      <point x="30" y="379" type="curve"/>
      <point x="55" y="379"/>
      <point x="78" y="371"/>
      <point x="88" y="359" type="curve"/>
      <point x="97" y="349"/>
      <point x="102" y="331"/>
      <point x="102" y="305" type="curve"/>
      <point x="102" y="116" type="line" smooth="yes"/>
      <point x="102" y="89"/>
      <point x="100" y="65"/>
      <point x="95" y="46" type="curve"/>
      <point x="93" y="38"/>
      <point x="56" y="26"/>
      <point x="34" y="26" type="curve"/>
      <point x="31" y="26"/>
      <point x="30" y="22"/>
      <point x="30" y="14" type="curve"/>
      <point x="30" y="9"/>
      <point x="31" y="4"/>
    </contour>
    <contour>
      <point x="559" y="-3" type="curve"/>
      <point x="618" y="0"/>
      <point x="641" y="2"/>
      <point x="665" y="2" type="curve"/>
      <point x="689" y="2"/>
      <point x="715" y="0"/>
      <point x="772" y="-3" type="curve"/>
      <point x="773" y="-2"/>
      <point x="773" y="0"/>
      <point x="773" y="7" type="curve"/>
      <point x="773" y="18"/>
      <point x="771" y="26"/>
      <point x="769" y="26" type="curve"/>
      <point x="750" y="26"/>
      <point x="711" y="39"/>
      <point x="709" y="46" type="curve"/>
      <point x="703" y="67"/>
      <point x="701" y="96"/>
      <point x="701" y="135" type="curve"/>
      <point x="701" y="249" type="line" smooth="yes"/>
      <point x="701" y="379"/>
      <point x="657" y="438"/>
      <point x="574" y="438" type="curve"/>
      <point x="524" y="438"/>
      <point x="459" y="402"/>
      <point x="416" y="355" type="curve"/>
      <point x="431" y="284" type="line"/>
      <point x="431" y="337"/>
      <point x="484" y="377"/>
      <point x="530" y="377" type="curve"/>
      <point x="593" y="377"/>
      <point x="624" y="335"/>
      <point x="624" y="249" type="curve"/>
      <point x="624" y="116" type="line" smooth="yes"/>
      <point x="624" y="89"/>
      <point x="622" y="65"/>
      <point x="617" y="46" type="curve"/>
      <point x="615" y="38"/>
      <point x="580" y="26"/>
      <point x="561" y="26" type="curve"/>
      <point x="558" y="26"/>
      <point x="557" y="22"/>
      <point x="557" y="14" type="curve"/>
      <point x="557" y="2"/>
      <point x="557" y="0"/>
    </contour>
    <contour>
      <point x="399" y="0" type="move" name="bottom"/>
    </contour>
    <contour>
      <point x="399" y="431" type="move" name="top"/>
    </contour>
  </outline>
</glyph>
<glyph name="n" format="1">
  <advance width="543"/>
  <unicode hex="006E"/>
  <note>
    n
  </note>
  <outline>
    <contour>
      <point x="31" y="-3" type="curve"/>
      <point x="92" y="0"/>
      <point x="126" y="2"/>
      <point x="142" y="2" type="curve"/>
      <point x="158" y="2"/>
      <point x="191" y="0"/>
      <point x="248" y="-3" type="curve"/>
      <point x="249" y="-1"/>
      <point x="250" y="5"/>
      <point x="250" y="10" type="curve"/>
      <point x="250" y="19"/>
      <point x="248" y="26"/>
      <point x="246" y="26" type="curve"/>
      <point x="227" y="26"/>
      <point x="188" y="39"/>
      <point x="186" y="46" type="curve"/>
      <point x="181" y="67"/>
      <point x="178" y="96"/>
      <point x="178" y="135" type="curve"/>
      <point x="178" y="302" type="line" smooth="yes"/>
      <point x="178" y="337"/>
      <point x="222" y="377"/>
      <point x="276" y="377" type="curve"/>
      <point x="340" y="377"/>
      <point x="371" y="335"/>
      <point x="371" y="246" type="curve"/>
      <point x="371" y="116" type="line" smooth="yes"/>
      <point x="371" y="89"/>
      <point x="369" y="65"/>
      <point x="364" y="46" type="curve"/>
      <point x="362" y="38"/>
      <point x="327" y="26"/>
      <point x="307" y="26" type="curve"/>
      <point x="304" y="26"/>
      <point x="303" y="22"/>
      <point x="303" y="14" type="curve"/>
      <point x="303" y="2"/>
      <point x="303" y="0"/>
      <point x="305" y="-3" type="curve"/>
      <point x="365" y="0"/>
      <point x="388" y="2"/>
      <point x="412" y="2" type="curve"/>
      <point x="436" y="2"/>
      <point x="462" y="0"/>
      <point x="519" y="-3" type="curve"/>
      <point x="520" y="-2"/>
      <point x="520" y="0"/>
      <point x="520" y="7" type="curve"/>
      <point x="520" y="18"/>
      <point x="518" y="26"/>
      <point x="516" y="26" type="curve"/>
      <point x="497" y="26"/>
      <point x="458" y="39"/>
      <point x="456" y="46" type="curve"/>
      <point x="451" y="67"/>
      <point x="448" y="96"/>
      <point x="448" y="135" type="curve"/>
      <point x="448" y="246" type="line" smooth="yes"/>
      <point x="448" y="379"/>
      <point x="408" y="438"/>
      <point x="321" y="438" type="curve"/>
      <point x="276" y="438"/>
      <point x="216" y="406"/>
      <point x="178" y="371" type="curve"/>
      <point x="182" y="407"/>
      <point x="183" y="422"/>
      <point x="183" y="427" type="curve"/>
      <point x="183" y="431"/>
      <point x="181" y="434"/>
      <point x="178" y="434" type="curve"/>
      <point x="174" y="434"/>
      <point x="166" y="431"/>
      <point x="158" y="429" type="curve"/>
      <point x="126" y="422"/>
      <point x="91" y="415"/>
      <point x="32" y="407" type="curve"/>
      <point x="30" y="403"/>
      <point x="29" y="394"/>
      <point x="29" y="379" type="curve"/>
      <point x="54" y="379"/>
      <point x="77" y="371"/>
      <point x="87" y="359" type="curve"/>
      <point x="96" y="349"/>
      <point x="101" y="331"/>
      <point x="101" y="305" type="curve"/>
      <point x="101" y="116" type="line" smooth="yes"/>
      <point x="101" y="89"/>
      <point x="99" y="65"/>
      <point x="94" y="46" type="curve"/>
      <point x="92" y="38"/>
      <point x="55" y="26"/>
      <point x="33" y="26" type="curve"/>
      <point x="30" y="26"/>
      <point x="29" y="22"/>
      <point x="29" y="14" type="curve"/>
      <point x="29" y="9"/>
      <point x="30" y="4"/>
    </contour>
    <contour>
      <point x="272" y="0" type="move" name="bottom"/>
    </contour>
    <contour>
      <point x="272" y="431" type="move" name="top"/>
    </contour>
  </outline>
</glyph>
<glyph name="o" format="1">
  <advance width="511"/>
  <unicode hex="006F"/>
  <note>
    o
  </note>
  <outline>
    <contour>
      <point x="244" y="398" type="curve"/>
      <point x="322" y="398"/>
      <point x="388" y="308"/>
      <point x="388" y="202" type="curve"/>
      <point x="388" y="106"/>
      <point x="346" y="32"/>
      <point x="266" y="32" type="curve"/>
      <point x="188" y="32"/>
      <point x="123" y="123"/>
      <point x="123" y="231" type="curve"/>
      <point x="123" y="327"/>
      <point x="164" y="398"/>
    </contour>
    <contour>
      <point x="255" y="437" type="curve"/>
      <point x="132" y="437"/>
      <point x="38" y="341"/>
      <point x="38" y="216" type="curve"/>
      <point x="38" y="88"/>
      <point x="129" y="-7"/>
      <point x="255" y="-7" type="curve"/>
      <point x="382" y="-7"/>
      <point x="473" y="88"/>
      <point x="473" y="216" type="curve"/>
      <point x="473" y="337"/>
      <point x="375" y="437"/>
    </contour>
    <contour>
      <point x="256" y="0" type="move" name="bottom"/>
    </contour>
    <contour>
      <point x="256" y="216" type="move" name="center"/>
    </contour>
    <contour>
      <point x="460" y="10" type="move" name="ogonek"/>
    </contour>
    <contour>
      <point x="256" y="431" type="move" name="top"/>
    </contour>
    <contour>
      <point x="491" y="431" type="move" name="topright"/>
    </contour>
  </outline>
</glyph>
<glyph name="p" format="1">
  <advance width="518"/>
  <unicode hex="0070"/>
  <note>
    p
  </note>
  <outline>
    <contour>
      <point x="280" y="438" type="curve"/>
      <point x="250" y="438"/>
      <point x="213" y="426"/>
      <point x="175" y="391" type="curve"/>
      <point x="176" y="410"/>
      <point x="178" y="422"/>
      <point x="178" y="427" type="curve"/>
      <point x="178" y="431"/>
      <point x="176" y="434"/>
      <point x="173" y="434" type="curve"/>
      <point x="169" y="434"/>
      <point x="161" y="431"/>
      <point x="153" y="429" type="curve"/>
      <point x="121" y="421"/>
      <point x="88" y="415"/>
      <point x="29" y="407" type="curve"/>
      <point x="27" y="403"/>
      <point x="26" y="394"/>
      <point x="26" y="379" type="curve"/>
      <point x="51" y="379"/>
      <point x="74" y="371"/>
      <point x="84" y="359" type="curve"/>
      <point x="93" y="349"/>
      <point x="98" y="331"/>
      <point x="98" y="305" type="curve"/>
      <point x="98" y="-107" type="line" smooth="yes"/>
      <point x="98" y="-134"/>
      <point x="96" y="-158"/>
      <point x="91" y="-177" type="curve"/>
      <point x="88" y="-186"/>
      <point x="46" y="-197"/>
      <point x="30" y="-197" type="curve"/>
      <point x="27" y="-197"/>
      <point x="26" y="-201"/>
      <point x="26" y="-210" type="curve"/>
      <point x="26" y="-218"/>
      <point x="27" y="-223"/>
      <point x="30" y="-226" type="curve"/>
      <point x="79" y="-223"/>
      <point x="115" y="-221"/>
      <point x="139" y="-221" type="curve"/>
      <point x="163" y="-221"/>
      <point x="199" y="-223"/>
      <point x="246" y="-226" type="curve"/>
      <point x="247" y="-224"/>
      <point x="247" y="-220"/>
      <point x="247" y="-216" type="curve"/>
      <point x="247" y="-208"/>
      <point x="246" y="-197"/>
      <point x="243" y="-197" type="curve"/>
      <point x="230" y="-197"/>
      <point x="186" y="-186"/>
      <point x="183" y="-177" type="curve"/>
      <point x="178" y="-156"/>
      <point x="175" y="-127"/>
      <point x="175" y="-88" type="curve"/>
      <point x="175" y="5" type="line"/>
      <point x="183" y="3"/>
      <point x="215" y="-6"/>
      <point x="254" y="-6" type="curve"/>
      <point x="371" y="-6"/>
      <point x="480" y="110"/>
      <point x="480" y="233" type="curve"/>
      <point x="480" y="324"/>
      <point x="409" y="438"/>
    </contour>
    <contour>
      <point x="249" y="389" type="curve"/>
      <point x="333" y="389"/>
      <point x="394" y="318"/>
      <point x="394" y="212" type="curve"/>
      <point x="394" y="109"/>
      <point x="340" y="35"/>
      <point x="263" y="35" type="curve"/>
      <point x="204" y="35"/>
      <point x="175" y="60"/>
      <point x="175" y="101" type="curve"/>
      <point x="175" y="318" type="line" smooth="yes"/>
      <point x="175" y="361"/>
      <point x="210" y="389"/>
    </contour>
    <contour>
      <point x="259" y="0" type="move" name="bottom"/>
    </contour>
    <contour>
      <point x="259" y="431" type="move" name="top"/>
    </contour>
  </outline>
</glyph>
<glyph name="q" format="1">
  <advance width="510"/>
  <unicode hex="0071"/>
  <note>
    q
  </note>
  <outline>
    <contour>
      <point x="488" y="-197" type="curve"/>
      <point x="475" y="-197"/>
      <point x="431" y="-186"/>
      <point x="428" y="-177" type="curve"/>
      <point x="421" y="-157"/>
      <point x="420" y="-127"/>
      <point x="420" y="-88" type="curve"/>
      <point x="420" y="297" type="line" smooth="yes"/>
      <point x="420" y="336"/>
      <point x="426" y="396"/>
      <point x="432" y="426" type="curve"/>
      <point x="429" y="430"/>
      <point x="417" y="436"/>
      <point x="411" y="436" type="curve"/>
      <point x="394" y="430"/>
      <point x="382" y="425"/>
      <point x="373" y="425" type="curve"/>
      <point x="354" y="425"/>
      <point x="316" y="440"/>
      <point x="262" y="440" type="curve"/>
      <point x="150" y="440"/>
      <point x="38" y="329"/>
      <point x="38" y="196" type="curve"/>
      <point x="38" y="95"/>
      <point x="118" y="-4"/>
      <point x="229" y="-4" type="curve"/>
      <point x="267" y="-4"/>
      <point x="297" y="7"/>
      <point x="343" y="37" type="curve"/>
      <point x="343" y="-107" type="line" smooth="yes"/>
      <point x="343" y="-134"/>
      <point x="341" y="-158"/>
      <point x="336" y="-177" type="curve"/>
      <point x="333" y="-186"/>
      <point x="291" y="-197"/>
      <point x="275" y="-197" type="curve"/>
      <point x="272" y="-197"/>
      <point x="271" y="-201"/>
      <point x="271" y="-210" type="curve"/>
      <point x="271" y="-218"/>
      <point x="272" y="-223"/>
      <point x="275" y="-226" type="curve"/>
      <point x="324" y="-223"/>
      <point x="360" y="-221"/>
      <point x="384" y="-221" type="curve"/>
      <point x="408" y="-221"/>
      <point x="444" y="-223"/>
      <point x="491" y="-226" type="curve"/>
      <point x="492" y="-224"/>
      <point x="492" y="-220"/>
      <point x="492" y="-216" type="curve"/>
      <point x="492" y="-208"/>
      <point x="491" y="-197"/>
    </contour>
    <contour>
      <point x="270" y="46" type="curve"/>
      <point x="190" y="46"/>
      <point x="124" y="120"/>
      <point x="124" y="225" type="curve"/>
      <point x="124" y="338"/>
      <point x="186" y="398"/>
      <point x="259" y="398" type="curve"/>
      <point x="305" y="398"/>
      <point x="343" y="373"/>
      <point x="343" y="328" type="curve"/>
      <point x="343" y="108" type="line" smooth="yes"/>
      <point x="343" y="68"/>
      <point x="317" y="46"/>
    </contour>
    <contour>
      <point x="246" y="0" type="move" name="bottom"/>
    </contour>
    <contour>
      <point x="246" y="431" type="move" name="top"/>
    </contour>
  </outline>
</glyph>
<glyph name="r" format="1">
  <advance width="361"/>
  <unicode hex="0072"/>
  <note>
    r
  </note>
  <outline>
    <contour>
      <point x="296" y="437" type="curve"/>
      <point x="251" y="437"/>
      <point x="205" y="403"/>
      <point x="177" y="365" type="curve"/>
      <point x="180" y="382"/>
      <point x="182" y="406"/>
      <point x="183" y="427" type="curve"/>
      <point x="183" y="431"/>
      <point x="181" y="434"/>
      <point x="178" y="434" type="curve"/>
      <point x="174" y="434"/>
      <point x="165" y="431"/>
      <point x="158" y="429" type="curve"/>
      <point x="105" y="418"/>
      <point x="71" y="412"/>
      <point x="32" y="407" type="curve"/>
      <point x="30" y="403"/>
      <point x="29" y="394"/>
      <point x="29" y="379" type="curve"/>
      <point x="54" y="379"/>
      <point x="77" y="371"/>
      <point x="87" y="359" type="curve"/>
      <point x="96" y="349"/>
      <point x="101" y="330"/>
      <point x="101" y="305" type="curve"/>
      <point x="101" y="116" type="line" smooth="yes"/>
      <point x="101" y="84"/>
      <point x="99" y="61"/>
      <point x="94" y="46" type="curve"/>
      <point x="92" y="39"/>
      <point x="53" y="26"/>
      <point x="33" y="26" type="curve"/>
      <point x="30" y="26"/>
      <point x="29" y="23"/>
      <point x="29" y="14" type="curve"/>
      <point x="29" y="5"/>
      <point x="30" y="0"/>
      <point x="33" y="-3" type="curve"/>
      <point x="85" y="0"/>
      <point x="118" y="2"/>
      <point x="142" y="2" type="curve"/>
      <point x="161" y="2"/>
      <point x="185" y="1"/>
      <point x="253" y="-3" type="curve"/>
      <point x="253" y="-1"/>
      <point x="254" y="3"/>
      <point x="254" y="7" type="curve"/>
      <point x="254" y="17"/>
      <point x="252" y="26"/>
      <point x="250" y="26" type="curve"/>
      <point x="229" y="26"/>
      <point x="188" y="39"/>
      <point x="186" y="46" type="curve"/>
      <point x="180" y="63"/>
      <point x="178" y="87"/>
      <point x="178" y="135" type="curve"/>
      <point x="178" y="275" type="line" smooth="yes"/>
      <point x="178" y="332"/>
      <point x="214" y="375"/>
      <point x="250" y="375" type="curve"/>
      <point x="291" y="375"/>
      <point x="285" y="341"/>
      <point x="318" y="341" type="curve"/>
      <point x="340" y="341"/>
      <point x="356" y="360"/>
      <point x="356" y="388" type="curve"/>
      <point x="356" y="419"/>
      <point x="328" y="437"/>
    </contour>
    <contour>
      <point x="140" y="0" type="move" name="bottom"/>
    </contour>
    <contour>
      <point x="190" y="431" type="move" name="top"/>
    </contour>
  </outline>
</glyph>
<glyph name="s" format="1">
  <advance width="358"/>
  <unicode hex="0073"/>
  <note>
    s
  </note>
  <outline>
    <contour>
      <point x="197" y="437" type="curve"/>
      <point x="113" y="437"/>
      <point x="45" y="387"/>
      <point x="45" y="315" type="curve"/>
      <point x="45" y="267"/>
      <point x="76" y="230"/>
      <point x="157" y="189" type="curve"/>
      <point x="228" y="153"/>
      <point x="247" y="131"/>
      <point x="247" y="93" type="curve"/>
      <point x="247" y="49"/>
      <point x="217" y="25"/>
      <point x="176" y="25" type="curve"/>
      <point x="120" y="25"/>
      <point x="76" y="72"/>
      <point x="68" y="112" type="curve"/>
      <point x="67" y="116"/>
      <point x="62" y="118"/>
      <point x="52" y="118" type="curve"/>
      <point x="49" y="118"/>
      <point x="44" y="117"/>
      <point x="40" y="115" type="curve"/>
      <point x="40" y="86"/>
      <point x="49" y="29"/>
      <point x="57" y="8" type="curve"/>
      <point x="107" y="0"/>
      <point x="122" y="-11"/>
      <point x="174" y="-11" type="curve"/>
      <point x="257" y="-11"/>
      <point x="328" y="48"/>
      <point x="328" y="127" type="curve"/>
      <point x="328" y="169"/>
      <point x="301" y="201"/>
      <point x="211" y="249" type="curve"/>
      <point x="136" y="289"/>
      <point x="122" y="311"/>
      <point x="122" y="341" type="curve"/>
      <point x="122" y="380"/>
      <point x="154" y="402"/>
      <point x="191" y="402" type="curve"/>
      <point x="230" y="402"/>
      <point x="262" y="380"/>
      <point x="276" y="324" type="curve"/>
      <point x="277" y="319"/>
      <point x="282" y="317"/>
      <point x="291" y="317" type="curve"/>
      <point x="300" y="317"/>
      <point x="304" y="319"/>
      <point x="304" y="322" type="curve"/>
      <point x="303" y="359"/>
      <point x="299" y="393"/>
      <point x="292" y="424" type="curve"/>
      <point x="257" y="434"/>
      <point x="232" y="437"/>
    </contour>
    <contour>
      <point x="179" y="0" type="move" name="bottom"/>
    </contour>
    <contour>
      <point x="179" y="431" type="move" name="top"/>
    </contour>
  </outline>
</glyph>
<glyph name="t" format="1">
  <advance width="326"/>
  <unicode hex="0074"/>
  <note>
    t
  </note>
  <outline>
    <contour>
      <point x="31" y="374" type="curve"/>
      <point x="89" y="374" type="line"/>
      <point x="89" y="100" type="line" smooth="yes"/>
      <point x="89" y="39"/>
      <point x="129" y="-7"/>
      <point x="206" y="-7" type="curve"/>
      <point x="250" y="-7"/>
      <point x="296" y="19"/>
      <point x="316" y="40" type="curve"/>
      <point x="316" y="44"/>
      <point x="307" y="61"/>
      <point x="303" y="64" type="curve"/>
      <point x="281" y="50"/>
      <point x="260" y="44"/>
      <point x="240" y="44" type="curve"/>
      <point x="191" y="44"/>
      <point x="166" y="79"/>
      <point x="166" y="129" type="curve"/>
      <point x="166" y="374" type="line"/>
      <point x="299" y="374" type="line"/>
      <point x="306" y="387"/>
      <point x="309" y="400"/>
      <point x="309" y="412" type="curve"/>
      <point x="309" y="418"/>
      <point x="306" y="422"/>
      <point x="301" y="422" type="curve"/>
      <point x="166" y="422" type="line"/>
      <point x="166" y="521" type="line" smooth="yes"/>
      <point x="166" y="524"/>
      <point x="156" y="526"/>
      <point x="136" y="526" type="curve"/>
      <point x="112" y="477"/>
      <point x="67" y="420"/>
      <point x="27" y="402" type="curve"/>
      <point x="26" y="401"/>
      <point x="26" y="399"/>
      <point x="26" y="395" type="curve"/>
      <point x="26" y="381"/>
      <point x="28" y="374"/>
    </contour>
    <contour>
      <point x="203" y="0" type="move" name="bottom"/>
    </contour>
    <contour>
      <point x="157" y="269" type="move" name="center"/>
    </contour>
    <contour>
      <point x="128" y="500" type="move" name="top"/>
    </contour>
    <contour>
      <point x="206" y="431" type="move" name="topright"/>
    </contour>
  </outline>
</glyph>
<glyph name="u" format="1">
  <advance width="533"/>
  <unicode hex="0075"/>
  <note>
    u
  </note>
  <outline>
    <contour>
      <point x="449" y="72" type="curve"/>
      <point x="440" y="82"/>
      <point x="435" y="100"/>
      <point x="435" y="126" type="curve"/>
      <point x="435" y="315" type="line" smooth="yes"/>
      <point x="435" y="384"/>
      <point x="440" y="412"/>
      <point x="440" y="427" type="curve"/>
      <point x="440" y="431"/>
      <point x="438" y="434"/>
      <point x="435" y="434" type="curve"/>
      <point x="431" y="434"/>
      <point x="423" y="431"/>
      <point x="415" y="429" type="curve"/>
      <point x="383" y="421"/>
      <point x="348" y="415"/>
      <point x="289" y="407" type="curve"/>
      <point x="287" y="403"/>
      <point x="286" y="394"/>
      <point x="286" y="379" type="curve"/>
      <point x="311" y="379"/>
      <point x="334" y="371"/>
      <point x="344" y="359" type="curve"/>
      <point x="353" y="349"/>
      <point x="358" y="331"/>
      <point x="358" y="305" type="curve"/>
      <point x="358" y="129" type="line" smooth="yes"/>
      <point x="358" y="94"/>
      <point x="314" y="54"/>
      <point x="262" y="54" type="curve"/>
      <point x="201" y="54"/>
      <point x="170" y="96"/>
      <point x="170" y="165" type="curve"/>
      <point x="170" y="315" type="line" smooth="yes"/>
      <point x="170" y="384"/>
      <point x="175" y="412"/>
      <point x="175" y="427" type="curve"/>
      <point x="175" y="431"/>
      <point x="173" y="434"/>
      <point x="170" y="434" type="curve"/>
      <point x="166" y="434"/>
      <point x="158" y="431"/>
      <point x="150" y="429" type="curve"/>
      <point x="118" y="421"/>
      <point x="83" y="415"/>
      <point x="24" y="407" type="curve"/>
      <point x="22" y="403"/>
      <point x="21" y="394"/>
      <point x="21" y="379" type="curve"/>
      <point x="46" y="379"/>
      <point x="69" y="371"/>
      <point x="79" y="359" type="curve"/>
      <point x="88" y="349"/>
      <point x="93" y="331"/>
      <point x="93" y="305" type="curve"/>
      <point x="93" y="165" type="line" smooth="yes"/>
      <point x="93" y="52"/>
      <point x="133" y="-7"/>
      <point x="220" y="-7" type="curve"/>
      <point x="262" y="-7"/>
      <point x="320" y="25"/>
      <point x="358" y="60" type="curve"/>
      <point x="354" y="24"/>
      <point x="353" y="9"/>
      <point x="353" y="4" type="curve"/>
      <point x="353" y="0"/>
      <point x="355" y="-3"/>
      <point x="358" y="-3" type="curve"/>
      <point x="362" y="-3"/>
      <point x="370" y="0"/>
      <point x="378" y="2" type="curve"/>
      <point x="410" y="10"/>
      <point x="445" y="16"/>
      <point x="504" y="24" type="curve"/>
      <point x="506" y="28"/>
      <point x="507" y="37"/>
      <point x="507" y="52" type="curve"/>
      <point x="482" y="52"/>
      <point x="459" y="60"/>
    </contour>
    <contour>
      <point x="267" y="0" type="move" name="bottom"/>
    </contour>
    <contour>
      <point x="498" y="10" type="move" name="ogonek"/>
    </contour>
    <contour>
      <point x="267" y="431" type="move" name="top"/>
    </contour>
    <contour>
      <point x="516" y="431" type="move" name="topright"/>
    </contour>
  </outline>
</glyph>
<glyph name="v" format="1">
  <advance width="489"/>
  <unicode hex="0076"/>
  <note>
    v
  </note>
  <outline>
    <contour>
      <point x="242" y="-11" type="curve"/>
      <point x="251" y="-11"/>
      <point x="259" y="-6"/>
      <point x="267" y="12" type="curve"/>
      <point x="426" y="371" type="line" smooth="yes"/>
      <point x="437" y="395"/>
      <point x="475" y="405"/>
      <point x="494" y="405" type="curve"/>
      <point x="499" y="405"/>
      <point x="501" y="410"/>
      <point x="501" y="419" type="curve"/>
      <point x="501" y="425"/>
      <point x="500" y="430"/>
      <point x="499" y="434" type="curve"/>
      <point x="466" y="432"/>
      <point x="435" y="429"/>
      <point x="402" y="429" type="curve"/>
      <point x="370" y="429"/>
      <point x="319" y="433"/>
      <point x="304" y="434" type="curve"/>
      <point x="301" y="431"/>
      <point x="300" y="426"/>
      <point x="300" y="418" type="curve"/>
      <point x="300" y="409"/>
      <point x="301" y="405"/>
      <point x="304" y="405" type="curve"/>
      <point x="352" y="405"/>
      <point x="376" y="394"/>
      <point x="376" y="373" type="curve"/>
      <point x="376" y="366"/>
      <point x="374" y="356"/>
      <point x="368" y="343" type="curve"/>
      <point x="266" y="111" type="line"/>
      <point x="150" y="377" type="line" smooth="yes"/>
      <point x="149" y="380"/>
      <point x="146" y="386"/>
      <point x="146" y="391" type="curve"/>
      <point x="146" y="399"/>
      <point x="162" y="405"/>
      <point x="195" y="405" type="curve"/>
      <point x="198" y="405"/>
      <point x="200" y="414"/>
      <point x="200" y="422" type="curve"/>
      <point x="200" y="427"/>
      <point x="199" y="433"/>
      <point x="197" y="434" type="curve"/>
      <point x="164" y="432"/>
      <point x="132" y="429"/>
      <point x="99" y="429" type="curve"/>
      <point x="73" y="429"/>
      <point x="51" y="431"/>
      <point x="-5" y="434" type="curve"/>
      <point x="-8" y="431"/>
      <point x="-9" y="426"/>
      <point x="-9" y="418" type="curve"/>
      <point x="-9" y="409"/>
      <point x="-8" y="405"/>
      <point x="-5" y="405" type="curve"/>
      <point x="28" y="405"/>
      <point x="49" y="398"/>
      <point x="62" y="368" type="curve"/>
      <point x="225" y="1" type="line" smooth="yes"/>
      <point x="229" y="-8"/>
      <point x="237" y="-11"/>
    </contour>
    <contour>
      <point x="240" y="0" type="move" name="bottom"/>
    </contour>
    <contour>
      <point x="240" y="431" type="move" name="top"/>
    </contour>
  </outline>
</glyph>
<glyph name="w" format="1">
  <advance width="735"/>
  <unicode hex="0077"/>
  <note>
    w
  </note>
  <outline>
    <contour>
      <point x="235" y="-11" type="curve"/>
      <point x="244" y="-11"/>
      <point x="252" y="-6"/>
      <point x="260" y="12" type="curve"/>
      <point x="393" y="327" type="line"/>
      <point x="356" y="343" type="line"/>
      <point x="259" y="111" type="line"/>
      <point x="151" y="377" type="line" smooth="yes"/>
      <point x="150" y="380"/>
      <point x="147" y="386"/>
      <point x="147" y="391" type="curve"/>
      <point x="147" y="399"/>
      <point x="163" y="405"/>
      <point x="196" y="405" type="curve"/>
      <point x="199" y="405"/>
      <point x="201" y="414"/>
      <point x="201" y="422" type="curve"/>
      <point x="201" y="427"/>
      <point x="200" y="433"/>
      <point x="198" y="434" type="curve"/>
      <point x="165" y="432"/>
      <point x="133" y="429"/>
      <point x="100" y="429" type="curve"/>
      <point x="74" y="429"/>
      <point x="52" y="431"/>
      <point x="-4" y="434" type="curve"/>
      <point x="-7" y="431"/>
      <point x="-8" y="426"/>
      <point x="-8" y="418" type="curve"/>
      <point x="-8" y="409"/>
      <point x="-7" y="405"/>
      <point x="-4" y="405" type="curve"/>
      <point x="29" y="405"/>
      <point x="50" y="398"/>
      <point x="63" y="368" type="curve"/>
      <point x="218" y="1" type="line" smooth="yes"/>
      <point x="222" y="-8"/>
      <point x="230" y="-11"/>
    </contour>
    <contour>
      <point x="497" y="-11" type="curve"/>
      <point x="506" y="-11"/>
      <point x="514" y="-6"/>
      <point x="522" y="12" type="curve"/>
      <point x="671" y="371" type="line" smooth="yes"/>
      <point x="681" y="395"/>
      <point x="720" y="405"/>
      <point x="739" y="405" type="curve"/>
      <point x="744" y="405"/>
      <point x="746" y="410"/>
      <point x="746" y="419" type="curve"/>
      <point x="746" y="425"/>
      <point x="745" y="430"/>
      <point x="744" y="434" type="curve"/>
      <point x="711" y="432"/>
      <point x="680" y="429"/>
      <point x="647" y="429" type="curve"/>
      <point x="615" y="429"/>
      <point x="564" y="433"/>
      <point x="549" y="434" type="curve"/>
      <point x="546" y="431"/>
      <point x="545" y="426"/>
      <point x="545" y="418" type="curve"/>
      <point x="545" y="409"/>
      <point x="546" y="405"/>
      <point x="549" y="405" type="curve"/>
      <point x="597" y="405"/>
      <point x="621" y="394"/>
      <point x="621" y="373" type="curve"/>
      <point x="621" y="366"/>
      <point x="618" y="356"/>
      <point x="613" y="343" type="curve"/>
      <point x="521" y="111" type="line"/>
      <point x="415" y="377" type="line" smooth="yes"/>
      <point x="414" y="380"/>
      <point x="411" y="386"/>
      <point x="411" y="391" type="curve"/>
      <point x="411" y="399"/>
      <point x="427" y="405"/>
      <point x="460" y="405" type="curve"/>
      <point x="463" y="405"/>
      <point x="465" y="414"/>
      <point x="465" y="422" type="curve"/>
      <point x="465" y="427"/>
      <point x="464" y="433"/>
      <point x="462" y="434" type="curve"/>
      <point x="429" y="432"/>
      <point x="397" y="429"/>
      <point x="364" y="429" type="curve"/>
      <point x="338" y="429"/>
      <point x="316" y="431"/>
      <point x="260" y="434" type="curve"/>
      <point x="257" y="431"/>
      <point x="256" y="426"/>
      <point x="256" y="418" type="curve"/>
      <point x="256" y="409"/>
      <point x="257" y="405"/>
      <point x="260" y="405" type="curve"/>
      <point x="293" y="405"/>
      <point x="314" y="398"/>
      <point x="327" y="368" type="curve"/>
      <point x="480" y="1" type="line" smooth="yes"/>
      <point x="484" y="-8"/>
      <point x="492" y="-11"/>
    </contour>
    <contour>
      <point x="368" y="0" type="move" name="bottom"/>
    </contour>
    <contour>
      <point x="368" y="431" type="move" name="top"/>
    </contour>
  </outline>
</glyph>
<glyph name="x" format="1">
  <advance width="467"/>
  <unicode hex="0078"/>
  <note>
    x
  </note>
  <outline>
    <contour>
      <point x="265" y="-3" type="curve"/>
      <point x="317" y="0"/>
      <point x="352" y="2"/>
      <point x="374" y="2" type="curve"/>
      <point x="396" y="2"/>
      <point x="426" y="0"/>
      <point x="468" y="-3" type="curve"/>
      <point x="471" y="0"/>
      <point x="472" y="5"/>
      <point x="472" y="12" type="curve"/>
      <point x="472" y="21"/>
      <point x="471" y="26"/>
      <point x="469" y="26" type="curve"/>
      <point x="431" y="29"/>
      <point x="403" y="43"/>
      <point x="385" y="70" type="curve"/>
      <point x="187" y="373" type="line" smooth="yes"/>
      <point x="182" y="380"/>
      <point x="180" y="385"/>
      <point x="180" y="388" type="curve"/>
      <point x="180" y="399"/>
      <point x="193" y="405"/>
      <point x="220" y="405" type="curve"/>
      <point x="222" y="405"/>
      <point x="223" y="411"/>
      <point x="223" y="422" type="curve"/>
      <point x="223" y="427"/>
      <point x="223" y="431"/>
      <point x="222" y="434" type="curve"/>
      <point x="173" y="431"/>
      <point x="139" y="429"/>
      <point x="117" y="429" type="curve"/>
      <point x="95" y="429"/>
      <point x="62" y="431"/>
      <point x="17" y="434" type="curve"/>
      <point x="16" y="431"/>
      <point x="15" y="427"/>
      <point x="15" y="420" type="curve"/>
      <point x="15" y="415"/>
      <point x="15" y="410"/>
      <point x="16" y="405" type="curve"/>
      <point x="39" y="405"/>
      <point x="87" y="387"/>
      <point x="98" y="370" type="curve"/>
      <point x="302" y="56" type="line" smooth="yes"/>
      <point x="305" y="51"/>
      <point x="308" y="45"/>
      <point x="308" y="40" type="curve"/>
      <point x="308" y="34"/>
      <point x="294" y="28"/>
      <point x="266" y="26" type="curve"/>
      <point x="264" y="26"/>
      <point x="263" y="21"/>
      <point x="263" y="10" type="curve"/>
      <point x="263" y="8"/>
      <point x="264" y="4"/>
    </contour>
    <contour>
      <point x="6" y="-3" type="curve"/>
      <point x="49" y="0"/>
      <point x="82" y="2"/>
      <point x="103" y="2" type="curve"/>
      <point x="124" y="2"/>
      <point x="158" y="0"/>
      <point x="203" y="-3" type="curve"/>
      <point x="206" y="0"/>
      <point x="207" y="4"/>
      <point x="207" y="11" type="curve"/>
      <point x="207" y="21"/>
      <point x="206" y="26"/>
      <point x="204" y="26" type="curve"/>
      <point x="174" y="27"/>
      <point x="149" y="36"/>
      <point x="149" y="48" type="curve"/>
      <point x="149" y="53"/>
      <point x="151" y="60"/>
      <point x="156" y="67" type="curve"/>
      <point x="229" y="179" type="line"/>
      <point x="209" y="216" type="line"/>
      <point x="98" y="68" type="line" smooth="yes"/>
      <point x="83" y="47"/>
      <point x="53" y="33"/>
      <point x="8" y="26" type="curve"/>
      <point x="5" y="26"/>
      <point x="4" y="21"/>
      <point x="4" y="11" type="curve"/>
      <point x="4" y="7"/>
      <point x="5" y="2"/>
    </contour>
    <contour>
      <point x="246" y="269" type="line"/>
      <point x="270" y="238" type="line"/>
      <point x="370" y="371" type="line" smooth="yes"/>
      <point x="384" y="389"/>
      <point x="413" y="400"/>
      <point x="457" y="405" type="curve"/>
      <point x="459" y="405"/>
      <point x="460" y="410"/>
      <point x="460" y="420" type="curve"/>
      <point x="460" y="423"/>
      <point x="459" y="427"/>
      <point x="458" y="434" type="curve"/>
      <point x="419" y="431"/>
      <point x="389" y="429"/>
      <point x="367" y="429" type="curve"/>
      <point x="345" y="429"/>
      <point x="310" y="431"/>
      <point x="262" y="434" type="curve"/>
      <point x="260" y="431"/>
      <point x="259" y="427"/>
      <point x="259" y="421" type="curve"/>
      <point x="259" y="411"/>
      <point x="260" y="406"/>
      <point x="262" y="405" type="curve"/>
      <point x="298" y="402"/>
      <point x="316" y="402"/>
      <point x="316" y="387" type="curve"/>
      <point x="316" y="381"/>
      <point x="312" y="368"/>
      <point x="305" y="357" type="curve"/>
    </contour>
    <contour>
      <point x="234" y="0" type="move" name="bottom"/>
    </contour>
    <contour>
      <point x="234" y="431" type="move" name="top"/>
    </contour>
  </outline>
</glyph>
<glyph name="y" format="1">
  <advance width="489"/>
  <unicode hex="0079"/>
  <note>
    y
  </note>
  <outline>
    <contour>
      <point x="368" y="343" type="curve"/>
      <point x="254" y="83" type="line"/>
      <point x="229" y="29" type="line"/>
      <point x="182" y="-70" type="line" smooth="yes"/>
      <point x="160" y="-114"/>
      <point x="136" y="-134"/>
      <point x="84" y="-147" type="curve"/>
      <point x="62" y="-153"/>
      <point x="52" y="-166"/>
      <point x="52" y="-185" type="curve"/>
      <point x="52" y="-211"/>
      <point x="70" y="-227"/>
      <point x="99" y="-227" type="curve"/>
      <point x="143" y="-227"/>
      <point x="177" y="-193"/>
      <point x="211" y="-116" type="curve"/>
      <point x="426" y="371" type="line" smooth="yes"/>
      <point x="436" y="392"/>
      <point x="463" y="405"/>
      <point x="497" y="405" type="curve"/>
      <point x="500" y="405"/>
      <point x="501" y="409"/>
      <point x="501" y="419" type="curve"/>
      <point x="501" y="423"/>
      <point x="501" y="427"/>
      <point x="499" y="434" type="curve"/>
      <point x="482" y="433"/>
      <point x="433" y="429"/>
      <point x="404" y="429" type="curve"/>
      <point x="372" y="429"/>
      <point x="321" y="433"/>
      <point x="304" y="434" type="curve"/>
      <point x="301" y="431"/>
      <point x="300" y="427"/>
      <point x="300" y="418" type="curve"/>
      <point x="300" y="409"/>
      <point x="301" y="405"/>
      <point x="304" y="405" type="curve"/>
      <point x="352" y="405"/>
      <point x="376" y="394"/>
      <point x="376" y="373" type="curve"/>
      <point x="376" y="366"/>
      <point x="374" y="359"/>
    </contour>
    <contour>
      <point x="62" y="368" type="curve"/>
      <point x="233" y="-18" type="line"/>
      <point x="272" y="96" type="line"/>
      <point x="150" y="377" type="line" smooth="yes"/>
      <point x="148" y="382"/>
      <point x="146" y="389"/>
      <point x="146" y="391" type="curve"/>
      <point x="146" y="400"/>
      <point x="164" y="405"/>
      <point x="195" y="405" type="curve"/>
      <point x="198" y="405"/>
      <point x="200" y="412"/>
      <point x="200" y="422" type="curve"/>
      <point x="200" y="428"/>
      <point x="200" y="430"/>
      <point x="197" y="434" type="curve"/>
      <point x="182" y="433"/>
      <point x="132" y="429"/>
      <point x="99" y="429" type="curve"/>
      <point x="85" y="429"/>
      <point x="51" y="431"/>
      <point x="-5" y="434" type="curve"/>
      <point x="-8" y="431"/>
      <point x="-9" y="427"/>
      <point x="-9" y="418" type="curve"/>
      <point x="-9" y="409"/>
      <point x="-8" y="405"/>
      <point x="-5" y="405" type="curve"/>
      <point x="32" y="405"/>
      <point x="50" y="395"/>
    </contour>
    <contour>
      <point x="345" y="0" type="move" name="bottom"/>
    </contour>
    <contour>
      <point x="245" y="431" type="move" name="top"/>
    </contour>
  </outline>
</glyph>
<glyph name="z" format="1">
  <advance width="418"/>
  <unicode hex="007A"/>
  <note>
    z
  </note>
  <outline>
    <contour>
      <point x="280" y="40" type="curve"/>
      <point x="120" y="40" type="line"/>
      <point x="125" y="31" type="line"/>
      <point x="398" y="415" type="line"/>
      <point x="398" y="428"/>
      <point x="397" y="436"/>
      <point x="395" y="439" type="curve"/>
      <point x="351" y="434"/>
      <point x="310" y="431"/>
      <point x="273" y="431" type="curve"/>
      <point x="151" y="431" type="line" smooth="yes"/>
      <point x="127" y="431"/>
      <point x="95" y="433"/>
      <point x="56" y="437" type="curve"/>
      <point x="55" y="417"/>
      <point x="52" y="393"/>
      <point x="47" y="364" type="curve"/>
      <point x="43" y="342"/>
      <point x="40" y="322"/>
      <point x="40" y="318" type="curve"/>
      <point x="40" y="316"/>
      <point x="46" y="313"/>
      <point x="55" y="313" type="curve"/>
      <point x="67" y="313"/>
      <point x="73" y="315"/>
      <point x="75" y="319" type="curve"/>
      <point x="93" y="379"/>
      <point x="104" y="391"/>
      <point x="140" y="391" type="curve"/>
      <point x="315" y="391" type="line"/>
      <point x="307" y="416" type="line"/>
      <point x="32" y="27" type="line"/>
      <point x="31" y="26"/>
      <point x="31" y="25"/>
      <point x="31" y="23" type="curve"/>
      <point x="31" y="15"/>
      <point x="35" y="7"/>
      <point x="43" y="0" type="curve"/>
      <point x="281" y="0" type="line" smooth="yes"/>
      <point x="317" y="0"/>
      <point x="351" y="-2"/>
      <point x="387" y="-4" type="curve"/>
      <point x="409" y="119" type="line"/>
      <point x="404" y="127"/>
      <point x="395" y="131"/>
      <point x="380" y="131" type="curve"/>
      <point x="376" y="131"/>
      <point x="373" y="127"/>
      <point x="372" y="120" type="curve"/>
      <point x="355" y="62"/>
      <point x="330" y="40"/>
    </contour>
    <contour>
      <point x="209" y="0" type="move" name="bottom"/>
    </contour>
    <contour>
      <point x="209" y="216" type="move" name="center"/>
    </contour>
    <contour>
      <point x="209" y="431" type="move" name="top"/>
    </contour>
  </outline>
</glyph>
<glyph name="braceleft" format="1">
  <advance width="324"/>
  <unicode hex="007B"/>
  <note>
    braceleft
  </note>
  <outline>
    <contour>
      <point x="160" y="-2" type="curve"/>
      <point x="160" y="79"/>
      <point x="211" y="136"/>
      <point x="211" y="197" type="curve"/>
      <point x="211" y="258"/>
      <point x="176" y="304"/>
      <point x="116" y="310" type="curve"/>
      <point x="176" y="316"/>
      <point x="211" y="360"/>
      <point x="211" y="421" type="curve"/>
      <point x="211" y="482"/>
      <point x="160" y="539"/>
      <point x="160" y="620" type="curve"/>
      <point x="160" y="689"/>
      <point x="225" y="714"/>
      <point x="266" y="717" type="curve"/>
      <point x="269" y="721"/>
      <point x="270" y="725"/>
      <point x="270" y="733" type="curve"/>
      <point x="270" y="738"/>
      <point x="269" y="743"/>
      <point x="267" y="746" type="curve"/>
      <point x="169" y="736"/>
      <point x="105" y="676"/>
      <point x="105" y="593" type="curve"/>
      <point x="105" y="514"/>
      <point x="159" y="441"/>
      <point x="159" y="399" type="curve"/>
      <point x="159" y="344"/>
      <point x="122" y="325"/>
      <point x="66" y="325" type="curve"/>
      <point x="64" y="319"/>
      <point x="63" y="314"/>
      <point x="63" y="309" type="curve"/>
      <point x="63" y="304"/>
      <point x="64" y="299"/>
      <point x="66" y="293" type="curve"/>
      <point x="122" y="293"/>
      <point x="159" y="274"/>
      <point x="159" y="219" type="curve"/>
      <point x="159" y="177"/>
      <point x="105" y="104"/>
      <point x="105" y="25" type="curve"/>
      <point x="105" y="-58"/>
      <point x="169" y="-118"/>
      <point x="267" y="-128" type="curve"/>
      <point x="269" y="-125"/>
      <point x="270" y="-120"/>
      <point x="270" y="-115" type="curve"/>
      <point x="270" y="-107"/>
      <point x="269" y="-103"/>
      <point x="266" y="-99" type="curve"/>
      <point x="225" y="-96"/>
      <point x="160" y="-71"/>
    </contour>
  </outline>
</glyph>
<glyph name="braceright" format="1">
  <advance width="324"/>
  <unicode hex="007D"/>
  <note>
    braceright
  </note>
  <outline>
    <contour>
      <point x="164" y="-2" type="curve"/>
      <point x="164" y="-71"/>
      <point x="99" y="-96"/>
      <point x="58" y="-99" type="curve"/>
      <point x="55" y="-103"/>
      <point x="54" y="-107"/>
      <point x="54" y="-115" type="curve"/>
      <point x="54" y="-120"/>
      <point x="55" y="-125"/>
      <point x="57" y="-128" type="curve"/>
      <point x="155" y="-118"/>
      <point x="219" y="-58"/>
      <point x="219" y="25" type="curve"/>
      <point x="219" y="104"/>
      <point x="165" y="177"/>
      <point x="165" y="219" type="curve"/>
      <point x="165" y="274"/>
      <point x="202" y="293"/>
      <point x="258" y="293" type="curve"/>
      <point x="260" y="299"/>
      <point x="261" y="304"/>
      <point x="261" y="309" type="curve"/>
      <point x="261" y="314"/>
      <point x="260" y="319"/>
      <point x="258" y="325" type="curve"/>
      <point x="202" y="325"/>
      <point x="165" y="344"/>
      <point x="165" y="399" type="curve"/>
      <point x="165" y="441"/>
      <point x="219" y="514"/>
      <point x="219" y="593" type="curve"/>
      <point x="219" y="676"/>
      <point x="155" y="736"/>
      <point x="57" y="746" type="curve"/>
      <point x="55" y="743"/>
      <point x="54" y="738"/>
      <point x="54" y="733" type="curve"/>
      <point x="54" y="725"/>
      <point x="55" y="721"/>
      <point x="58" y="717" type="curve"/>
      <point x="99" y="714"/>
      <point x="164" y="689"/>
      <point x="164" y="620" type="curve"/>
      <point x="164" y="539"/>
      <point x="113" y="482"/>
      <point x="113" y="421" type="curve"/>
      <point x="113" y="360"/>
      <point x="148" y="316"/>
      <point x="208" y="310" type="curve"/>
      <point x="148" y="304"/>
      <point x="113" y="258"/>
      <point x="113" y="197" type="curve"/>
      <point x="113" y="136"/>
      <point x="164" y="79"/>
    </contour>
  </outline>
</glyph>
<glyph name="asciitilde" format="1">
  <advance width="584"/>
  <unicode hex="007E"/>
  <note>
    asciitilde
  </note>
  <outline>
    <contour>
      <point x="50" y="217" type="curve"/>
      <point x="68" y="198" type="line"/>
      <point x="97" y="228"/>
      <point x="131" y="247"/>
      <point x="174" y="247" type="curve"/>
      <point x="250" y="247"/>
      <point x="313" y="194"/>
      <point x="395" y="194" type="curve"/>
      <point x="451" y="194"/>
      <point x="507" y="226"/>
      <point x="534" y="275" type="curve"/>
      <point x="516" y="294" type="line"/>
      <point x="487" y="264"/>
      <point x="453" y="245"/>
      <point x="410" y="245" type="curve"/>
      <point x="334" y="245"/>
      <point x="271" y="298"/>
      <point x="189" y="298" type="curve"/>
      <point x="133" y="298"/>
      <point x="77" y="266"/>
    </contour>
  </outline>
</glyph>
